<svg width="759" height="323" viewBox="0 0 759 323" fill="none" xmlns="http://www.w3.org/2000/svg">
<g clip-path="url(#clip0_961_1534)">
<path d="M243.638 257.681H209.019V318.428H125.085V257.681H0V195.629L130.637 4.57227H209.019V194.322H243.638V257.681ZM125.085 194.322V157.744C125.085 150.886 125.411 141.741 125.738 129.984C126.391 118.226 126.718 112.348 127.044 111.695H124.758C119.859 122.799 114.307 132.923 108.102 142.721L73.4832 194.322H125.085Z" fill="#9923AC"/>
<path d="M492.503 161.99C492.503 217.511 483.031 258.335 464.742 284.135C446.127 309.936 417.713 323 379.175 323C341.617 323 313.53 309.61 294.261 282.503C275.319 255.395 265.848 215.224 265.848 161.99C265.848 106.143 274.992 65.3185 293.935 39.1911C312.55 13.0637 340.964 0 379.502 0C416.733 0 445.147 13.7169 464.089 40.8241C483.031 67.9312 492.503 108.102 492.503 161.99ZM350.108 161.99C350.108 197.588 352.395 222.083 356.64 235.147C361.213 248.537 368.398 255.069 378.849 255.069C389.299 255.069 396.811 248.21 401.383 234.493C405.629 220.777 407.915 196.609 407.915 161.99C407.915 127.044 405.629 102.877 401.383 88.8332C396.811 74.7897 389.626 67.9312 379.175 67.9312C368.724 67.9312 361.213 74.7897 356.967 88.18C352.395 101.57 350.108 126.065 350.108 161.99Z" fill="#9923AC"/>
<path d="M759.001 257.681H724.382V318.428H640.448V257.681H515.363V195.629L646 4.57227H724.382V194.322H759.001V257.681ZM640.775 194.322V157.744C640.775 150.886 641.101 141.741 641.428 129.984C642.081 118.226 642.408 112.348 642.734 111.695H640.448C635.549 122.799 629.997 132.923 623.792 142.721L588.846 194.649H640.775V194.322Z" fill="#9923AC"/>
</g>
<g clip-path="url(#clip1_961_1534)">
<path d="M461.756 170.449C487.432 170.449 508.247 149.584 508.247 123.846C508.247 98.1073 487.432 77.2422 461.756 77.2422C436.08 77.2422 415.266 98.1073 415.266 123.846C415.266 149.584 436.08 170.449 461.756 170.449Z" fill="white"/>
<path d="M308.803 170.449C334.479 170.449 355.294 149.584 355.294 123.846C355.294 98.1073 334.479 77.2422 308.803 77.2422C283.127 77.2422 262.312 98.1073 262.312 123.846C262.312 149.584 283.127 170.449 308.803 170.449Z" fill="white"/>
<path d="M336.197 86.2324C340.956 93.5716 343.701 102.256 343.701 111.675C343.701 137.423 322.896 158.278 297.21 158.278C286.961 158.278 277.504 154.915 269.816 149.288C278.114 162.07 292.452 170.449 308.803 170.449C334.488 170.449 355.293 149.594 355.293 123.846C355.232 108.433 347.728 94.7336 336.197 86.2324Z" fill="#EFEFEF"/>
<path d="M489.091 86.2324C493.85 93.5716 496.596 102.256 496.596 111.675C496.596 137.423 475.791 158.278 450.105 158.278C439.855 158.278 430.398 154.915 422.711 149.288C431.008 162.07 445.346 170.449 461.697 170.449C487.383 170.449 508.188 149.594 508.188 123.846C508.188 108.433 500.683 94.7336 489.091 86.2324Z" fill="#EFEFEF"/>
<path d="M308.802 172.59C282.018 172.59 260.176 150.695 260.176 123.846C260.176 96.9967 282.018 75.1016 308.802 75.1016C335.586 75.1016 357.428 96.9967 357.428 123.846C357.428 150.695 335.647 172.59 308.802 172.59ZM308.802 79.3827C284.336 79.3827 264.447 99.3207 264.447 123.846C264.447 148.371 284.336 168.309 308.802 168.309C333.267 168.309 353.157 148.371 353.157 123.846C353.157 99.3207 333.267 79.3827 308.802 79.3827Z" fill="#231F20"/>
<path d="M307.58 136.2C316.105 136.2 323.016 129.272 323.016 120.726C323.016 112.181 316.105 105.253 307.58 105.253C299.055 105.253 292.145 112.181 292.145 120.726C292.145 129.272 299.055 136.2 307.58 136.2Z" fill="#231F20"/>
<path d="M303.798 124.274C307.303 124.274 310.143 121.426 310.143 117.913C310.143 114.4 307.303 111.553 303.798 111.553C300.294 111.553 297.453 114.4 297.453 117.913C297.453 121.426 300.294 124.274 303.798 124.274Z" fill="white"/>
<path d="M461.756 136.2C470.281 136.2 477.192 129.272 477.192 120.726C477.192 112.181 470.281 105.253 461.756 105.253C453.231 105.253 446.32 112.181 446.32 120.726C446.32 129.272 453.231 136.2 461.756 136.2Z" fill="#231F20"/>
<path d="M457.974 124.274C461.478 124.274 464.319 121.426 464.319 117.913C464.319 114.4 461.478 111.553 457.974 111.553C454.47 111.553 451.629 114.4 451.629 117.913C451.629 121.426 454.47 124.274 457.974 124.274Z" fill="white"/>
<path d="M461.755 172.59C434.971 172.59 413.129 150.695 413.129 123.846C413.129 96.9967 434.971 75.1016 461.755 75.1016C488.539 75.1016 510.381 96.9967 510.381 123.846C510.381 150.695 488.6 172.59 461.755 172.59ZM461.755 79.3827C437.289 79.3827 417.4 99.3207 417.4 123.846C417.4 148.371 437.289 168.309 461.755 168.309C486.22 168.309 506.11 148.371 506.11 123.846C506.11 99.3207 486.22 79.3827 461.755 79.3827Z" fill="#231F20"/>
<path d="M238.394 67.1508C247.79 73.2668 247.546 55.8363 264.934 43.7879C279.394 33.7578 292.999 39.5068 293.06 31.2502C293.121 22.9937 276.587 17.734 254.745 31.0667C238.455 40.9746 227.473 59.9952 238.394 67.1508Z" fill="#231F20"/>
<path d="M521.366 62.5027C511.787 68.3128 512.58 50.9435 495.619 38.2835C481.464 27.7641 467.737 33.085 467.92 24.8284C468.103 16.5719 484.82 11.8626 506.235 25.8681C522.159 36.3876 532.47 55.714 521.366 62.5027Z" fill="#231F20"/>
<path d="M391.595 279.741C356.33 279.802 316.185 278.457 316.856 257.907C317.527 237.358 352.487 189.409 391.595 191.672C430.703 193.996 473.167 235.645 465.479 258.764C457.792 281.943 410.752 279.741 391.595 279.741Z" fill="#231F20"/>
<path d="M358.892 303.899C372.863 299.374 387.994 298.578 402.393 301.514C406.541 302.37 410.568 303.532 414.534 304.939C415.266 305.184 416.12 304.633 416.303 303.961C416.547 303.165 416.059 302.493 415.327 302.187C401.05 296.988 385.554 295.704 370.606 298.15C366.396 298.823 362.247 299.863 358.221 301.147C356.39 301.698 357.122 304.45 358.892 303.899Z" fill="#231F20"/>
</g>
<defs>
<clipPath id="clip0_961_1534">
<rect width="759" height="323" fill="white"/>
</clipPath>
<clipPath id="clip1_961_1534">
<rect width="292" height="288" fill="white" transform="translate(234 17)"/>
</clipPath>
</defs>
</svg>
