<svg width="20" height="20" viewBox="0 0 20 20" fill="none" xmlns="http://www.w3.org/2000/svg">
<path d="M7.4514 8.18599V1.12741C7.45145 1.03328 7.42891 0.940517 7.38567 0.856906C7.34244 0.773296 7.27976 0.701283 7.20292 0.646917C7.12608 0.592552 7.03731 0.557421 6.94408 0.544477C6.85084 0.531533 6.75586 0.541153 6.66712 0.572529C4.42146 1.36631 2.53289 2.93559 1.34132 4.99792C0.149755 7.06025 -0.266549 9.48018 0.16734 11.8221C0.184396 11.9148 0.223442 12.0019 0.281194 12.0763C0.338947 12.1507 0.413717 12.2102 0.499219 12.2496C0.58472 12.2891 0.678452 12.3075 0.772532 12.3032C0.866613 12.2989 0.958292 12.2721 1.03986 12.2251L7.1573 8.69578C7.24677 8.64412 7.32106 8.56981 7.37269 8.48031C7.42432 8.39082 7.45147 8.28931 7.4514 8.18599ZM6.27497 7.84287L1.21044 10.7643C1.18822 10.5101 1.17711 10.2552 1.17711 9.99966C1.17838 8.31979 1.65865 6.67511 2.56159 5.25854C3.46452 3.84197 4.75268 2.71225 6.27497 2.00189V7.84287ZM18.6834 5.04394C18.6755 5.02826 18.6677 5.01257 18.6589 4.99787C18.6512 4.98343 18.6423 4.96966 18.6324 4.95669C17.7517 3.44867 16.4914 2.19759 14.9769 1.32797C13.4625 0.458342 11.7467 0.000498128 10.0003 0C9.84433 0 9.69472 0.0619724 9.58441 0.172284C9.47409 0.282596 9.41212 0.432211 9.41212 0.588215V9.70555L1.58886 14.2603C1.52203 14.2993 1.46355 14.3511 1.41677 14.4127C1.37 14.4744 1.33584 14.5446 1.31626 14.6195C1.29668 14.6943 1.29206 14.7723 1.30267 14.849C1.31328 14.9256 1.33891 14.9994 1.37808 15.0661C2.4898 16.9588 4.19339 18.4331 6.22605 19.2616C8.25871 20.0901 10.5075 20.2267 12.6255 19.6505C14.7436 19.0742 16.6131 17.8171 17.9459 16.073C19.2786 14.3289 20.0004 12.1947 20 9.99966C20.002 8.26104 19.548 6.55231 18.6834 5.04394ZM10.5886 1.19604C11.9353 1.28654 13.2433 1.68484 14.412 2.36026C15.5806 3.03568 16.5787 3.97023 17.3295 5.09198L10.5886 9.0193V1.19604ZM10.0003 18.8229C8.56367 18.8191 7.14943 18.4663 5.87924 17.795C4.60905 17.1237 3.52092 16.154 2.70843 14.9691L10.2876 10.5575L10.3042 10.5477L17.9187 6.11253C18.5787 7.45752 18.8854 8.94843 18.8099 10.4447C18.7343 11.941 18.2789 13.3935 17.4867 14.6651C16.6945 15.9367 15.5915 16.9857 14.2818 17.7131C12.972 18.4405 11.4986 18.8225 10.0003 18.8229Z" fill="white"/>
</svg>
