<svg width="16" height="16" viewBox="0 0 16 16" fill="none" xmlns="http://www.w3.org/2000/svg">
<g clip-path="url(#clip0_316_653)">
<path d="M7.99542 7.63121C9.667 7.63121 11.0221 6.27613 11.0221 4.60455C11.0221 2.93297 9.667 1.57788 7.99542 1.57788C6.32383 1.57788 4.96875 2.93297 4.96875 4.60455C4.96875 6.27613 6.32383 7.63121 7.99542 7.63121Z" fill="#0ADA76"/>
<path d="M5.33327 11.8445C5.34251 11.5986 5.42444 11.3609 5.56872 11.1616C5.71299 10.9622 5.91313 10.8101 6.14384 10.7245C6.37454 10.6389 6.62545 10.6236 6.86485 10.6805C7.10425 10.7375 7.32139 10.8641 7.48882 11.0445L9.20438 12.8889L12.2444 9.49781C10.9886 8.66096 9.50886 8.22401 7.99994 8.24448C6.95321 8.21801 5.9134 8.42116 4.9536 8.83963C3.9938 9.2581 3.13732 9.88174 2.44438 10.6667C2.38576 10.7448 2.35452 10.8401 2.35549 10.9378V13.3334C2.35539 13.5646 2.44537 13.7867 2.60634 13.9527C2.76732 14.1186 2.98662 14.2153 3.21771 14.2223H7.0266L5.66216 12.7556C5.54942 12.6333 5.46226 12.4897 5.40578 12.3332C5.3493 12.1768 5.32465 12.0106 5.33327 11.8445Z" fill="#0ADA76"/>
<path d="M12.783 14.2221C13.0141 14.2152 13.2334 14.1185 13.3944 13.9525C13.5554 13.7866 13.6453 13.5644 13.6452 13.3332V11.6621L11.3652 14.2221H12.783Z" fill="#0ADA76"/>
<path d="M15.0093 8.27558C14.9657 8.23616 14.9147 8.20579 14.8593 8.18622C14.8038 8.16666 14.745 8.15829 14.6864 8.16159C14.6277 8.1649 14.5702 8.17982 14.5173 8.20549C14.4644 8.23116 14.4171 8.26707 14.3782 8.31113L9.21377 14.0889L6.90266 11.6045C6.86473 11.5601 6.81843 11.5237 6.7664 11.4972C6.71438 11.4707 6.65765 11.4548 6.59946 11.4502C6.54126 11.4457 6.48275 11.4527 6.42725 11.4707C6.37175 11.4888 6.32035 11.5176 6.276 11.5556C6.23434 11.5969 6.20128 11.646 6.17871 11.7002C6.15615 11.7544 6.14453 11.8125 6.14453 11.8711C6.14453 11.9298 6.15615 11.9879 6.17871 12.0421C6.20128 12.0962 6.23434 12.1454 6.276 12.1867L9.24489 15.3867L15.0404 8.88891C15.1152 8.80232 15.1536 8.69024 15.1479 8.57601C15.1421 8.46177 15.0924 8.35416 15.0093 8.27558Z" fill="#0ADA76"/>
</g>
<defs>
<clipPath id="clip0_316_653">
<rect width="16" height="16" fill="white"/>
</clipPath>
</defs>
</svg>
