<svg width="192" height="268" viewBox="0 0 192 268" fill="none" xmlns="http://www.w3.org/2000/svg">
<path d="M37.8947 11.18C45.2153 -3.21904 65.7847 -3.21907 73.1053 11.18L88.7989 42.048C92.9331 50.1798 101.994 54.5434 110.929 52.7056L144.848 45.7294C160.67 42.4752 173.495 58.557 166.801 73.2582L152.452 104.774C148.672 113.076 150.91 122.881 157.918 128.721L184.52 150.89C196.929 161.231 192.352 181.285 176.685 185.218L143.099 193.649C134.251 195.87 127.981 203.733 127.784 212.853L127.038 247.474C126.69 263.623 108.157 272.548 95.3141 262.751L67.7816 241.749C60.5285 236.216 50.4715 236.216 43.2184 241.749L15.6859 262.751C2.84275 272.548 -15.6897 263.623 -16.0378 247.474L-16.7841 212.853C-16.9807 203.733 -23.2511 195.87 -32.0989 193.649L-65.6852 185.218C-81.3522 181.285 -85.9294 161.231 -73.5203 150.89L-46.9183 128.721C-39.9104 122.881 -37.6725 113.076 -41.4525 104.774L-55.8013 73.2582C-62.4947 58.5571 -49.6698 42.4752 -33.8479 45.7294L0.0705185 52.7056C9.00582 54.5434 18.0669 50.1798 22.2011 42.0481L37.8947 11.18Z" fill="#1EC1CB" stroke="#151515" stroke-width="0.5"/>
</svg>
