<svg width="149" height="146" viewBox="0 0 149 146" fill="none" xmlns="http://www.w3.org/2000/svg">
<path d="M67.467 4.86068C70.3397 -0.789591 78.4112 -0.789586 81.2839 4.86069L92.5914 27.1017C94.2757 30.4146 97.9672 32.1923 101.608 31.4436L126.046 26.4171C132.255 25.1402 137.287 31.4508 134.661 37.2196L124.322 59.9271C122.782 63.3096 123.694 67.3041 126.549 69.6834L145.716 85.6565C150.586 89.7144 148.79 97.5836 142.642 99.1269L118.442 105.202C114.838 106.107 112.283 109.31 112.203 113.026L111.665 137.97C111.529 144.307 104.256 147.809 99.2167 143.965L79.3791 128.833C76.4241 126.579 72.3268 126.579 69.3719 128.833L49.5342 143.965C44.4945 147.809 37.2223 144.307 37.0857 137.97L36.548 113.026C36.4679 109.31 33.9132 106.107 30.3086 105.202L6.10909 99.1269C-0.0387383 97.5836 -1.83482 89.7144 3.03457 85.6565L22.2017 69.6834C25.0568 67.3041 25.9686 63.3096 24.4286 59.9271L14.09 37.2196C11.4635 31.4508 16.496 25.1402 22.7046 26.4171L47.1434 31.4436C50.7837 32.1923 54.4752 30.4146 56.1596 27.1016L67.467 4.86068Z" fill="#9923AC" stroke="#151515" stroke-width="0.5"/>
</svg>
