<svg width="221" height="39" viewBox="0 0 221 39" fill="none" xmlns="http://www.w3.org/2000/svg">
<path d="M17.9777 10.5329C21.3599 10.533 24.6088 10.5606 27.8567 10.5153C28.759 10.5027 29.1904 10.8227 29.1911 11.7036C29.1953 17.126 29.1932 22.5484 29.1932 28.0664C20.0108 28.0664 10.9212 28.0664 1.68371 28.0664C1.68371 26.7482 1.68371 25.4701 1.68371 24.1919C1.68373 20.1424 1.71991 16.0923 1.66078 12.0436C1.644 10.8944 1.96135 10.4929 3.15922 10.5077C8.05356 10.5682 12.9491 10.5329 17.9777 10.5329ZM20.649 19.7464C20.6488 18.5012 20.659 17.2559 20.6409 16.0109C20.6366 15.72 20.6396 15.3136 20.4642 15.1589C19.1096 13.9643 17.9414 12.3463 15.7301 12.9231C15.3554 13.0209 14.9332 12.9369 14.533 12.9369C11.6843 12.9371 9.96437 14.6266 9.96432 17.4247C9.9643 18.4031 10.0504 19.3907 9.9465 20.3579C9.72687 22.4033 10.0961 24.1328 12.1263 25.1132C12.651 25.3666 13.2008 25.6854 13.7584 25.7295C14.9516 25.8237 16.158 25.7756 17.358 25.7467C17.69 25.7387 18.0989 25.6906 18.3357 25.4952C19.757 24.3218 21.2378 23.1569 20.6594 20.9428C20.5833 20.6513 20.649 20.3229 20.649 19.7464ZM7.02604 21.618C7.02604 18.3917 7.02604 15.1654 7.02604 11.9525C5.58753 11.9525 4.36225 11.9525 3.12516 11.9525C3.12516 16.9424 3.12516 21.8476 3.12516 26.743C4.45766 26.743 5.68293 26.743 7.02604 26.743C7.02604 25.0689 7.02604 23.477 7.02604 21.618ZM27.7543 20.9101C27.7898 20.2077 27.7771 19.4987 27.8713 18.8042C28.0503 17.4832 27.4653 17.1411 26.2186 17.1877C23.2466 17.2989 23.5947 16.7853 23.612 19.9345C23.6145 20.4011 23.9262 21.2569 24.1286 21.2671C25.2855 21.3257 26.4525 21.1829 27.7543 20.9101ZM23.5872 14.3661C23.811 14.8639 24.0148 15.7768 24.2619 15.7886C25.416 15.844 26.5828 15.6578 27.7413 15.5254C27.7976 15.5189 27.8306 15.2061 27.8543 15.0333C28.2631 12.0613 28.0791 11.8496 25.1159 11.8684C24.9827 11.8693 24.8483 11.8809 24.7165 11.8675C23.8276 11.7769 23.5102 12.2142 23.5827 13.053C23.6132 13.4056 23.5874 13.7631 23.5872 14.3661ZM24.6081 22.8214C24.2745 23.0299 23.6835 23.2066 23.653 23.4526C23.5395 24.3703 23.4803 25.3405 23.6833 26.2263C23.7519 26.5254 24.6757 26.8261 25.1803 26.7843C26.069 26.7105 27.1517 27.3716 27.8311 26.2549C27.8723 26.1873 27.8444 26.0799 27.8567 25.9922C28.2662 23.0534 28.0648 22.8195 25.1232 22.82C25.0344 22.8201 24.9456 22.8202 24.6081 22.8214Z" fill="#151515"/>
<path d="M70.1007 23.9559C67.5191 27.8984 64.13 30.2246 59.3413 30.0295C55.0034 29.8527 51.9699 26.8065 51.5868 22.4183C51.2762 18.8605 52.3756 15.7234 54.6291 13.0208C58.1295 8.82284 64.9599 7.2848 69.3433 11.0112C70.9784 12.4012 71.6956 14.2122 71.8802 16.2791C72.1225 18.9914 71.4793 21.5122 70.1007 23.9559ZM58.8277 12.7838C56.0575 15.1666 54.2831 18.0697 54.5445 21.8356C54.8624 26.4166 58.504 29.0769 62.9831 26.984C66.7076 25.2437 68.4669 21.9861 68.8902 18.1125C69.2658 14.675 67.7228 12.3156 64.6258 11.4624C62.5763 10.8978 60.7651 11.7682 58.8277 12.7838Z" fill="#151515"/>
<path d="M113.465 16.8702C114.82 12.5186 119.624 8.98505 124.058 8.91302C126.628 8.87125 128.926 9.36865 130.774 11.3127C132.864 13.5118 133.336 16.1566 132.942 19.0194C132.581 21.6439 131.441 23.9866 129.721 25.9501C126.61 29.5014 121.088 31.6572 116.206 28.6556C114.2 27.4224 113.072 25.4286 112.729 22.9998C112.433 20.9027 112.713 18.9204 113.465 16.8702ZM116.458 17.3112C115.483 18.9238 115.537 20.7324 115.729 22.4652C116.148 26.261 119.325 28.6375 123.199 27.322C127.556 25.8427 130.782 20.424 129.832 15.7196C129.273 12.9536 126.718 11.2985 124.675 11.2701C121.372 11.2242 117.865 13.7165 116.458 17.3112Z" fill="#151515"/>
<path d="M109.95 12.1492C110.506 14.9438 109.559 17.0856 107.61 18.4692C108.233 19.7408 108.979 20.7719 109.251 21.9157C109.892 24.6103 108.731 27.1925 106.296 28.3996C105.085 28.9996 103.665 29.3502 102.313 29.4524C100.104 29.6192 97.8718 29.4913 95.6495 29.4845C95.5633 29.4843 95.4773 29.4508 95.2461 29.4025C96.5564 22.7028 97.8667 16.0029 99.2423 8.96924C101.934 9.22514 104.599 9.40097 107.239 9.76325C108.507 9.93727 109.476 10.7479 109.95 12.1492ZM98.6045 26.7174C98.8076 26.9302 98.9993 27.3119 99.2158 27.3266C100.189 27.3926 101.23 27.5642 102.131 27.3013C103.305 26.9589 104.512 26.4143 105.445 25.6423C106.6 24.6861 106.698 23.1149 106.184 21.849C105.722 20.7097 104.52 20.2395 103.172 20.3996C102.383 20.4933 101.574 20.4359 100.775 20.4118C100.1 20.3914 99.7605 20.5764 99.641 21.3497C99.3751 23.0721 98.9607 24.7715 98.6045 26.7174ZM101.139 13.997C100.897 15.2952 100.656 16.5933 100.392 18.0123C101.288 18.0123 101.91 17.9649 102.523 18.0211C104.5 18.2022 105.857 17.2104 106.701 15.598C107.857 13.3915 106.93 11.8714 104.544 11.6198C103.584 11.5187 102.604 11.6032 101.545 11.6032C101.432 12.4076 101.335 13.0975 101.139 13.997Z" fill="#151515"/>
<path d="M184.807 25.9649C181.96 28.3106 178.812 29.5575 175.181 29.5029C173.315 29.4749 171.45 29.498 169.422 29.498C170.757 22.6989 172.072 16 173.411 9.18262C176.692 9.37275 179.89 8.84796 183.076 9.86532C187.499 11.2782 188.803 15.6063 188.262 19.2244C187.877 21.806 186.768 24.0608 184.807 25.9649ZM178.225 26.8026C180.336 26.0283 182.509 25.2265 183.597 23.1065C184.399 21.5455 185.113 19.8269 185.334 18.11C185.589 16.133 184.934 14.2861 183.174 12.9206C181.03 11.2568 178.6 11.6296 176.205 11.6515C175.987 11.6534 175.633 12.0868 175.578 12.3661C174.605 17.3295 173.669 22.3 172.674 27.5351C174.545 27.285 176.274 27.0538 178.225 26.8026Z" fill="#151515"/>
<path d="M92.7508 14.8188C92.738 14.9355 92.7252 15.0521 92.6116 15.2717C92.2708 15.6405 91.8407 15.8959 91.8257 16.1738C91.778 17.0584 91.8847 17.9514 91.9317 18.8412C91.8152 19.6848 91.6987 20.5285 91.4235 21.4619C91.2199 21.9839 91.175 22.4161 91.1301 22.8482C90.9481 23.8372 90.7661 24.8262 90.4986 25.9371C90.3846 26.3233 90.3561 26.5877 90.3276 26.8522C90.2346 27.3983 90.1416 27.9445 89.9227 28.609C88.8986 28.9922 88.0004 29.257 87.1022 29.5218C85.589 26.3874 84.0744 23.2538 82.5633 20.1184C81.7676 18.4676 80.9807 16.8124 80.1842 15.162C80.0046 14.7899 79.8014 14.4292 79.4897 13.8363C79.4135 14.2873 79.3851 14.456 79.2939 14.7478C79.1967 15.0317 79.1622 15.1923 79.1278 15.353C78.9583 16.3537 78.7889 17.3544 78.493 18.4762C77.7228 18.9095 77.8416 19.2666 78.305 19.6439C77.9461 21.5227 77.5872 23.4015 77.1518 25.4277C77.0454 25.8175 77.0156 26.0601 76.9858 26.3026C76.8663 27.1519 76.7468 28.0012 76.4419 28.8993C75.6008 28.9534 74.9453 28.9587 74.255 28.8941C74.1507 28.6845 74.0812 28.5446 74.0117 28.4048C74.1048 27.8586 74.1978 27.3123 74.3667 26.6213C74.4725 26.234 74.5023 25.9915 74.5322 25.7489C74.5434 25.6317 74.5546 25.5145 74.6378 25.2691C74.7396 24.8984 74.7694 24.6559 74.7993 24.4133C74.8105 24.2961 74.8217 24.1789 74.9248 23.9385C75.6027 23.4462 75.6869 23.0297 75.1358 22.5533C75.5688 20.3106 76.0018 18.068 76.4977 15.6848C76.5951 15.3835 76.6295 15.2229 76.664 15.0622C76.949 13.3875 77.2198 11.7101 77.5368 10.0414C77.5763 9.83392 77.8269 9.5854 78.0369 9.50472C79.2838 9.02564 80.5728 9.6194 81.1334 10.8358C83.027 14.9442 84.9386 19.0442 86.8152 23.2789C86.9055 23.566 87.0239 23.7218 87.1423 23.8775C87.3918 24.2342 87.6414 24.5909 87.9839 25.0803C88.2559 23.9176 88.4846 22.9401 88.8188 21.84C89.1372 21.5334 89.3502 21.3495 89.5632 21.1656C89.384 21.005 89.2049 20.8443 89.0257 20.6837C89.4556 18.3509 89.8855 16.0182 90.415 13.5705C90.6905 13.3587 90.8665 13.2617 91.0425 13.1648C90.8884 12.988 90.7343 12.8112 90.5802 12.6344C90.5846 12.5228 90.589 12.4112 90.661 12.1773C90.7474 11.8248 90.7663 11.5946 90.7851 11.3644C90.8093 11.2392 90.8335 11.1139 90.9711 10.8764C91.9714 10.5091 92.8582 10.254 93.7451 9.99895C93.5819 10.8192 93.4188 11.6394 93.1564 12.5727C92.8819 12.7839 92.7067 12.882 92.5315 12.9801C92.6942 13.1474 92.8569 13.3146 93.0196 13.4819C93.0063 13.5988 92.9929 13.7158 92.9075 13.9611C92.8072 14.3326 92.779 14.5757 92.7508 14.8188Z" fill="#151515"/>
<path d="M154.131 29.4978C153.485 29.4979 152.956 29.4979 152.359 29.4979C153.698 22.7028 155.015 16.0161 156.36 9.18871C159.181 9.3669 162.001 8.77734 164.754 9.8009C168.196 11.0804 168.125 15.2668 166.721 17.2461C165.86 18.4607 164.618 19.4761 163.371 20.321C162.594 20.8477 162.552 21.1762 162.917 21.9037C163.524 23.1167 164.043 24.3736 164.616 25.6046C165.186 26.8311 165.776 28.0485 166.386 29.3302C166.143 29.4141 166.039 29.4676 165.929 29.4854C164.202 29.7659 162.992 29.3948 162.405 27.4462C161.867 25.6578 160.884 24.0075 160.171 22.2661C159.713 21.1488 159.125 20.5698 157.877 21.1774C157.621 21.302 157.276 21.2424 156.854 21.2775C156.396 23.559 155.945 25.8211 155.488 28.0821C155.345 28.7861 155.384 29.6595 154.131 29.4978ZM161.654 11.6021C160.727 11.6021 159.8 11.6021 158.765 11.6021C158.293 13.8204 157.831 15.98 157.382 18.1422C157.347 18.3065 157.403 18.4892 157.416 18.6568C159.465 19.0374 160.976 18.8414 162.401 18.0185C163.86 17.1764 164.837 15.4443 164.549 13.948C164.278 12.5369 163.274 11.8215 161.654 11.6021Z" fill="#151515"/>
<path d="M209.635 9.89757C209.868 9.59783 210.05 9.22963 210.225 9.23244C212.343 9.26637 214.463 9.31012 216.577 9.4421C218.714 9.57554 220.313 10.6581 220.806 12.7547C221.313 14.9065 220.846 16.9932 219.149 18.56C218.193 19.4429 217.056 20.1298 215.919 20.9651C217.157 23.67 218.444 26.4808 219.825 29.4977C218.993 29.4977 218.297 29.584 217.636 29.4671C217.203 29.3904 216.617 29.1176 216.449 28.7657C215.392 26.5554 214.423 24.303 213.45 22.0536C213.175 21.4181 212.914 20.7048 212.074 20.9835C211.28 21.2475 210.139 20.8749 209.941 22.3784C209.631 24.7458 209.04 27.0764 208.564 29.4467C207.595 29.4467 206.718 29.4467 205.75 29.4467C207.036 22.9208 208.308 16.4611 209.635 9.89757ZM211.536 12.6753C211.563 12.9443 211.59 13.2134 211.593 13.6797C211.576 13.8773 211.559 14.075 211.4 14.3377C210.548 15.3594 210.417 16.5031 210.794 17.9687C210.969 18.248 211.122 18.7528 211.32 18.7712C213.139 18.9402 214.958 18.8875 216.405 17.5672C217.477 16.5888 218.353 15.2971 217.902 13.8629C217.635 13.0124 216.632 12.2786 215.794 11.7635C215.262 11.4368 214.424 11.6087 213.644 11.4528C213.403 11.4875 213.162 11.5223 212.731 11.5918C212.538 11.5987 212.344 11.6057 211.991 11.6895C211.851 11.9841 211.711 12.2788 211.491 12.5235C211.491 12.5235 211.57 12.4729 211.536 12.6753Z" fill="#151515"/>
<path d="M147.482 16.1099C148.017 19.3321 148.553 22.4356 149.08 25.5406C149.292 26.7869 149.485 28.0364 149.706 29.4018C148.772 29.4018 147.99 29.4018 146.97 29.4018C146.705 27.8886 146.353 26.2834 146.172 24.6591C146.08 23.8313 145.763 23.6018 145.005 23.6136C143.181 23.6422 141.354 23.56 139.536 23.6637C139.042 23.6918 138.421 24.1157 138.129 24.5428C137.439 25.5521 136.885 26.6589 136.324 27.751C135.364 29.6199 134.804 29.9222 132.355 29.6105C133.199 28.009 133.976 26.4677 134.813 24.9596C136.726 21.5124 138.669 18.082 140.598 14.6437C141.52 13.001 142.416 11.3433 143.378 9.72445C143.533 9.46312 143.957 9.26335 144.281 9.22145C144.893 9.14233 145.522 9.1986 146.342 9.1986C146.721 11.4639 147.1 13.7278 147.482 16.1099ZM140.297 20.5675C140.384 20.7818 140.468 21.1809 140.56 21.183C142.224 21.2207 143.889 21.2104 145.599 21.2104C145.163 18.54 144.761 16.0787 144.304 13.2755C142.885 15.8787 141.65 18.1438 140.297 20.5675Z" fill="#151515"/>
<path d="M194.534 20.7067C194.129 22.9296 193.751 25.035 193.343 27.3041C196.349 27.3041 199.218 27.3041 202.106 27.3041C201.788 29.4981 201.788 29.4982 199.662 29.4982C196.505 29.4983 193.348 29.4982 190.027 29.4982C191.366 22.7004 192.687 15.9955 194.014 9.25342C197.918 9.25342 201.732 9.25342 205.541 9.25342C205.789 11.2391 205.498 11.6004 203.684 11.6014C201.327 11.6026 198.97 11.6017 196.421 11.6017C195.992 13.6862 195.564 15.7645 195.111 17.9652C197.476 17.9652 199.76 17.9652 202.136 17.9652C201.96 18.8377 201.809 19.5867 201.606 20.5892C199.239 20.5892 196.899 20.5892 194.534 20.7067Z" fill="#151515"/>
<path d="M42.8205 38.8029C42.5551 38.6267 42.2157 38.5013 42.0486 38.2576C41.9237 38.0754 42.0195 37.7407 42.0195 37.4739C42.0192 25.3783 42.0132 13.2827 42.0433 1.18718C42.0444 0.745082 42.4002 0.303879 42.7055 0C42.8204 13.0261 42.8205 25.9145 42.8205 38.8029Z" fill="#151515"/>
<path d="M6.49088 30.8338C4.43968 30.7673 2.44327 31.2013 0.709349 29.9587C0.461908 29.7814 0.235922 29.5741 0 29.3807C0.0359366 29.2712 0.0718736 29.1616 0.107814 29.052C0.515004 29.0228 0.922137 28.9692 1.3294 28.9682C4.26462 28.9609 7.20247 29.0369 10.1339 28.9318C11.4833 28.8835 12.2194 29.2522 12.2797 30.8338C10.3974 30.8338 8.51074 30.8338 6.49088 30.8338Z" fill="#151515"/>
<path d="M21.9888 30.8341C20.748 30.8341 19.6398 30.8341 18.51 30.8341C18.4203 29.4788 18.9265 28.9046 20.32 28.9405C23.3374 29.0183 26.3581 28.9607 29.3774 28.969C29.7911 28.9701 30.2047 29.0313 30.9653 29.0927C29.4478 30.1791 28.2913 30.9991 26.6481 30.8608C25.149 30.7346 23.631 30.8341 21.9888 30.8341Z" fill="#151515"/>
<path d="M42.5668 38.7591C42.4609 25.9148 42.4609 13.0264 42.4609 0.015625C42.5496 0.200587 42.7155 0.507825 42.7158 0.815242C42.7285 13.2721 42.7264 25.7289 42.7237 38.1857C42.7236 38.3621 42.6904 38.5385 42.5668 38.7591Z" fill="#151515"/>
<path d="M17.2831 28.9669C17.5477 29.1421 17.8477 29.3562 17.8144 29.4821C17.6957 29.9304 17.4636 30.3488 17.25 30.834C16.3665 30.834 15.4815 30.7817 14.6052 30.8463C13.3124 30.9416 12.8576 30.3241 12.9538 28.9653C14.365 28.9653 15.7653 28.9653 17.2831 28.9669Z" fill="#151515"/>
<path d="M17.1413 24.5954C16.0518 24.8298 14.9833 24.9398 13.8008 25.0614C13.8008 22.6454 13.8008 20.4174 13.8008 18.0977C14.8773 18.0977 15.9516 18.0977 17.1622 18.0977C17.1622 20.2502 17.1622 22.3605 17.1413 24.5954Z" fill="#151515"/>
<path d="M18.3913 16.6619C17.929 16.8899 17.5529 17.1522 17.1561 17.1887C16.364 17.2616 15.5605 17.2108 14.7618 17.2108C12.655 17.2107 12.655 17.2106 11.2305 15.6091C12.5834 13.1549 14.9305 13.6319 17.045 13.811C17.922 13.8853 18.7328 14.7417 19.6822 15.307C19.1738 15.8459 18.821 16.22 18.3913 16.6619Z" fill="#151515"/>
<path d="M19.8096 17.04C19.8382 18.6021 19.7483 20.0734 19.8736 21.5261C19.9969 22.9547 19.3993 23.7539 17.982 24.2465C17.982 22.2992 17.8394 20.3972 18.0648 18.5399C18.1369 17.9461 19.1842 17.4708 19.8096 17.04Z" fill="#151515"/>
<path d="M10.7671 17.387C10.8954 17.1002 11.0227 16.928 11.1499 16.7559C11.6433 17.3436 12.4978 17.8945 12.5621 18.5259C12.7521 20.3933 12.63 22.2924 12.63 24.2823C11.1841 23.5651 10.579 22.6032 10.7402 21.0878C10.866 19.9049 10.7658 18.698 10.7671 17.387Z" fill="#151515"/>
<path d="M4.15684 25.9906C3.9661 25.8127 3.83743 25.6578 3.83702 25.5025C3.8261 21.2956 3.82831 17.0887 3.82831 12.7764C4.61438 12.7764 5.33409 12.7764 6.13978 12.7764C6.13978 17.1469 6.13978 21.509 6.13978 26.0132C5.49012 26.0132 4.88441 26.0132 4.15684 25.9906Z" fill="#151515"/>
<path d="M25.724 18.0068C26.1952 18.0224 26.5417 18.0379 26.9745 18.0573C26.9745 18.912 26.9745 19.7201 26.9745 20.6066C26.1678 20.6066 25.39 20.6066 24.5 20.6066C24.5 19.8206 24.5 19.0134 24.5 18.0887C24.8411 18.0633 25.2201 18.0351 25.724 18.0068Z" fill="#151515"/>
<path d="M24.4198 13.0149C25.2443 12.7935 26.0473 12.6929 26.9629 12.5781C26.9629 13.4644 26.9629 14.1829 26.9629 14.9889C26.1517 14.9889 25.344 14.9889 24.3984 14.9889C24.3984 14.3414 24.3984 13.7386 24.4198 13.0149Z" fill="#151515"/>
<path d="M24.3877 24.4565C24.6582 24.097 24.8981 23.7175 25.2034 23.6545C25.7449 23.5428 26.3261 23.6232 26.976 23.6232C26.976 24.4425 26.976 25.161 26.976 25.9533C26.1582 25.9533 25.3818 25.9533 24.3867 25.9533C24.3867 25.5012 24.3867 25.0401 24.3877 24.4565Z" fill="#151515"/>
</svg>
