<svg width="139" height="116" viewBox="0 0 139 116" fill="none" xmlns="http://www.w3.org/2000/svg">
<path d="M16.7386 24.7927L68.9648 47.2144V115.003L16.4876 92.3366L16.7386 24.7927Z" fill="#418DF9" stroke="#151515"/>
<path d="M122.183 25.0119V93.1716L69.9648 115.054V47.257L122.183 25.0119Z" fill="#A2BDFF" stroke="#151515"/>
<path d="M69.4649 46.8851L122.944 24.4857L69.8849 0.966309L15.9863 23.9258L69.4649 46.8851Z" fill="#418DF9"/>
<path d="M68.6331 47.072L55.6956 61.8293C55.6619 61.8678 55.6164 61.8942 55.5662 61.9043C55.5159 61.9145 55.4637 61.9079 55.4177 61.8855L1.59854 35.7622L1.38121 36.21L1.59854 35.7622C1.56247 35.7447 1.5315 35.7182 1.50861 35.6853C1.48573 35.6524 1.4717 35.6141 1.46787 35.5742C1.46403 35.5343 1.47053 35.4941 1.48673 35.4574C1.50293 35.4207 1.52828 35.3888 1.56037 35.3647L1.56038 35.3647L16.0528 24.4984L68.6331 47.072Z" fill="#699CFF" stroke="#151515"/>
<path d="M83.9702 62.3369L70.3021 47.0741L122.84 25.0687L137.457 38.2838L137.457 38.2839C137.486 38.31 137.508 38.3429 137.521 38.3796C137.534 38.4163 137.537 38.4557 137.531 38.4942C137.525 38.5326 137.509 38.5689 137.486 38.5998C137.462 38.6307 137.431 38.6552 137.395 38.671L137.395 38.6711L84.2397 62.3944L84.2397 62.3944C84.1945 62.4146 84.144 62.4199 84.0956 62.4096C84.0471 62.3992 84.0032 62.3738 83.9702 62.3369C83.9702 62.3369 83.9702 62.3369 83.9702 62.3369Z" fill="#699CFF" stroke="#151515"/>
<path d="M123.14 23.9598L71.9595 1.33647L81.9772 0.710924L81.9775 0.710908C82.0141 0.708601 82.0508 0.715019 82.0845 0.729636L82.0847 0.729717L130.67 21.7815C130.67 21.7815 130.67 21.7815 130.67 21.7815C130.715 21.8011 130.753 21.8344 130.778 21.8767C130.803 21.919 130.814 21.9682 130.809 22.0172C130.805 22.0662 130.785 22.1126 130.753 22.1497L131.13 22.4782L130.753 22.1497C130.721 22.1868 130.677 22.2128 130.629 22.2239L123.14 23.9598Z" fill="#699CFF" stroke="#151515"/>
<path d="M10.3276 21.9742L10.3293 21.9735L60.1126 0.518724C60.1129 0.518609 60.1132 0.518495 60.1134 0.518381C60.1475 0.504047 60.1845 0.497964 60.2213 0.500599L67.9279 1.27241L16.9096 23.517L10.3734 22.4186C10.3252 22.4089 10.2814 22.3844 10.248 22.3483C10.2138 22.3115 10.1924 22.2647 10.1869 22.2148C10.1815 22.1649 10.1922 22.1146 10.2175 22.0713C10.2429 22.0279 10.2815 21.9939 10.3276 21.9742Z" fill="#699CFF" stroke="#151515"/>
</svg>
