<svg width="12" height="12" viewBox="0 0 12 12" fill="none" xmlns="http://www.w3.org/2000/svg">
<path d="M6.00149 12.003C4.39713 12.003 2.88784 11.3731 1.75885 10.2441C0.629859 9.11513 0 7.60584 0 6.00149C0 4.39713 0.629859 2.88784 1.75885 1.75885C2.88784 0.629859 4.39713 0 6.00149 0C7.60584 0 9.11513 0.629859 10.2441 1.75885C12.5853 4.10003 12.5853 7.90295 10.2441 10.2441C9.11513 11.3731 7.60584 12.003 6.00149 12.003ZM6.00149 0.713048C4.58727 0.713048 3.25625 1.25972 2.25798 2.25798C1.25972 3.25625 0.713048 4.58727 0.713048 6.00149C0.713048 7.4157 1.25972 8.74672 2.25798 9.74499C3.25625 10.7433 4.58727 11.2899 6.00149 11.2899C7.4157 11.2899 8.74672 10.7433 9.74499 9.74499C11.8128 7.67715 11.8128 4.32582 9.74499 2.25798C8.74672 1.25972 7.4157 0.713048 6.00149 0.713048Z" fill="#ED5702"/>
<path d="M8.91085 3.56192L3.56631 8.90633L3.0957 8.43572L8.44023 3.09131L8.91085 3.56192Z" fill="#ED5702"/>
<path d="M3.26758 3.73155L3.74294 3.26807L8.91254 8.43766L8.43717 8.91303L3.26758 3.73155Z" fill="#ED5702"/>
</svg>
