<svg width="12" height="12" viewBox="0 0 12 12" fill="none" xmlns="http://www.w3.org/2000/svg">
<mask id="path-1-inside-1_671_342" fill="white">
<path d="M12 6C12 9.31371 9.31371 12 6 12C2.68629 12 0 9.31371 0 6C0 2.68629 2.68629 0 6 0C9.31371 0 12 2.68629 12 6ZM3.71787 6C3.71787 7.26039 4.73961 8.28213 6 8.28213C7.26039 8.28213 8.28213 7.26039 8.28213 6C8.28213 4.73961 7.26039 3.71787 6 3.71787C4.73961 3.71787 3.71787 4.73961 3.71787 6Z"/>
</mask>
<path d="M12 6C12 9.31371 9.31371 12 6 12C2.68629 12 0 9.31371 0 6C0 2.68629 2.68629 0 6 0C9.31371 0 12 2.68629 12 6ZM3.71787 6C3.71787 7.26039 4.73961 8.28213 6 8.28213C7.26039 8.28213 8.28213 7.26039 8.28213 6C8.28213 4.73961 7.26039 3.71787 6 3.71787C4.73961 3.71787 3.71787 4.73961 3.71787 6Z" fill="#9923AC" stroke="#151515" stroke-width="2" mask="url(#path-1-inside-1_671_342)"/>
</svg>
