<svg width="212" height="144" viewBox="0 0 212 144" fill="none" xmlns="http://www.w3.org/2000/svg">
<g clip-path="url(#clip0_274_903)">
<mask id="path-1-inside-1_274_903" fill="white">
<path d="M0 5C0 2.23857 2.23858 0 5 0H207C209.761 0 212 2.23858 212 5V139C212 141.761 209.761 144 207 144H5C2.23858 144 0 141.761 0 139V5Z"/>
</mask>
<path d="M0 5C0 2.23857 2.23858 0 5 0H207C209.761 0 212 2.23858 212 5V139C212 141.761 209.761 144 207 144H5C2.23858 144 0 141.761 0 139V5Z" fill="white"/>
<path opacity="0.37" d="M105.999 165.999C149.629 165.999 184.999 130.629 184.999 86.9993C184.999 43.3692 149.629 8 105.999 8C62.3692 8 27 43.3692 27 86.9993C27 130.629 62.3692 165.999 105.999 165.999Z" fill="#1EC1CB"/>
<path d="M64.5426 20.0612L54.625 148.952L153.144 156.533L163.062 27.6419L64.5426 20.0612Z" fill="#CCB7A3"/>
<path opacity="0.09" d="M152.055 44.7858L120.575 48.7832C115.48 49.4306 110.305 49.0326 105.368 47.6135L74.8599 38.8576C68.7926 37.3439 64.7015 31.433 65.2037 24.9052L65.5044 20.967L162.978 27.6269L162.737 32.6253C162.238 39.1531 158.274 44.2175 152.055 44.7858Z" fill="#272525"/>
<path d="M151.002 43.8716L119.522 47.869C114.426 48.5179 109.251 48.1205 104.315 46.7011L73.815 37.9382C67.7477 36.4245 63.6565 30.5154 64.1588 23.9858L64.4612 20.0528L162.98 27.6269L162.677 31.5581C162.175 38.0877 157.229 43.3033 151.002 43.8716Z" fill="#D3BFAF"/>
<path d="M110.732 70.8692C108.668 70.7071 106.753 69.7335 105.406 68.1616C104.059 66.5897 103.39 64.5478 103.546 62.4835L104.979 43.8264C105.138 41.7614 106.111 39.8441 107.683 38.4962C109.256 37.1483 111.299 36.4802 113.364 36.639C115.429 36.7978 117.347 37.7704 118.695 39.3429C120.042 40.9154 120.71 42.9589 120.552 45.0239L119.118 63.6809C118.956 65.7451 117.983 67.6609 116.411 69.0084C114.839 70.3559 112.797 71.025 110.732 70.8692ZM113.313 37.3125C111.427 37.1686 109.561 37.779 108.124 39.0097C106.687 40.2404 105.798 41.9909 105.65 43.8768L104.217 62.5356C104.145 63.4696 104.258 64.4085 104.549 65.2988C104.84 66.1891 105.303 67.0133 105.913 67.7245C106.523 68.4356 107.266 69.0197 108.102 69.4435C108.937 69.8672 109.848 70.1222 110.782 70.194C111.716 70.2658 112.655 70.1529 113.545 69.8618C114.435 69.5707 115.259 69.1071 115.971 68.4975C117.407 67.2663 118.295 65.515 118.44 63.6288L119.874 44.9717C120.017 43.0866 119.406 41.2218 118.177 39.786C116.947 38.3503 115.198 37.4608 113.313 37.3125Z" fill="#F9DD82"/>
<path d="M118.252 47.0882C121.17 44.1703 121.17 39.4396 118.252 36.5218C115.334 33.604 110.603 33.604 107.686 36.5218C104.768 39.4396 104.768 44.1703 107.686 47.0882C110.603 50.006 115.334 50.006 118.252 47.0882Z" fill="#AA7355"/>
<path d="M116.502 43.2736C117.314 41.3213 116.39 39.0802 114.437 38.2679C112.485 37.4556 110.244 38.3798 109.432 40.3321C108.619 42.2845 109.544 44.5256 111.496 45.3379C113.448 46.1502 115.689 45.226 116.502 43.2736Z" fill="#BDB39B"/>
<path d="M114.745 41.9425C114.718 42.2938 114.588 42.6294 114.37 42.9066C114.153 43.1838 113.858 43.3903 113.523 43.4999C113.188 43.6095 112.828 43.6173 112.489 43.5223C112.149 43.4273 111.846 43.2338 111.616 42.9662C111.387 42.6987 111.242 42.3691 111.2 42.0192C111.158 41.6694 111.221 41.3149 111.38 41.0006C111.54 40.6864 111.789 40.4265 112.096 40.2538C112.403 40.0812 112.755 40.0035 113.106 40.0307C113.577 40.0671 114.014 40.2889 114.321 40.6474C114.629 41.0059 114.781 41.4717 114.745 41.9425Z" fill="#434244"/>
<path d="M116.443 70.593C119.361 67.6752 119.361 62.9445 116.443 60.0267C113.525 57.1088 108.795 57.1088 105.877 60.0267C102.959 62.9445 102.959 67.6752 105.877 70.593C108.795 73.5108 113.525 73.5108 116.443 70.593Z" fill="#AA7355"/>
<path d="M111.738 69.0947C113.829 68.7759 115.265 66.8229 114.946 64.7325C114.627 62.6422 112.674 61.206 110.584 61.5247C108.493 61.8435 107.057 63.7965 107.376 65.8869C107.695 67.9773 109.648 69.4134 111.738 69.0947Z" fill="#BDB39B"/>
<path d="M112.937 65.4485C112.91 65.7999 112.779 66.1354 112.562 66.4126C112.344 66.6899 112.049 66.8963 111.714 67.0059C111.379 67.1155 111.019 67.1233 110.68 67.0283C110.341 66.9333 110.037 66.7398 109.808 66.4723C109.579 66.2047 109.434 65.8752 109.392 65.5253C109.35 65.1754 109.412 64.8209 109.572 64.5067C109.731 64.1924 109.98 63.9325 110.288 63.7599C110.595 63.5872 110.946 63.5096 111.298 63.5367C111.531 63.5545 111.758 63.6181 111.967 63.7239C112.175 63.8296 112.361 63.9754 112.513 64.1529C112.666 64.3305 112.781 64.5363 112.854 64.7586C112.927 64.9809 112.955 65.2153 112.937 65.4485Z" fill="#434244"/>
<path d="M141.473 17.4736H48.9473V145.096H141.473V17.4736Z" fill="#FFFFF5"/>
<path d="M77.3846 42.8706H129.265C130.674 42.8706 130.674 40.6842 129.265 40.6842H77.3846C75.9734 40.6842 75.9734 42.8706 77.3846 42.8706Z" fill="#BBBCBF"/>
<path d="M60.9862 55.8324H129.264C130.673 55.8324 130.673 53.646 129.264 53.646H60.9862C59.5749 53.646 59.5749 55.8324 60.9862 55.8324Z" fill="#BBBCBF"/>
<path d="M60.9862 68.7958H129.264C130.673 68.7958 130.673 66.6077 129.264 66.6077H60.9862C59.5749 66.6077 59.5749 68.7958 60.9862 68.7958Z" fill="#BBBCBF"/>
<path d="M60.9862 81.7576H129.264C130.673 81.7576 130.673 79.5695 129.264 79.5695H60.9862C59.5749 79.5695 59.5749 81.7576 60.9862 81.7576Z" fill="#BBBCBF"/>
<path d="M60.9862 94.7193H129.264C130.673 94.7193 130.673 92.5312 129.264 92.5312H60.9862C59.5749 92.5312 59.5749 94.7193 60.9862 94.7193Z" fill="#BBBCBF"/>
<path d="M62.5078 127.254H91.69C92.4843 127.254 92.4843 126.024 91.69 126.024H62.5078C61.7135 126.024 61.7135 127.254 62.5078 127.254Z" fill="#51927E"/>
<path d="M86.0459 121.684C85.0208 122.06 83.9243 122.2 82.8376 122.094L82.6847 121.654C82.57 121.324 82.0243 121.255 81.9461 121.654C81.92 121.781 81.661 122.901 81.237 122.35C80.9884 122.026 81.1275 121.521 81.1709 121.154C81.2196 120.754 81.2126 120.247 80.9415 119.918C80.6269 119.539 79.7632 119.155 79.3634 119.654C78.7395 120.429 79.678 121.479 78.9394 122.32C78.5049 122.812 77.7228 122.494 77.3283 122.094C77.8497 121.204 77.7436 120.198 77.2796 119.299C77.2442 119.24 77.1939 119.191 77.1337 119.157C77.0736 119.123 77.0055 119.105 76.9364 119.105C76.8672 119.105 76.7992 119.123 76.739 119.157C76.6788 119.191 76.6286 119.24 76.5931 119.299C76.216 120.094 76.0074 121.163 76.3394 122.007C76.1649 122.134 75.9578 122.209 75.7424 122.223C75.527 122.237 75.3121 122.189 75.1228 122.085C75.4778 121.542 75.7127 120.929 75.8116 120.288C75.9105 119.646 75.8712 118.991 75.6963 118.366C75.6731 118.288 75.6277 118.218 75.5657 118.165C75.5036 118.112 75.4275 118.078 75.3467 118.068C75.2658 118.057 75.1835 118.07 75.1099 118.105C75.0362 118.14 74.9743 118.196 74.9316 118.265C74.3112 119.134 73.7289 120.055 73.7985 121.168C73.817 121.496 73.9129 121.815 74.0783 122.099C73.4498 122.811 72.5733 123.256 71.6277 123.344C71.6121 123.286 71.5982 123.229 71.5808 123.17C71.5148 122.939 71.4383 122.711 71.3601 122.483C71.3601 121.95 71.3601 121.415 71.3914 120.881C71.4748 120.749 71.5652 120.617 71.6677 120.476C72.1123 119.821 72.5079 119.135 72.8513 118.422C74.236 115.574 74.7896 112.393 74.4485 109.245C74.4473 109.165 74.4227 109.087 74.3777 109.021C74.3326 108.955 74.2691 108.904 74.195 108.873C74.1209 108.843 74.0396 108.835 73.9611 108.85C73.8825 108.866 73.8103 108.904 73.7533 108.96C72.9069 109.642 72.5211 110.624 72.1995 111.632C71.2973 114.534 70.766 117.539 70.618 120.575L70.5207 120.714C70.0653 121.352 70.326 122.049 70.5728 122.715C70.5728 123.062 70.5803 123.41 70.5954 123.757C70.5972 123.861 70.6389 123.959 70.7119 124.032C70.7848 124.105 70.8833 124.147 70.9864 124.148H71.0038C71.1806 124.88 71.31 125.623 71.3914 126.371C71.6155 128.516 71.4261 130.683 70.8335 132.757C70.0479 132.388 69.9402 128.238 69.9193 127.689C69.889 126.246 69.9424 124.803 70.0792 123.366C70.142 123.329 70.1916 123.273 70.2209 123.207C70.2502 123.14 70.2578 123.066 70.2426 122.994L70.1313 122.395C70.0653 122.033 69.4709 122.032 69.4049 122.395C69.092 124.133 69.0573 125.933 69.1146 127.689C69.1407 128.608 69.2207 129.524 69.3267 130.436C69.4118 131.177 69.4622 131.971 69.7542 132.661C70.0931 133.467 71.2662 134.145 71.6121 132.996C72.073 131.401 72.3036 129.747 72.2969 128.087C72.2958 126.752 72.1377 125.423 71.8259 124.126C72.8993 124.003 73.8942 123.503 74.6327 122.715C74.7924 122.832 74.968 122.925 75.1541 122.993C75.6598 123.179 76.2924 123.01 76.7669 122.682C76.8531 122.768 76.9467 122.846 77.0467 122.916C78.0043 123.561 79.5251 123.467 79.9144 122.191C80.109 121.555 80.0465 120.923 79.93 120.28C79.9878 120.247 80.0557 120.238 80.1202 120.253C80.1847 120.269 80.2409 120.308 80.2776 120.363C80.5105 120.547 80.3801 121.189 80.3506 121.444C80.3089 121.814 80.2811 122.233 80.4688 122.574C80.7156 123.026 81.0823 123.363 81.6211 123.335C81.9461 123.318 82.1842 123.081 82.3527 122.782C82.4118 122.815 82.4768 122.835 82.5439 122.841C83.7903 123.009 85.0588 122.872 86.2406 122.442C86.7203 122.264 86.5169 121.514 86.0459 121.684ZM71.911 116.162C72.1161 114.993 72.3942 113.835 72.714 112.686C72.9573 111.818 73.1971 110.907 73.715 110.175C73.863 113.32 73.0989 116.441 71.5148 119.162C71.6051 118.161 71.7372 117.161 71.911 116.162ZM75.0272 119.638C75.0215 120.236 74.8738 120.824 74.5962 121.354C74.4693 120.824 74.7161 120.195 75.0272 119.644V119.638Z" fill="#3B464C"/>
<path d="M88.0301 123.323C87.9533 123.34 87.8848 123.383 87.8356 123.445C87.7865 123.507 87.7598 123.583 87.7598 123.662C87.7598 123.74 87.7865 123.817 87.8356 123.878C87.8848 123.94 87.9533 123.983 88.0301 124.001C88.4663 124.001 88.4663 123.323 88.0301 123.323Z" fill="#3B464C"/>
</g>
<path d="M-0.3 5C-0.3 2.07289 2.07289 -0.3 5 -0.3H206.7C209.627 -0.3 212 2.07289 212 5C212 2.40426 209.761 0.3 207 0.3H5C2.40426 0.3 0.3 2.40426 0.3 5H-0.3ZM212 139C212 141.927 209.627 144.3 206.7 144.3H5C2.07289 144.3 -0.3 141.927 -0.3 139H0.3C0.3 141.596 2.40426 143.7 5 143.7H207C209.761 143.7 212 141.596 212 139ZM5 144.3C2.07289 144.3 -0.3 141.927 -0.3 139V5C-0.3 2.07289 2.07289 -0.3 5 -0.3V0.3C2.40426 0.3 0.3 2.40426 0.3 5V139C0.3 141.596 2.40426 143.7 5 143.7V144.3ZM212 0V144V0Z" fill="black" mask="url(#path-1-inside-1_274_903)"/>
<defs>
<clipPath id="clip0_274_903">
<path d="M0 5C0 2.23857 2.23858 0 5 0H207C209.761 0 212 2.23858 212 5V139C212 141.761 209.761 144 207 144H5C2.23858 144 0 141.761 0 139V5Z" fill="white"/>
</clipPath>
</defs>
</svg>
