<svg width="15" height="15" viewBox="0 0 15 15" fill="none" xmlns="http://www.w3.org/2000/svg">
<path d="M12.8125 6.36875H11.0063C9.525 6.36875 8.31875 5.1625 8.31875 3.68125V1.875C8.31875 1.53125 8.0375 1.25 7.69375 1.25H5.04375C3.11875 1.25 1.5625 2.5 1.5625 4.73125V10.2688C1.5625 12.5 3.11875 13.75 5.04375 13.75H9.95625C11.8813 13.75 13.4375 12.5 13.4375 10.2688V6.99375C13.4375 6.65 13.1562 6.36875 12.8125 6.36875ZM7.20625 8.45625C7.1125 8.55 6.99375 8.59375 6.875 8.59375C6.75625 8.59375 6.6375 8.55 6.54375 8.45625L6.09375 8.00625V10.625C6.09375 10.8813 5.88125 11.0938 5.625 11.0938C5.36875 11.0938 5.15625 10.8813 5.15625 10.625V8.00625L4.70625 8.45625C4.525 8.6375 4.225 8.6375 4.04375 8.45625C3.8625 8.275 3.8625 7.975 4.04375 7.79375L5.29375 6.54375C5.3375 6.50625 5.38125 6.475 5.43125 6.45C5.44375 6.44375 5.4625 6.4375 5.475 6.43125C5.5125 6.41875 5.55 6.4125 5.59375 6.40625C5.6125 6.40625 5.625 6.40625 5.64375 6.40625C5.69375 6.40625 5.74375 6.41875 5.79375 6.4375C5.8 6.4375 5.8 6.4375 5.80625 6.4375C5.85625 6.45625 5.90625 6.49375 5.94375 6.53125C5.95 6.5375 5.95625 6.5375 5.95625 6.54375L7.20625 7.79375C7.3875 7.975 7.3875 8.275 7.20625 8.45625Z" fill="#151515"/>
<path d="M10.8906 5.50631C11.4844 5.51256 12.3094 5.51256 13.0156 5.51256C13.3719 5.51256 13.5594 5.09381 13.3094 4.84381C12.4094 3.93756 10.7969 2.30631 9.87187 1.38131C9.61562 1.12506 9.17188 1.30006 9.17188 1.65631V3.83756C9.17188 4.75006 9.94687 5.50631 10.8906 5.50631Z" fill="#151515"/>
</svg>
