<svg width="14" height="14" viewBox="0 0 14 14" fill="none" xmlns="http://www.w3.org/2000/svg">
<path d="M6.41602 1.16675H5.24935C2.33268 1.16675 1.16602 2.33341 1.16602 5.25008V8.75008C1.16602 11.6667 2.33268 12.8334 5.24935 12.8334H8.74935C11.666 12.8334 12.8327 11.6667 12.8327 8.75008V7.58342" stroke="#292D32" stroke-linecap="round" stroke-linejoin="round"/>
<path d="M9.35611 1.76157L4.75944 6.35824C4.58444 6.53324 4.40944 6.8774 4.37444 7.12824L4.12361 8.88407C4.03027 9.5199 4.47944 9.96324 5.11527 9.87574L6.87111 9.6249C7.11611 9.5899 7.46027 9.4149 7.64111 9.2399L12.2378 4.64324C13.0311 3.8499 13.4044 2.92824 12.2378 1.76157C11.0711 0.594903 10.1494 0.968237 9.35611 1.76157Z" stroke="#292D32" stroke-miterlimit="10" stroke-linecap="round" stroke-linejoin="round"/>
<path d="M8.69922 2.42065C9.09005 3.81482 10.1809 4.90565 11.5809 5.30232" stroke="#292D32" stroke-miterlimit="10" stroke-linecap="round" stroke-linejoin="round"/>
</svg>
