<svg width="17" height="18" viewBox="0 0 17 18" fill="none" xmlns="http://www.w3.org/2000/svg">
<path d="M14.875 16.0835H2.125C1.83458 16.0835 1.59375 15.8427 1.59375 15.5522C1.59375 15.2618 1.83458 15.021 2.125 15.021H14.875C15.1654 15.021 15.4062 15.2618 15.4062 15.5522C15.4062 15.8427 15.1654 16.0835 14.875 16.0835Z" fill="#292D32"/>
<path d="M13.4727 2.96485C12.0985 1.59068 10.7527 1.55526 9.34307 2.96485L8.48599 3.82193C8.41515 3.89276 8.38682 4.0061 8.41515 4.10526C8.95349 5.98235 10.4552 7.48401 12.3322 8.02235C12.3606 8.02943 12.3889 8.03651 12.4172 8.03651C12.4952 8.03651 12.566 8.00818 12.6227 7.95151L13.4727 7.09443C14.1739 6.40026 14.5139 5.72735 14.5139 5.04735C14.521 4.3461 14.181 3.6661 13.4727 2.96485Z" fill="#292D32"/>
<path d="M11.0569 8.66731C10.8515 8.56814 10.6532 8.46898 10.4619 8.35564C10.3061 8.26356 10.1573 8.16439 10.0086 8.05814C9.88815 7.98023 9.74649 7.86689 9.6119 7.75356C9.59774 7.74648 9.54815 7.70398 9.49149 7.64731C9.25774 7.44898 8.99565 7.19398 8.7619 6.91064C8.74065 6.89648 8.70524 6.84689 8.65565 6.78314C8.58482 6.69814 8.4644 6.55648 8.35815 6.39356C8.27315 6.28731 8.17399 6.13148 8.0819 5.97564C7.96857 5.78439 7.8694 5.59314 7.77024 5.39481C7.64022 5.1162 7.27454 5.03343 7.05713 5.25084L3.07399 9.23398C2.9819 9.32606 2.8969 9.50314 2.87565 9.62356L2.49315 12.3365C2.42232 12.8181 2.5569 13.2715 2.8544 13.5761C3.1094 13.824 3.46357 13.9586 3.84607 13.9586C3.93107 13.9586 4.01607 13.9515 4.10107 13.9373L6.82107 13.5548C6.94857 13.5336 7.12565 13.4486 7.21065 13.3565L11.2004 9.36676C11.4134 9.1537 11.3334 8.78712 11.0569 8.66731Z" fill="#292D32"/>
</svg>
