<svg width="101" height="231" viewBox="0 0 101 231" fill="none" xmlns="http://www.w3.org/2000/svg">
<g style="mix-blend-mode:multiply" opacity="0.19">
<path d="M46.5451 231C72.2512 231 93.0902 227.408 93.0902 222.976C93.0902 218.545 72.2512 214.952 46.5451 214.952C20.8389 214.952 0 218.545 0 222.976C0 227.408 20.8389 231 46.5451 231Z" fill="#757575"/>
</g>
<path d="M27.9451 209.612C23.3458 214.456 18.1357 218.824 12.4152 222.633C12.2252 222.762 12.0793 222.935 11.9932 223.132C11.9072 223.329 11.8845 223.544 11.9274 223.751C11.9703 223.959 12.0772 224.153 12.2366 224.311C12.3959 224.469 12.6016 224.585 12.8311 224.648C15.2851 225.32 17.8878 225.459 20.4164 225.053C22.9449 224.647 25.324 223.709 27.35 222.318C28.8474 221.266 30.1207 219.977 31.6308 218.942C32.2387 218.52 33.0642 217.884 33.8641 217.766C34.0688 217.732 34.28 217.766 34.5039 217.766C35.1393 217.696 35.7612 217.553 36.3532 217.338C37.5546 216.95 38.6619 216.366 39.6166 215.616C38.6828 212.523 37.2453 209.564 35.3486 206.833L27.9451 209.612Z" fill="#33150E"/>
<path d="M70.3665 209.612C74.9658 214.456 80.1759 218.824 85.8964 222.633C86.0978 222.757 86.2544 222.929 86.3476 223.128C86.4409 223.328 86.4668 223.547 86.4222 223.76C86.3777 223.972 86.2646 224.169 86.0965 224.326C85.9284 224.484 85.7123 224.595 85.4741 224.648C83.0193 225.322 80.4151 225.462 77.8852 225.056C75.3552 224.65 72.9749 223.711 70.9487 222.318C69.4514 221.266 68.178 219.977 66.6679 218.942C66.028 218.52 65.2346 217.884 64.4347 217.766C64.23 217.732 64.0188 217.766 63.7948 217.766C63.1595 217.696 62.5376 217.553 61.9456 217.338C60.7427 216.949 59.6336 216.365 58.6758 215.616C59.6115 212.522 61.0512 209.564 62.9502 206.833L70.3665 209.612Z" fill="#33150E"/>
<path d="M34.793 92.8071C29.5779 121.96 26.0586 210.737 26.0586 210.737C26.0586 210.737 31.7599 215.239 38.7155 210.737C38.7155 210.737 60.6699 118.309 57.4065 93.8031C57.4065 93.8031 37.4101 78.1657 34.793 92.8071Z" fill="#404178"/>
<path d="M47.6088 91.7041C44.8573 93.9549 47.7304 110.616 53.2462 112.524L59.7346 210.737C59.7346 210.737 65.4359 215.239 72.3915 210.737C72.3915 210.737 79.7182 118.308 76.4548 93.8029C76.4548 93.8029 53.8861 86.6004 47.6088 91.7041Z" fill="#4C4D8F"/>
<path d="M79.7026 39.1143C86.9461 49.5861 90.0175 55.6407 96.3076 65.5611C97.8369 67.9694 102.566 76.0273 100.48 79.2403C96.7747 84.9517 89.6016 92.5706 83.1516 97.1678C80.8876 94.1251 77.4964 91.8647 73.5533 90.77C78.1541 85.9589 81.8718 81.8399 86.4534 77.0289C82.934 67.9976 78.0965 60.8682 72.1328 53.9076L79.7026 39.1143Z" fill="#4C4D8F"/>
<path d="M35.5291 34.9395C31.5427 35.8285 28.4904 38.7489 26.7308 42.0238C24.9711 45.2987 24.3952 48.9394 23.8129 52.5182L20.8566 70.8396L20.1464 75.2343C19.9736 76.309 19.8904 77.4232 19.6153 78.4754C19.5128 78.7963 19.3645 79.1045 19.1737 79.3926C18.6298 80.3492 18.5339 81.5365 18.2651 82.5775C17.9644 83.7873 17.67 84.9971 17.3693 86.2125C16.1833 91.063 14.9932 95.9172 13.7987 100.775C13.6067 101.557 13.1077 103.358 12.7109 104.838C14.8226 106.869 18.2267 107.015 21.4837 106.712C26.3446 98.9998 29.2132 90.4408 29.8854 81.6434C36.425 69.6298 37.564 55.8493 39.0357 42.564C39.3492 39.6999 37.5576 37.1902 35.5291 34.9395Z" fill="#4C4D8F"/>
<path d="M53.0475 71.0641C52.8363 72.3246 53.4442 74.0689 53.585 75.3575C53.7513 76.95 53.9049 78.5424 54.0905 80.1348C54.3882 83.0089 54.8797 85.865 55.5622 88.6878C57.7826 97.4828 66.4402 101.185 78.0093 97.691C75.245 78.3848 80.0505 65.6735 80.9079 46.2323C81.0039 44.0546 81.0423 41.8038 80.0697 39.8062C78.4444 36.4301 74.3683 34.5619 70.4331 33.3859C58.2282 29.8096 44.9205 30.544 33.3199 35.4341C32.3352 35.7644 31.4905 36.3539 30.9011 37.1222C30.5115 37.8955 30.3699 38.7478 30.4916 39.5868C30.9843 50.565 32.9103 61.4532 33.7742 72.409C34.638 83.3647 34.4141 94.5737 30.6644 105.045C32.0095 105.045 33.3534 104.976 34.6892 104.837C36.0814 104.569 37.4148 104.103 38.6373 103.459C41.1008 102.164 43.1165 100.082 44.7546 98.0174C48.3256 93.469 50.4849 88.1798 51.019 82.6726" fill="#4C4D8F"/>
<g opacity="0.44">
<path d="M31.248 210.18V202.657H39.8032V206.067L40.0272 205.11V202.657H40.5839L40.6287 202.466H40.0272V194.942H42.3116L42.3564 194.745H40.0272V187.222H43.9945C43.9945 187.155 44.0265 187.093 44.0393 187.031H40.0272V179.502H45.639L45.6774 179.311H40.0272V171.787H47.2323L47.2707 171.59H40.0272V164.067H48.608V165.052L48.8384 163.876V156.347H50.3037L50.3421 156.156H48.8V148.632H51.6859L51.7243 148.435H48.8V140.912H53.036C53.036 140.85 53.036 140.783 53.068 140.721H48.8V133.198H54.2966L54.3286 133.001H48.8V125.477H57.3552V133.001H54.5973V133.198H57.3425V140.726H55.0965V140.918H57.3297V148.435H55.6468V148.632H57.3744V156.156H56.1459V156.347H57.3616V163.876H56.645V164.067H57.3488V171.59H57.1377V171.787H57.3361V174.792L57.56 178.123V171.787H66.1152V179.311H57.656V179.502H66.1216V187.031H58.1679V187.222H66.1216V194.745H58.6734V194.942H66.1216V202.466H59.1853V202.657H66.1216V210.18H59.6972V210.377H66.0961V212.752H66.3136V210.388H72.3861V210.192H66.3008V202.657H72.9556V202.466H66.352V194.942H73.5635V194.745H66.352V187.222H74.0818V187.031H66.3392V179.502H74.5681C74.5681 179.44 74.5681 179.373 74.5681 179.311H66.352V171.787H74.9136V174.213C74.984 173.008 75.0608 171.787 75.1312 170.549V164.067H75.4831V163.876H75.0992V156.347H75.8863C75.8863 156.285 75.8863 156.223 75.8863 156.156H75.0864V148.632H76.251C76.251 148.565 76.251 148.503 76.251 148.435H75.08V140.912H76.5773C76.5773 140.85 76.5773 140.783 76.5773 140.721H75.0736V133.198H76.8525V133.001H75.0672V125.477H77.07V125.286H75.0672V117.757H77.2044V117.566H75.0672V110.042H77.2172V109.846H75.0672V102.322H77.0444C77.0444 102.255 77.0444 102.193 77.0444 102.131H75.08V94.5852H77.582C77.582 94.5233 77.582 94.4614 77.582 94.3938H75.1056V86.8874H77.1468V86.7074H75.1056V79.1672H77.4028C77.4028 79.1053 77.4028 79.0378 77.4028 78.9759H75.1184V71.4526H78.1578V71.2557H75.0992V63.7324H79.1496V63.5411H75.0736V56.0122H83.6288V63.5411H79.4248L79.5528 63.7324H83.6288V70.7887C83.7056 70.935 83.776 71.0869 83.8528 71.2388V63.7324H92.408V71.2557H83.9168L84.0128 71.4526H92.4656V78.9759H84.5759C84.5183 79.0378 84.4607 79.1053 84.3967 79.1672H92.4656V86.7074H83.9104V79.6849L83.6864 79.9212V86.6736H77.4028C77.3388 86.7355 77.2812 86.7974 77.2236 86.8649H83.712V94.3882H80.6022L80.8261 94.5795H83.7056V96.7234L83.9296 96.5602V94.5852H86.4443L86.6747 94.3938H83.9296V86.8874H92.4848V88.9863C92.5552 88.9132 92.632 88.84 92.7024 88.7612V86.8874H94.4557L94.6284 86.6961H92.7088V79.1672H100.503C100.541 79.111 100.56 79.0378 100.599 78.9759H92.6832V71.4526H99.4851C99.4851 71.3851 99.4339 71.3232 99.402 71.2557H92.6832V63.7324H95.1851C95.1403 63.6705 95.1019 63.603 95.0635 63.5411H92.6832V59.6022L92.4656 59.2364V63.5186H83.9104V56.0122H90.5268L90.4116 55.8209H83.9104V48.2976H85.7789L85.6509 48.1006H83.9104V45.4841L83.6864 45.1577V48.1006H75.1312V40.5661H80.4038L80.327 40.3748H75.1312V35.1923L74.9136 35.0798V40.3748H66.352V32.8572H68.5788L67.8045 32.6883H66.3456V32.362L66.128 32.3113V32.6883H57.5664V31.231H57.3425V32.6883H48.8V31.4785H48.5825V32.6883H41.7357L40.9678 32.8797H48.608V40.4086H40.0272V33.0935L39.8032 33.161V40.3861H31.248V36.6891C31.1698 36.7736 31.0972 36.8619 31.0305 36.9536V40.3861H27.7223L27.5879 40.5774H31.0305V48.1006H24.6316C24.6316 48.1682 24.6316 48.2301 24.5869 48.2976H31.0497V55.8209H23.2751V56.0122H31.0561V63.5411H22.4688V60.8233C22.3985 61.2734 22.3217 61.7292 22.2513 62.185V63.5411H22.0337L22.0017 63.7324H22.2513V71.2557H20.7859V71.4526H22.2833V78.9759H19.4358C19.3974 79.0378 19.359 79.1053 19.327 79.1672H22.2833V86.7074H17.2538C17.2538 86.7693 17.2538 86.8312 17.209 86.8987H22.2577V94.422H15.3341C15.3341 94.4895 15.3341 94.5514 15.2893 94.6133H22.2321V102.142H13.696V101.169C13.632 101.411 13.5553 101.686 13.4721 102.002V102.131H13.4145C13.4145 102.193 13.4145 102.26 13.3633 102.322H13.4465V105.434L13.6705 105.575V102.322H22.2257V105.44C22.3025 105.316 22.3728 105.192 22.4432 105.068V102.322H23.9533C23.9917 102.26 24.0173 102.193 24.0557 102.131H22.4432V94.5852H27.2168C27.2419 94.5224 27.2632 94.4586 27.2807 94.3938H22.4432V86.8874H29.2196C29.2196 86.8199 29.2196 86.758 29.2196 86.6961H22.4368V79.1672H30.9985V79.3923C31.0752 79.2347 31.1392 79.0716 31.216 78.914V71.4301H39.7713V78.9534H34.1339C34.1339 79.0153 34.1339 79.0828 34.1339 79.1447H39.7649V86.7074H34.0699C34.0699 86.7693 34.0699 86.8312 34.0699 86.8987H39.7777V94.422H33.334C33.334 94.4895 33.334 94.5514 33.334 94.6133H39.8352V102.142H31.6256L31.568 102.334H39.8032V109.857H32.5214V110.054H39.8225V117.577H31.7599V117.768H39.8225V125.297H31.248V123.283C31.1712 124.144 31.1009 125.01 31.0305 125.882V132.995H30.461C30.461 133.062 30.461 133.124 30.461 133.192H31.0432V140.726H29.9043C29.9043 140.788 29.9043 140.856 29.9043 140.918H31.0561V148.435H29.386C29.386 148.503 29.386 148.565 29.386 148.632H31.0689V156.156H28.9061V156.347H31.0816V163.876H28.4517C28.4517 163.938 28.4517 164.005 28.4517 164.067H31.0945V171.59H28.023C28.023 171.658 28.023 171.72 28.023 171.787H31.1073V179.311H27.6135C27.6135 179.378 27.6135 179.44 27.6135 179.502H31.1136V187.031H27.2232C27.2232 187.093 27.2232 187.16 27.2232 187.222H31.12V194.745H26.8584C26.8584 194.813 26.8584 194.875 26.8584 194.942H31.1328V202.466H26.5129C26.5129 202.533 26.5129 202.595 26.5129 202.657H31.1392V210.18H26.1866C26.1866 210.259 26.1866 210.315 26.1866 210.377H31.1457V212.662H31.3632V210.355H38.9202L38.965 210.158L31.248 210.18ZM48.608 163.876H40.0272V156.347H48.608V163.876ZM48.608 156.156H40.0272V148.632H48.608V156.156ZM48.608 148.435H40.0272V140.912H48.608V148.435ZM48.608 136.788V140.726H40.0272V133.198H48.608V136.788ZM48.608 132.989H40.0272V125.477H48.608V132.989ZM48.8256 125.275V117.757H57.3809V125.286L48.8256 125.275ZM48.8256 90.4775V86.8762H50.3101L50.3677 86.6849H48.8V79.1672H51.6539V78.9759H48.8V71.4526H52.9785L53.0168 71.2557H48.8V63.7324H57.3552V71.2557H53.0296C53.0296 71.3232 53.0296 71.3851 53.0296 71.4526H57.368V78.9759H53.9767C53.9767 79.0378 53.9767 79.1053 53.9767 79.1672H57.3425V86.7074H55.0965C55.0965 86.7693 55.1285 86.8312 55.1413 86.8987H57.3425V94.422H48.8V90.4831L48.8256 90.4775ZM48.8256 44.1674V40.5661H57.3809V48.0894H48.8V44.1505L48.8256 44.1674ZM66.16 44.4881V48.0894H57.5664V40.5661H66.1216V44.505L66.16 44.4881ZM66.16 55.8096H57.5664V48.2976H66.1216L66.16 55.8096ZM66.3776 48.2863H74.9392V55.8096H66.352L66.3776 48.2863ZM66.16 90.7982V94.3995H57.5664V86.8874H66.1216V90.8263L66.16 90.7982ZM57.5664 117.566V110.042H66.1216V117.566H57.5664ZM66.1216 117.757V125.286H57.5664V117.757H66.1216ZM57.5664 109.846V102.322H66.1216V109.846H57.5664ZM57.5664 102.131V94.5852H66.1216V102.114L57.5664 102.131ZM57.5664 86.7074V79.1672H66.1216V86.7074H57.5664ZM57.5664 78.9872V71.4526H66.1216V78.9759L57.5664 78.9872ZM57.5664 71.2669V63.7324H66.1216V71.2557L57.5664 71.2669ZM57.5664 63.5523V56.0122H66.1216V63.5411L57.5664 63.5523ZM57.3425 63.5523H48.8V56.0122H57.3552L57.3425 63.5523ZM57.3425 48.3088V55.8321H48.8V48.2976L57.3425 48.3088ZM48.608 55.8209H40.0272V48.2976H48.608V55.8209ZM44.1289 56.0122H48.608V63.5411H40.0272V56.0122H44.1289ZM44.1289 63.7324H48.608V71.2557H40.0272V63.7324H44.1289ZM57.3552 94.5852V102.114H48.8V94.5852H57.3552ZM57.3552 102.305V109.829H48.8V102.322L57.3552 102.305ZM57.3552 110.026V117.549H48.8V110.042L57.3552 110.026ZM57.5664 125.477H66.1216V133.001H57.5664V125.477ZM57.5664 137.12V133.181H66.1216V140.726H57.5664V137.12ZM57.5664 140.912H66.1216V148.435H57.5664V140.912ZM57.5664 148.632H66.1216V156.156H57.5664V148.632ZM57.5664 156.347H66.1216V163.876H57.5664V156.347ZM57.5664 171.59V164.067H66.1216V171.59H57.5664ZM74.9008 171.59H66.352V164.067H74.9136L74.9008 171.59ZM74.9008 163.876H66.352V156.347H74.9136L74.9008 163.876ZM74.9008 156.156H66.352V148.632H74.9136L74.9008 156.156ZM74.9008 148.435H66.352V140.912H74.9136L74.9008 148.435ZM74.9008 136.799V140.738H66.352V133.198H74.9136L74.9008 136.799ZM74.9008 133.001H66.352V125.477H74.9136L74.9008 133.001ZM74.9008 125.286H66.352V117.757H74.9136L74.9008 125.286ZM74.9008 117.566H66.352V110.042H74.9136L74.9008 117.566ZM74.9008 109.846H66.352V102.322H74.9136L74.9008 109.846ZM74.9008 102.131H66.352V94.5852H74.9136L74.9008 102.131ZM74.9008 90.4887V94.4276H66.352V86.8874H74.9136L74.9008 90.4887ZM74.9008 86.6961H66.352V79.1672H74.9136L74.9008 86.6961ZM74.9008 78.9759H66.352V71.4526H74.9136L74.9008 78.9759ZM74.9008 71.2557H66.352V63.7324H74.9136L74.9008 71.2557ZM74.9008 63.5411H66.352V56.0122H74.9136L74.9008 63.5411ZM83.6736 48.2976V55.8209H75.1312V48.2976H83.6736ZM74.9136 40.5661V48.0894H66.352V40.5661H74.9136ZM66.1344 32.8572V40.3861H57.5664V32.8572H66.1344ZM48.8 32.8572H57.3552V40.3861H48.8V32.8572ZM44.1289 40.5661H48.608V48.0894H40.0272V40.5661H44.1289ZM31.2544 44.1674V40.5661H39.8097V48.0894H31.248V44.1505L31.2544 44.1674ZM31.2544 48.2863H39.8097V55.8096H31.248L31.2544 48.2863ZM31.2544 56.0009H39.8097V63.5298H31.248L31.2544 56.0009ZM22.4752 63.7212H31.0368V71.2444H22.4688L22.4752 63.7212ZM31.0368 78.9647H22.4688V71.4526H31.0305L31.0368 78.9647ZM31.2544 71.2444V63.7324H39.8097V71.2557L31.2544 71.2444ZM40.0336 71.4414H48.608V78.9647H40.0272L40.0336 71.4414ZM44.1289 79.1672H48.608V86.7074H40.0272V79.1672H44.1289ZM40.0336 90.8094V86.8706H48.608V94.3938H40.0272L40.0336 90.8094ZM40.0336 94.602H48.608V102.131H40.0272L40.0336 94.602ZM40.0336 102.322H48.608V109.846H40.0272L40.0336 102.322ZM40.0336 110.042H48.608V117.566H40.0272L40.0336 110.042ZM40.0336 117.757H48.608V125.286H40.0272L40.0336 117.757ZM31.248 125.477H39.8032V133.001H31.248V125.477ZM31.248 137.12V133.181H39.8032V140.726H31.248V137.12ZM31.248 140.912H39.8032V148.435H31.248V140.912ZM31.248 148.632H39.8032V156.156H31.248V148.632ZM31.248 156.347H39.8032V163.876H31.248V156.347ZM31.248 164.067H39.8032V171.59H31.248V164.067ZM31.248 171.787H39.8032V179.311H31.248V171.787ZM31.248 183.43V179.491H39.8032V187.02H31.248V183.43ZM31.248 187.222H39.8032V194.745H31.248V187.222ZM31.248 194.942H39.8032V202.466H31.248V194.942Z" fill="#313278"/>
<path d="M31.2488 103.369C31.1784 103.589 31.1016 103.808 31.0312 104.027V105.046H31.2488V103.369Z" fill="#313278"/>
</g>
<path d="M15.2389 110.38C14.5124 112.344 14.0968 114.388 14.0039 116.452C14.0444 117.6 14.4405 118.717 15.1493 119.681C15.2 119.761 15.2771 119.826 15.3704 119.866C15.4636 119.906 15.5687 119.921 15.6715 119.907C15.7742 119.894 15.8699 119.853 15.9458 119.791C16.0217 119.728 16.0742 119.647 16.0963 119.558C16.3363 118.566 16.1613 117.531 15.6036 116.643C16.6847 114.543 17.1067 112.227 16.8258 109.936" fill="#5C302A"/>
<path d="M14.5006 111.466C13.7741 113.43 13.3585 115.473 13.2656 117.538C13.3062 118.686 13.7022 119.802 14.411 120.767C14.4617 120.847 14.5388 120.912 14.6321 120.952C14.7254 120.992 14.8303 121.006 14.9331 120.993C15.0359 120.98 15.1316 120.939 15.2075 120.877C15.2834 120.814 15.3359 120.733 15.3581 120.644C15.6007 119.654 15.4279 118.621 14.8717 117.734C15.9476 115.631 16.3672 113.314 16.0875 111.021" fill="#6B3831"/>
<path d="M13.4225 112.361C12.6928 114.325 12.2772 116.368 12.1875 118.432C12.228 119.581 12.624 120.697 13.3329 121.662C13.3822 121.743 13.4586 121.808 13.5517 121.849C13.6447 121.89 13.7498 121.904 13.8527 121.891C13.9555 121.877 14.0511 121.836 14.1264 121.773C14.2018 121.71 14.2531 121.628 14.2735 121.538C14.5189 120.547 14.3461 119.511 13.7872 118.624C14.8658 116.521 15.2877 114.204 15.0094 111.911" fill="#80433A"/>
<path d="M19.1796 108.09C17.2761 107.726 15.4302 107.159 13.683 106.402C12.4623 108.887 11.6231 111.504 11.1875 114.184C12.0833 115.309 13.5807 114.561 15.1804 114.184C18.5717 113.391 19.4996 111.05 19.2116 108.293C19.1796 108.264 19.1796 108.191 19.1796 108.09Z" fill="#8F4B41"/>
<path d="M11.9733 111.714C11.2436 113.678 10.828 115.721 10.7383 117.785C10.7753 118.939 11.1715 120.062 11.8837 121.032C11.933 121.113 12.0094 121.178 12.1024 121.219C12.1955 121.26 12.3006 121.274 12.4034 121.261C12.5063 121.247 12.6019 121.206 12.6772 121.143C12.7525 121.08 12.8039 120.998 12.8243 120.908C13.0699 119.919 12.897 118.885 12.338 117.999C13.413 115.896 13.8347 113.579 13.5601 111.286" fill="#8F4B41"/>
<path d="M18.1228 111.55C17.8669 112.794 17.6173 114.037 17.3614 115.281C17.1374 116.406 15.8896 117.172 15.141 118.094C14.938 117.617 14.8513 117.107 14.8866 116.598C14.9218 116.089 15.0783 115.593 15.3457 115.14C15.0065 114.103 15.0065 113.004 15.3457 111.967" fill="#8F4B41"/>
<path d="M12.7115 104.821C12.5003 105.586 12.3211 106.267 12.2188 106.672C14.8359 108.36 17.2226 108.45 20.2109 108.63C20.6524 107.994 21.0747 107.347 21.4906 106.695C18.2272 106.998 14.8231 106.852 12.7115 104.821Z" fill="#FEFFFD"/>
<path d="M47.3633 94.3095C49.0206 94.4727 54.5428 94.5233 55.7202 94.5852C56.5008 94.6246 57.2879 94.6528 58.0685 94.6753C54.0564 87.7597 54.0181 78.1713 53.0774 70.71C51.6825 78.976 50.7099 86.8875 47.3633 94.3095Z" fill="white"/>
<path d="M65.7151 31.9118C59.0412 30.6513 50.9979 30.9664 44.3047 32.12C44.7142 43.132 50.198 52.4671 52.3096 62.9952C57.5182 53.3224 58.6124 40.8418 65.7151 31.9118Z" fill="white"/>
<path d="M61.6673 32.7386C61.5649 32.3391 60.8546 32.5079 60.9634 32.9131C61.2475 34.0137 61.2101 35.1597 60.8546 36.2442C60.5432 36.9962 60.1623 37.7246 59.7156 38.4219C59.7156 37.9717 59.6836 37.5272 59.6324 37.077C59.64 36.7741 59.5242 36.4788 59.3061 36.2442C59.1776 36.1394 59.0173 36.0698 58.8446 36.0438C58.6719 36.0178 58.4943 36.0366 58.3335 36.0979C57.9882 36.2378 57.6723 36.428 57.3993 36.6606L56.401 37.4034L54.3982 38.8777C54.0399 39.1478 54.5582 39.5979 54.9165 39.3334L56.593 38.0843C57.1433 37.6735 57.6808 37.2346 58.2567 36.8519C58.3655 36.7732 58.6598 36.5706 58.8006 36.6888C58.9414 36.8069 58.9222 37.2177 58.935 37.3753C58.9915 38.0211 59.0064 38.6692 58.9798 39.3166C58.9791 39.3731 58.9961 39.4288 59.0289 39.4775C59.0617 39.5261 59.109 39.566 59.1657 39.5927C59.2224 39.6194 59.2864 39.6319 59.3506 39.6288C59.4149 39.6258 59.4769 39.6073 59.5301 39.5754C59.5768 39.5943 59.6275 39.6043 59.6789 39.6048C59.7303 39.6053 59.7812 39.5962 59.8284 39.5781C59.8755 39.56 59.9178 39.5334 59.9524 39.5C59.987 39.4665 60.0131 39.427 60.0292 39.3841C60.2839 38.815 60.5877 38.2638 60.9378 37.7354C61.2324 37.2383 61.4621 36.7136 61.6225 36.1711C61.9468 35.0462 61.9621 33.8697 61.6673 32.7386Z" fill="#C7C7C7"/>
<path d="M50.523 38.3149C50.1957 37.8616 49.7587 37.4773 49.2432 37.1895C48.7514 36.9013 48.1867 36.7236 47.5987 36.6718C47.4337 36.6558 47.2674 36.6894 47.1269 36.767C46.9863 36.8447 46.8797 36.9618 46.8244 37.0994C46.7838 37.2436 46.756 37.3904 46.7413 37.5383L46.6645 38.0166L46.5301 38.8776C46.0054 37.1895 46.3574 35.3551 46.6965 33.667C46.7733 33.2618 46.0566 33.1043 45.9862 33.4925C45.5575 35.6533 45.1608 37.9266 46.2166 40.003C46.2312 40.0381 46.255 40.0696 46.2861 40.0951C46.3173 40.1205 46.3548 40.1391 46.3957 40.1493C46.4147 40.1902 46.4443 40.2268 46.482 40.2561C46.5197 40.2854 46.5647 40.3066 46.6133 40.3181C46.7074 40.3391 46.8071 40.3275 46.8917 40.2856C46.9763 40.2437 47.0393 40.1747 47.0676 40.093C47.1508 39.5584 47.234 39.0182 47.3236 38.4837L47.458 37.6509C47.458 37.5383 47.4579 37.4258 47.5091 37.3133H47.6115C48.0705 37.3768 48.509 37.5249 48.8983 37.7479C49.2876 37.971 49.6188 38.2639 49.8703 38.6075C50.1518 39.0014 50.7853 38.6806 50.523 38.3149Z" fill="#C7C7C7"/>
<path d="M52.7462 44.5335C52.7206 42.8829 52.6929 41.2304 52.6631 39.5761C52.6631 39.491 52.6246 39.4095 52.5562 39.3493C52.4878 39.2892 52.3951 39.2554 52.2983 39.2554C52.2016 39.2554 52.1088 39.2892 52.0404 39.3493C51.972 39.4095 51.9336 39.491 51.9336 39.5761C52.0274 45.3869 52.1213 51.2015 52.2151 57.0198C52.2471 58.6741 52.2855 61.3525 52.3111 63.0069C52.3111 63.4176 53.0278 61.8815 53.0214 61.4482C52.9254 55.6299 52.8422 50.3462 52.7462 44.5335Z" fill="#C7C7C7"/>
<path d="M53.5435 94.3035C51.7199 92.002 52.187 88.9804 52.3917 86.3413C52.6349 83.1227 52.8823 79.9003 53.134 76.6741C53.2748 74.8341 53.0828 73.5962 53.2236 71.7562C53.2236 71.3454 53.1084 70.2988 53.0764 70.7095C52.8205 74.0407 52.315 77.8164 52.059 81.1476L51.6751 86.105C51.5174 87.5373 51.4555 88.9765 51.4895 90.4152C51.5004 91.9099 51.993 93.3713 52.91 94.6298C53.1788 94.9675 53.8123 94.6467 53.5435 94.3035Z" fill="#C7C7C7"/>
<path d="M64.9102 100.572C67.1565 97.7509 70.1183 95.4277 73.5614 93.7861C76.1209 93.9718 78.4629 95.2942 79.3203 97.4043C78.5845 98.7941 77.8614 100.218 77.1191 101.596C75.1472 102.33 72.9988 102.62 70.8675 102.441C68.7362 102.262 66.6889 101.62 64.9102 100.572Z" fill="#8F4B41"/>
<path d="M79.0052 99.087C77.0078 96.9089 74.5476 95.0933 71.7617 93.7413C72.7407 92.8129 73.7454 91.8 74.7244 90.8716C76.4796 91.0529 78.138 91.6762 79.5001 92.6664C80.8623 93.6566 81.8703 94.9717 82.403 96.4536C81.328 97.2638 80.0546 98.2486 79.0052 99.087Z" fill="white"/>
<path d="M64.9312 10.2479C65.4879 5.61126 64.2913 3.87814 61.2902 1.80741C58.2892 -0.263318 53.5028 -0.505277 50.0923 0.828318C47.755 1.76121 45.8514 3.36969 44.6981 5.38617C42.7784 8.71735 42.9576 12.9095 44.6277 16.37C46.2978 19.8306 49.2796 22.5991 52.6326 24.7092L64.9312 10.2479Z" fill="#783834"/>
<path d="M64.5536 10.7434C65.0975 6.26993 63.9137 4.59309 61.0407 2.60114C58.1676 0.609186 53.5284 0.350345 50.233 1.6558C47.9818 2.56079 46.1458 4.10992 45.0244 6.05048C43.1624 9.26911 43.3543 13.3149 44.9604 16.6517C46.5665 19.9885 49.4396 22.667 52.6902 24.7039L64.5536 10.7434Z" fill="#331816"/>
<path d="M59.2091 23.4823C59.2091 26.0482 59.2091 30.6567 59.2091 33.2226C57.8142 35.147 53.9876 36.7113 52.5991 38.6357C50.5165 36.7728 48.8074 34.6135 47.544 32.2491C47.4353 27.1848 47.3392 22.053 47.2305 17C50.5835 20.2018 55.1138 21.3553 59.2091 23.4823Z" fill="#8F4B41"/>
<path d="M47.2689 18.6661L47.2305 16.978C50.5899 20.1798 55.1202 21.3333 59.2155 23.4603C59.2155 25.6773 59.2155 29.4305 59.2155 32.064C53.0918 29.4756 49.3101 24.3663 47.2689 18.6661Z" fill="#4F2521"/>
<path d="M43.3139 11.7167C43.6051 11.4442 43.962 11.2325 44.3584 11.0972C44.7548 10.9618 45.1806 10.9063 45.6047 10.9346C46.7436 10.9908 46.7628 11.3679 47.5243 12.0994C48.8809 10.7545 48.9065 8.88073 49.0152 7.0801C52.6306 5.9547 58.1912 4.89683 63.0927 6.1629C63.559 6.28296 63.9717 6.52695 64.2742 6.86142C64.5766 7.19588 64.754 7.60444 64.782 8.03106C65.0125 10.7895 65.0403 13.5581 64.8652 16.3196C64.6092 19.0656 64.1421 21.9466 62.1968 24.113C61.1737 25.2506 59.7427 26.05 58.1369 26.381C56.5311 26.7121 54.8451 26.5553 53.3536 25.9361C49.9495 24.4618 47.9274 20.9787 47.0252 16.8542C45.7454 16.5053 44.6768 16.3421 43.8258 15.4643C42.8084 14.4121 42.1749 12.859 43.3139 11.7167Z" fill="#8F4B41"/>
<path d="M52.6302 20.8718C52.5586 20.1846 52.5908 19.4921 52.7261 18.8123C49.6419 17.6531 48.1958 14.4008 48.0038 11.5366C47.8597 11.7357 47.6971 11.924 47.5175 12.0993C47.3703 11.9643 47.2615 11.8405 47.1591 11.7279C46.5705 13.6918 47.4919 15.92 47.3767 18.1821C48.3685 21.5977 50.2114 24.4168 53.0717 25.7785C54.5764 26.4782 56.311 26.6957 57.9782 26.3939C59.6453 26.0921 61.1412 25.2896 62.2092 24.1242C63.1297 23.0536 63.7838 21.8247 64.1289 20.5173C63.6165 20.6383 63.139 20.853 62.7275 21.1475C61.7805 23.1901 60.5007 24.338 58.1651 24.7769C55.2473 25.334 52.9757 23.4714 52.6302 20.8718Z" fill="#331816"/>
<path d="M47.1599 11.7278C47.0096 11.482 46.7847 11.2777 46.5101 11.1376C46.2356 10.9975 45.9223 10.9272 45.605 10.9344C45.181 10.9061 44.7552 10.9617 44.3587 11.097C43.9623 11.2324 43.6054 11.4441 43.3142 11.7166C42.1752 12.842 42.8087 14.4119 43.8197 15.436C44.6772 16.3138 45.7394 16.477 47.0192 16.8259C47.1215 17.2873 47.2367 17.7375 47.3711 18.182C47.4927 15.9199 46.5712 13.6917 47.1599 11.7278Z" fill="#8F4B41"/>
<path d="M43.8721 11.8689C44.1915 11.73 44.5429 11.6577 44.8991 11.6577C45.2554 11.6577 45.6068 11.73 45.9261 11.8689C46.2113 11.994 46.4634 12.1703 46.6662 12.3864C46.869 12.6026 47.018 12.8537 47.1035 13.1237C47.1166 13.1643 47.1204 13.2068 47.1147 13.2488C47.1091 13.2907 47.094 13.3312 47.0706 13.3681C47.0471 13.4049 47.0156 13.4373 46.9779 13.4635C46.9402 13.4896 46.897 13.5089 46.8508 13.5204C46.8046 13.5318 46.7562 13.5352 46.7085 13.5302C46.6609 13.5252 46.6147 13.5121 46.5729 13.4914C46.531 13.4708 46.4941 13.4431 46.4644 13.4099C46.4347 13.3768 46.4127 13.3388 46.3996 13.2981C46.3733 13.2107 46.3369 13.1258 46.2909 13.0449C46.2909 12.9999 46.2333 12.9549 46.2013 12.9099L46.1437 12.8367C46.0038 12.6753 45.8216 12.5459 45.6126 12.4597C45.4023 12.3697 45.1714 12.3229 44.9375 12.3229C44.7036 12.3229 44.4728 12.3697 44.2625 12.4597C44.2204 12.4811 44.174 12.4951 44.1259 12.5007C44.0777 12.5064 44.0288 12.5037 43.9819 12.4927C43.9349 12.4817 43.8909 12.4627 43.8523 12.4368C43.8137 12.4108 43.7813 12.3785 43.7569 12.3415C43.7326 12.3046 43.7167 12.2638 43.7103 12.2214C43.7039 12.1791 43.707 12.1361 43.7194 12.0948C43.7319 12.0535 43.7535 12.0148 43.783 11.9809C43.8125 11.9469 43.8493 11.9184 43.8913 11.897L43.8721 11.8689Z" fill="#4F2521"/>
<path d="M55.3203 22.8526C55.3697 22.7797 55.4495 22.7266 55.5426 22.7046C55.6358 22.6825 55.7351 22.6932 55.8194 22.7345C55.9282 22.7851 56.0306 22.8358 56.1394 22.8751H56.2097L56.3953 22.9314L56.7344 23.0102L56.9136 23.044H57.0032C57.1009 23.0468 57.1942 23.0808 57.2656 23.1396C57.2993 23.1689 57.3257 23.2041 57.3434 23.2428C57.361 23.2815 57.3693 23.323 57.3679 23.3647C57.3679 23.5222 57.208 23.7079 57.0032 23.6854C56.4395 23.6293 55.8938 23.4764 55.3971 23.2353C55.3393 23.1871 55.3007 23.124 55.2869 23.0551C55.2731 22.9862 55.2848 22.9152 55.3203 22.8526Z" fill="#4F2521"/>
<path d="M53.9805 10.2646C54.0798 10.1639 54.2123 10.0929 54.3596 10.0615C54.507 10.0301 54.6617 10.0398 54.8025 10.0893C54.9432 10.1388 55.0629 10.2257 55.145 10.3378C55.227 10.4499 55.2673 10.5816 55.2603 10.7148V12.2679C55.2603 12.3521 55.2414 12.4355 55.2047 12.5133C55.1681 12.5912 55.1143 12.6619 55.0466 12.7214C54.9788 12.781 54.8984 12.8283 54.8099 12.8605C54.7214 12.8927 54.6266 12.9093 54.5308 12.9093C54.3377 12.9065 54.1534 12.8382 54.0163 12.7186C53.8791 12.5991 53.7998 12.4376 53.7949 12.2679V10.7429C53.7878 10.6563 53.8005 10.5694 53.8324 10.4872C53.8643 10.405 53.9146 10.3293 53.9805 10.2646Z" fill="black"/>
<path d="M62.0862 10.4394C62.2249 10.3198 62.4103 10.2514 62.6045 10.248C62.7964 10.2538 62.9784 10.3242 63.113 10.4446C63.2475 10.565 63.3244 10.7263 63.3275 10.8951V12.4313C63.3238 12.6021 63.2459 12.7651 63.11 12.8871C63.0422 12.947 62.9614 12.9944 62.8723 13.0263C62.7833 13.0582 62.6878 13.074 62.5917 13.0728C62.4015 13.067 62.2211 12.9973 62.0877 12.8779C61.9543 12.7585 61.8782 12.5986 61.875 12.4313V10.8951C61.877 10.7252 61.9525 10.5622 62.0862 10.4394Z" fill="black"/>
<path d="M59.1605 21.9971C57.5832 22.0918 56.0276 21.6325 54.8349 20.7198C54.483 20.4497 53.9647 20.9055 54.3166 21.1756C55.6468 22.2087 57.3892 22.735 59.1605 22.6386C59.6276 22.6049 59.634 21.9634 59.1605 21.9971Z" fill="black"/>
<path d="M62.3472 15.9365C62.0848 14.496 60.6579 13.6126 59.3717 12.8586C58.9814 12.6335 58.6167 13.1849 59.007 13.4213C60.082 14.0515 61.2978 14.7605 61.6049 15.9421C61.912 17.1238 60.837 17.8609 59.794 18.418C59.752 18.4394 59.7152 18.4679 59.6857 18.5019C59.6562 18.5358 59.6346 18.5745 59.6221 18.6158C59.6097 18.6571 59.6066 18.7001 59.613 18.7425C59.6194 18.7848 59.6353 18.8256 59.6597 18.8626C59.684 18.8995 59.7165 18.9319 59.755 18.9578C59.7936 18.9837 59.8377 19.0027 59.8846 19.0137C59.9315 19.0247 59.9804 19.0274 60.0286 19.0218C60.0767 19.0161 60.1232 19.0021 60.1652 18.9807C60.8096 18.679 61.3829 18.2722 61.8545 17.7822C62.0798 17.5224 62.2402 17.2237 62.3252 16.9057C62.4101 16.5876 62.4176 16.2573 62.3472 15.9365Z" fill="#4F2521"/>
<path d="M57.2707 8.62747C56.945 8.28576 56.5406 8.00872 56.0841 7.81465C55.6277 7.62058 55.1296 7.51391 54.6227 7.50167C54.1159 7.48944 53.6119 7.57193 53.144 7.74369C52.6761 7.91545 52.255 8.17257 51.9085 8.49805C51.5822 8.80191 52.1005 9.25207 52.4268 8.95384C52.7068 8.69014 53.0472 8.4816 53.4255 8.34194C53.8038 8.20228 54.2115 8.13466 54.6216 8.14355C55.0328 8.16008 55.4354 8.25225 55.8035 8.41412C56.1717 8.57598 56.4971 8.80393 56.7588 9.08326C57.0596 9.39837 57.5651 8.94258 57.2707 8.62747Z" fill="black"/>
<path d="M64.5304 8.42514C64.3049 8.20175 64.0265 8.02445 63.7148 7.90567C63.4031 7.7869 63.0656 7.72952 62.726 7.73756C62.3864 7.7456 62.0529 7.81887 61.7489 7.95223C61.445 8.08558 61.1778 8.2758 60.9663 8.50954C60.9001 8.57116 60.8633 8.6527 60.8633 8.73744C60.8633 8.82217 60.9001 8.90371 60.9663 8.96533C61.0002 8.99544 61.0406 9.01935 61.085 9.03566C61.1295 9.05197 61.1772 9.06038 61.2254 9.06038C61.2736 9.06038 61.3213 9.05197 61.3658 9.03566C61.4103 9.01935 61.4507 8.99544 61.4846 8.96533C61.6303 8.80108 61.814 8.66597 62.0236 8.56895C62.2332 8.47194 62.4639 8.41524 62.7004 8.40263C62.9474 8.39236 63.1938 8.43159 63.4211 8.51738C63.6483 8.60316 63.8504 8.73325 64.0121 8.89781C64.0462 8.92773 64.0865 8.95147 64.131 8.96767C64.1755 8.98386 64.2231 8.9922 64.2713 8.9922C64.3194 8.9922 64.3671 8.98386 64.4115 8.96767C64.456 8.95147 64.4964 8.92773 64.5304 8.89781C64.5645 8.86788 64.5914 8.83235 64.6099 8.79325C64.6283 8.75415 64.6377 8.71224 64.6377 8.66991C64.6377 8.62759 64.6283 8.58568 64.6099 8.54658C64.5914 8.50748 64.5645 8.47195 64.5304 8.44202V8.42514Z" fill="black"/>
<path d="M59.1769 19.3015C57.3938 18.7136 55.5132 18.3867 53.6099 18.3336C52.8727 18.2652 52.1289 18.3906 51.4727 18.6937C53.5331 20.3875 56.6301 20.3593 59.1769 19.3015Z" fill="#331816"/>
<path d="M58.5898 19.4424C58.8714 19.2511 59.6009 19.3186 59.9528 19.3411C60.4639 19.3817 60.9647 19.4918 61.4373 19.6675C61.9219 19.8508 62.3709 20.0995 62.7683 20.4046C63.069 20.6353 63.6002 21.0292 63.5746 21.4175C63.549 21.8057 62.7491 21.8507 62.3908 21.862C61.8408 21.8757 61.2944 21.7815 60.791 21.5863C60.2369 21.3725 59.7497 21.0443 59.3705 20.6297C59.1838 20.4213 59.0249 20.1947 58.897 19.9544C58.8074 19.7913 58.7882 19.5324 58.5898 19.4424Z" fill="#331816"/>
<path d="M25.571 79.4204L21.4885 82.2339C21.4121 82.2861 21.3625 82.3629 21.3505 82.4473C21.3385 82.5317 21.3651 82.6169 21.4245 82.684C21.4839 82.7512 21.5712 82.7948 21.6672 82.8054C21.7632 82.816 21.8601 82.7925 21.9364 82.7403L26.0253 79.9268C26.1017 79.8738 26.1509 79.7963 26.1623 79.7114C26.1737 79.6264 26.1463 79.541 26.0861 79.4738C26.0258 79.4067 25.9377 79.3633 25.8411 79.3533C25.7445 79.3433 25.6473 79.3674 25.571 79.4204Z" fill="#404178"/>
<path d="M22.3704 104.292C19.7164 104.174 17.143 103.45 14.903 102.193C14.5063 101.968 14.0584 102.48 14.4551 102.705C16.8007 104.03 19.4974 104.795 22.2808 104.928C22.7543 104.95 22.8439 104.309 22.3704 104.292Z" fill="#404178"/>
<path d="M71.6739 157.72C70.3298 160.35 68.3543 162.694 65.883 164.59C65.5311 164.86 66.0494 165.316 66.4013 165.04C68.9125 163.109 70.9186 160.723 72.2818 158.046C72.493 157.669 71.8659 157.343 71.6739 157.72Z" fill="#404178"/>
<path d="M52.0859 95.6376C52.0859 98.6649 52.0859 101.69 52.0859 104.714C52.0859 104.799 52.1244 104.881 52.1928 104.941C52.2612 105.001 52.3539 105.035 52.4507 105.035C52.5474 105.035 52.6402 105.001 52.7086 104.941C52.777 104.881 52.8154 104.799 52.8154 104.714C52.8154 101.687 52.8154 98.6612 52.8154 95.6376C52.8154 95.5526 52.777 95.471 52.7086 95.4108C52.6402 95.3507 52.5474 95.3169 52.4507 95.3169C52.3539 95.3169 52.2612 95.3507 52.1928 95.4108C52.1244 95.471 52.0859 95.5526 52.0859 95.6376Z" fill="#404178"/>
<path d="M74.7061 102.119C72.7597 102.384 70.7753 102.344 68.8448 102.001C67.9307 101.842 67.0338 101.614 66.1637 101.32C65.2878 101.087 64.4989 100.652 63.8793 100.06C63.5849 99.7336 63.0666 100.195 63.361 100.516C63.9657 101.106 64.7324 101.549 65.5877 101.804C66.578 102.162 67.6042 102.437 68.6528 102.626C70.7108 102.987 72.825 103.025 74.8981 102.738C75.3652 102.676 75.1668 102.058 74.7061 102.119Z" fill="#404178"/>
<path d="M72.7716 102.277C72.8164 102.485 72.8548 102.694 72.8932 102.907C74.0159 108.972 74.6956 115.093 74.928 121.234C75.1904 128.285 74.9664 135.364 74.7361 142.42C74.2753 156.566 73.3923 170.701 72.3493 184.825C71.7819 192.534 71.1825 200.241 70.5512 207.946C70.4984 207.953 70.4481 207.97 70.404 207.997C68.969 208.86 67.2142 209.21 65.4961 208.976C63.7877 208.723 62.2967 207.851 60.5178 207.851C60.4286 207.861 60.3467 207.899 60.2874 207.959C60.228 208.019 60.1953 208.095 60.1953 208.174C60.1953 208.253 60.228 208.33 60.2874 208.389C60.3467 208.449 60.4286 208.487 60.5178 208.498C62.3799 208.526 64.0052 209.505 65.8481 209.668C67.468 209.802 69.0936 209.47 70.4808 208.723C70.4838 208.756 70.4838 208.79 70.4808 208.824C70.4808 209.24 71.1847 209.235 71.2103 208.824C72.3621 194.565 73.5011 180.301 74.3649 166.02C74.7915 158.952 75.1349 151.883 75.3951 144.811C75.6511 137.682 75.8942 130.536 75.7343 123.429C75.581 116.553 74.8774 109.696 73.629 102.907C73.5906 102.699 73.5458 102.485 73.5074 102.271L72.7716 102.277Z" fill="#404178"/>
<path d="M67.4978 51.8537C66.8195 51.578 65.9493 51.8819 65.271 52.0113L61.3229 52.7991C63.3706 51.443 65.3542 49.9518 66.698 48.0218C67.5292 46.8265 68.035 45.4784 68.1761 44.0829C68.2595 42.4916 68.163 40.897 67.8881 39.3224C67.5498 37.5599 67.5801 35.7579 67.9777 34.0049C68.004 33.9229 67.9922 33.835 67.9448 33.7606C67.8974 33.6862 67.8183 33.6314 67.725 33.6082C67.6316 33.5851 67.5317 33.5955 67.4471 33.6372C67.3625 33.6789 67.3001 33.7484 67.2738 33.8305C66.41 36.8241 67.453 39.8401 67.4978 42.8337C67.5528 44.3006 67.1991 45.7572 66.4676 47.0764C65.7356 48.2675 64.7842 49.3437 63.6521 50.2613C62.3505 51.3114 60.9718 52.2851 59.5249 53.1761C59.465 53.2208 59.4232 53.2813 59.4056 53.3486C59.3879 53.416 59.3955 53.4865 59.4272 53.5497C59.4588 53.6129 59.5128 53.6655 59.5811 53.6996C59.6494 53.7336 59.7285 53.7474 59.8064 53.7388L64.4968 52.8103L65.6421 52.5796C66.0248 52.4801 66.4166 52.4104 66.8131 52.3714C67.453 52.3714 67.581 52.8328 67.453 53.3055C67.2824 53.8147 67.0257 54.2984 66.6916 54.7404C66.3396 55.3031 66.0005 55.832 65.6614 56.3891C64.9767 57.5145 64.3304 58.6399 63.7417 59.8103C61.2708 64.4149 59.31 69.2182 57.8868 74.1535C57.0836 76.9587 56.4577 79.801 56.0119 82.6671C55.9479 83.0722 56.6518 83.2298 56.7158 82.8359C57.9722 74.7537 60.6625 66.8948 64.6887 59.5458C65.3542 58.3304 66.0559 57.1318 66.7939 55.9502C67.3634 55.0442 68.2657 54.037 68.2657 52.951C68.2746 52.722 68.2066 52.4957 68.07 52.3005C67.9334 52.1053 67.7344 51.9499 67.4978 51.8537Z" fill="#404178"/>
<path d="M38.6357 51.8537C39.3139 51.578 40.1842 51.8819 40.8625 52.0113L44.8106 52.7991C42.7629 51.443 40.7793 49.9518 39.4355 48.0218C38.6043 46.8265 38.0984 45.4784 37.9574 44.0829C37.8728 42.4914 37.9714 40.8965 38.2518 39.3224C38.5849 37.5594 38.5523 35.7578 38.1558 34.0049C38.1294 33.9229 38.1413 33.835 38.1887 33.7606C38.2361 33.6862 38.3152 33.6314 38.4085 33.6082C38.5019 33.5851 38.6018 33.5955 38.6864 33.6372C38.771 33.6789 38.8333 33.7484 38.8596 33.8305C39.7299 36.8241 38.6805 39.8401 38.6421 42.8337C38.5809 44.3005 38.9326 45.7579 39.6659 47.0764C40.3979 48.2675 41.3493 49.3437 42.4814 50.2613C43.783 51.3114 45.1617 52.2851 46.6086 53.1761C46.6685 53.2208 46.7103 53.2813 46.7279 53.3486C46.7455 53.416 46.738 53.4865 46.7063 53.5497C46.6747 53.6129 46.6207 53.6655 46.5524 53.6996C46.484 53.7336 46.405 53.7474 46.3271 53.7388L41.6367 52.8103L40.4913 52.5796C40.1089 52.4795 39.717 52.4099 39.3203 52.3714C38.6805 52.3714 38.5525 52.8328 38.6805 53.3055C38.8511 53.8147 39.1078 54.2984 39.4419 54.7404C39.7939 55.3031 40.1394 55.832 40.4721 56.3891C41.1589 57.5145 41.8116 58.6549 42.4302 59.8103C46.3144 67.0389 48.921 74.7467 50.16 82.6671C50.2176 83.0722 49.5201 83.2298 49.4497 82.8359C48.1933 74.7537 45.5029 66.8948 41.4767 59.5458C40.8113 58.3304 40.1095 57.1318 39.3715 55.9502C38.8084 55.0442 37.8998 54.037 37.8998 52.951C37.8881 52.725 37.9514 52.5009 38.0821 52.3061C38.2127 52.1112 38.4051 51.954 38.6357 51.8537Z" fill="#404178"/>
<path d="M72.7289 88.705C69.6718 89.9083 66.2256 90.1079 63.0155 89.2677C62.9221 89.2454 62.8225 89.2565 62.7385 89.2987C62.6545 89.3409 62.593 89.4107 62.5675 89.4928C62.5421 89.5749 62.5547 89.6625 62.6027 89.7364C62.6507 89.8102 62.7301 89.8643 62.8235 89.8867C66.2215 90.7749 69.8697 90.5572 73.1 89.2734C73.5608 89.0877 73.1576 88.5362 72.7289 88.705Z" fill="#404178"/>
<path d="M44.3191 88.5923C41.748 89.1447 39.0512 89.0412 36.5446 88.294C36.0967 88.159 35.9047 88.778 36.3526 88.913C38.9848 89.6911 41.8145 89.7946 44.5111 89.2112C44.9718 89.1156 44.7671 88.4966 44.3191 88.5923Z" fill="#404178"/>
<path d="M84.2311 91.7378C83.1503 89.9732 81.5923 88.4698 79.6944 87.36C79.2976 87.1349 78.9329 87.6864 79.3232 87.9227C81.1156 88.9734 82.5842 90.3982 83.5976 92.0698C83.8024 92.4299 84.4423 92.1036 84.2311 91.7378Z" fill="#404178"/>
<path d="M95.8619 78.301C94.7262 77.3004 93.2968 76.597 91.7331 76.2691C90.1694 75.9412 88.5328 76.0018 87.0059 76.4441C84.642 70.2987 81.2122 64.5116 76.8382 59.2874C75.5883 57.7869 74.2658 56.3464 72.8709 54.9659C72.5637 54.6508 72.0454 55.1122 72.359 55.4217C77.2421 60.2995 81.2316 65.8162 84.184 71.7737C85.0372 73.4843 85.7944 75.2268 86.4556 77.0012C86.4819 77.0529 86.5226 77.0981 86.5739 77.1324C86.6252 77.1667 86.6855 77.1891 86.7493 77.1975C86.813 77.2059 86.8782 77.2 86.9387 77.1805C86.9992 77.1609 87.0531 77.1283 87.0955 77.0856C88.5081 76.6598 90.0284 76.5924 91.4825 76.8909C92.9366 77.1895 94.2658 77.8419 95.318 78.7737C95.6763 79.055 96.1946 78.5992 95.8619 78.301Z" fill="#404178"/>
<path d="M50.6663 82.9655C49.7769 87.1407 48.7083 91.361 46.4879 95.1648C44.5698 98.6549 41.4301 101.513 37.5296 103.318C35.5464 104.201 33.3532 104.656 31.1307 104.646C33.2108 98.7308 34.3836 92.5976 34.6181 86.4092C34.8499 79.8414 34.5205 73.2674 33.6327 66.7429C33.1719 63.001 32.6153 59.2703 32.0586 55.5452C31.9946 55.1401 31.2651 55.1345 31.3291 55.5452C32.3081 62.1063 33.2871 68.673 33.7351 75.2847C34.253 81.7037 34.0171 88.1525 33.0312 94.529C32.448 98.0399 31.5297 101.502 30.2861 104.877C30.2715 104.925 30.2695 104.975 30.2803 105.024C30.291 105.072 30.3142 105.118 30.3481 105.158C30.3821 105.197 30.4258 105.23 30.476 105.252C30.5263 105.275 30.5816 105.287 30.638 105.288C35.066 105.473 39.2636 103.684 42.4374 101.056C45.912 98.1809 48.0364 94.3377 49.425 90.365C50.2185 87.9864 50.8594 85.5705 51.3446 83.1287C51.4598 82.7348 50.7559 82.5604 50.6663 82.9655Z" fill="#404178"/>
<path d="M63.5475 98.8897C58.6012 96.7796 56.56 91.9404 55.6897 87.4669C55.165 84.7772 54.8899 82.0425 54.5315 79.3303C54.1732 76.6181 53.7957 73.7652 53.4245 70.9517C53.0278 67.93 52.5159 64.8239 53.2454 61.8079C53.3413 61.4027 52.6055 61.2452 52.5415 61.639C51.9016 64.3794 52.196 67.176 52.5415 69.9332L53.7253 78.5369C54.0964 81.3504 54.3652 84.1301 54.8835 86.9042C55.2394 89.4329 56.0719 91.8918 57.347 94.1799C58.6185 96.4382 60.6733 98.2826 63.2147 99.4467C63.6051 99.6493 63.9634 99.0866 63.5475 98.8897Z" fill="#404178"/>
</svg>
