<svg width="24" height="24" viewBox="0 0 24 24" fill="none" xmlns="http://www.w3.org/2000/svg">
<path d="M2.6625 11.7013C2.78185 11.7908 2.93187 11.8293 3.07955 11.8082C3.22724 11.7871 3.36049 11.7082 3.45 11.5888C3.92156 10.9601 4.53303 10.4498 5.23598 10.0983C5.93894 9.74681 6.71407 9.56383 7.5 9.56383C8.28593 9.56383 9.06107 9.74681 9.76402 10.0983C10.467 10.4498 11.0784 10.9601 11.55 11.5888C11.6397 11.708 11.773 11.7867 11.9207 11.8077C12.0683 11.8286 12.2183 11.79 12.3375 11.7004C12.3801 11.669 12.4177 11.6314 12.4491 11.5888C12.9206 10.9601 13.5321 10.4498 14.235 10.0983C14.938 9.74681 15.7131 9.56383 16.4991 9.56383C17.285 9.56383 18.0601 9.74681 18.7631 10.0983C19.466 10.4498 20.0775 10.9601 20.5491 11.5888C20.6387 11.7082 20.7721 11.787 20.9198 11.808C21.0676 11.829 21.2177 11.7905 21.337 11.7009C21.4564 11.6112 21.5352 11.4779 21.5562 11.3301C21.5773 11.1823 21.5387 11.0322 21.4491 10.9129C20.7409 9.96441 19.7746 9.23992 18.6656 8.82602C19.2567 8.37319 19.691 7.74654 19.9076 7.03413C20.1241 6.32172 20.112 5.55937 19.8729 4.8542C19.6339 4.14903 19.1798 3.5365 18.5747 3.10268C17.9695 2.66885 17.2437 2.43555 16.4991 2.43555C15.7545 2.43555 15.0286 2.66885 14.4234 3.10268C13.8183 3.5365 13.3643 4.14903 13.1252 4.8542C12.8861 5.55937 12.874 6.32172 13.0906 7.03413C13.3071 7.74654 13.7414 8.37319 14.3325 8.82602C13.4454 9.15657 12.647 9.68831 12 10.3795C11.3528 9.68819 10.554 9.15644 9.66656 8.82602C10.2576 8.37319 10.692 7.74654 10.9085 7.03413C11.1251 6.32172 11.1129 5.55937 10.8739 4.8542C10.6348 4.14903 10.1808 3.5365 9.57563 3.10268C8.97047 2.66885 8.24459 2.43555 7.5 2.43555C6.75541 2.43555 6.02953 2.66885 5.42437 3.10268C4.81922 3.5365 4.3652 4.14903 4.12613 4.8542C3.88706 5.55937 3.87494 6.32172 4.09149 7.03413C4.30804 7.74654 4.74237 8.37319 5.33344 8.82602C4.22423 9.23994 3.25784 9.96481 2.55 10.9138C2.46049 11.0332 2.42206 11.1832 2.44316 11.3309C2.46425 11.4786 2.54315 11.6118 2.6625 11.7013ZM16.5 3.56383C16.9821 3.56383 17.4534 3.70679 17.8542 3.97462C18.255 4.24246 18.5675 4.62314 18.752 5.06854C18.9364 5.51393 18.9847 6.00403 18.8907 6.47686C18.7966 6.94969 18.5645 7.38401 18.2236 7.7249C17.8827 8.06579 17.4484 8.29794 16.9755 8.39199C16.5027 8.48605 16.0126 8.43777 15.5672 8.25329C15.1218 8.0688 14.7411 7.75638 14.4733 7.35553C14.2055 6.95469 14.0625 6.48342 14.0625 6.00133C14.0625 5.35486 14.3193 4.73488 14.7764 4.27776C15.2335 3.82064 15.8535 3.56383 16.5 3.56383ZM7.5 3.56383C7.98209 3.56383 8.45336 3.70679 8.8542 3.97462C9.25505 4.24246 9.56747 4.62314 9.75196 5.06854C9.93645 5.51393 9.98472 6.00403 9.89067 6.47686C9.79662 6.94969 9.56447 7.38401 9.22357 7.7249C8.88268 8.06579 8.44836 8.29794 7.97553 8.39199C7.50271 8.48605 7.01261 8.43777 6.56721 8.25329C6.12182 8.0688 5.74113 7.75638 5.47329 7.35553C5.20546 6.95469 5.0625 6.48342 5.0625 6.00133C5.0625 5.35486 5.31931 4.73488 5.77643 4.27776C6.23355 3.82064 6.85354 3.56383 7.5 3.56383ZM18.6666 18.576C19.2576 18.1232 19.692 17.4965 19.9085 16.7841C20.1251 16.0717 20.1129 15.3094 19.8739 14.6042C19.6348 13.899 19.1808 13.2865 18.5756 12.8527C17.9705 12.4189 17.2446 12.1855 16.5 12.1855C15.7554 12.1855 15.0295 12.4189 14.4244 12.8527C13.8192 13.2865 13.3652 13.899 13.1261 14.6042C12.8871 15.3094 12.8749 16.0717 13.0915 16.7841C13.308 17.4965 13.7424 18.1232 14.3334 18.576C13.446 18.9064 12.6472 19.4382 12 20.1295C11.3528 19.4382 10.554 18.9064 9.66656 18.576C10.2576 18.1232 10.692 17.4965 10.9085 16.7841C11.1251 16.0717 11.1129 15.3094 10.8739 14.6042C10.6348 13.899 10.1808 13.2865 9.57563 12.8527C8.97047 12.4189 8.24459 12.1855 7.5 12.1855C6.75541 12.1855 6.02953 12.4189 5.42437 12.8527C4.81922 13.2865 4.3652 13.899 4.12613 14.6042C3.88706 15.3094 3.87494 16.0717 4.09149 16.7841C4.30804 17.4965 4.74237 18.1232 5.33344 18.576C4.22423 18.9899 3.25784 19.7148 2.55 20.6638C2.50568 20.7229 2.47343 20.7902 2.4551 20.8617C2.43677 20.9333 2.43271 21.0078 2.44316 21.0809C2.4536 21.154 2.47835 21.2244 2.51599 21.2879C2.55362 21.3515 2.60341 21.407 2.6625 21.4513C2.7216 21.4957 2.78884 21.5279 2.8604 21.5462C2.93196 21.5646 3.00643 21.5686 3.07955 21.5582C3.15268 21.5477 3.22303 21.523 3.28659 21.4853C3.35015 21.4477 3.40568 21.3979 3.45 21.3388C3.92156 20.7101 4.53303 20.1998 5.23598 19.8483C5.93894 19.4968 6.71407 19.3138 7.5 19.3138C8.28593 19.3138 9.06107 19.4968 9.76402 19.8483C10.467 20.1998 11.0784 20.7101 11.55 21.3388C11.6397 21.458 11.773 21.5367 11.9207 21.5577C12.0683 21.5786 12.2183 21.54 12.3375 21.4504C12.3801 21.419 12.4177 21.3814 12.4491 21.3388C12.9206 20.7101 13.5321 20.1998 14.235 19.8483C14.938 19.4968 15.7131 19.3138 16.4991 19.3138C17.285 19.3138 18.0601 19.4968 18.7631 19.8483C19.466 20.1998 20.0775 20.7101 20.5491 21.3388C20.6387 21.4582 20.7721 21.537 20.9198 21.558C21.0676 21.5791 21.2177 21.5405 21.337 21.4509C21.4564 21.3612 21.5352 21.2279 21.5562 21.0801C21.5773 20.9323 21.5387 20.7822 21.4491 20.6629C20.7412 19.7146 19.7752 18.9901 18.6666 18.576ZM7.5 13.3138C7.98209 13.3138 8.45336 13.4568 8.8542 13.7246C9.25505 13.9925 9.56747 14.3731 9.75196 14.8185C9.93645 15.2639 9.98472 15.754 9.89067 16.2269C9.79662 16.6997 9.56447 17.134 9.22357 17.4749C8.88268 17.8158 8.44836 18.0479 7.97553 18.142C7.50271 18.236 7.01261 18.1878 6.56721 18.0033C6.12182 17.8188 5.74113 17.5064 5.47329 17.1055C5.20546 16.7047 5.0625 16.2334 5.0625 15.7513C5.0625 15.1049 5.31931 14.4849 5.77643 14.0278C6.23355 13.5706 6.85354 13.3138 7.5 13.3138ZM16.5 13.3138C16.9821 13.3138 17.4534 13.4568 17.8542 13.7246C18.255 13.9925 18.5675 14.3731 18.752 14.8185C18.9364 15.2639 18.9847 15.754 18.8907 16.2269C18.7966 16.6997 18.5645 17.134 18.2236 17.4749C17.8827 17.8158 17.4484 18.0479 16.9755 18.142C16.5027 18.236 16.0126 18.1878 15.5672 18.0033C15.1218 17.8188 14.7411 17.5064 14.4733 17.1055C14.2055 16.7047 14.0625 16.2334 14.0625 15.7513C14.0625 15.1049 14.3193 14.4849 14.7764 14.0278C15.2335 13.5706 15.8535 13.3138 16.5 13.3138Z" fill="white"/>
</svg>
