<svg width="24" height="24" viewBox="0 0 24 24" fill="none" xmlns="http://www.w3.org/2000/svg">
<path d="M2.6625 11.7004C2.78185 11.7899 2.93187 11.8283 3.07955 11.8072C3.22724 11.7861 3.36049 11.7072 3.45 11.5879C3.92156 10.9591 4.53303 10.4488 5.23598 10.0973C5.93894 9.74584 6.71407 9.56285 7.5 9.56285C8.28593 9.56285 9.06107 9.74584 9.76402 10.0973C10.467 10.4488 11.0784 10.9591 11.55 11.5879C11.6397 11.7071 11.773 11.7858 11.9207 11.8067C12.0683 11.8276 12.2183 11.789 12.3375 11.6994C12.3801 11.6681 12.4177 11.6305 12.4491 11.5879C12.9206 10.9591 13.5321 10.4488 14.235 10.0973C14.938 9.74584 15.7131 9.56285 16.4991 9.56285C17.285 9.56285 18.0601 9.74584 18.7631 10.0973C19.466 10.4488 20.0775 10.9591 20.5491 11.5879C20.6387 11.7072 20.7721 11.7861 20.9198 11.8071C21.0676 11.8281 21.2177 11.7895 21.337 11.6999C21.4564 11.6102 21.5352 11.4769 21.5562 11.3291C21.5773 11.1813 21.5387 11.0313 21.4491 10.9119C20.7409 9.96343 19.7746 9.23894 18.6656 8.82504C19.2567 8.37221 19.691 7.74556 19.9076 7.03315C20.1241 6.32075 20.112 5.55839 19.8729 4.85323C19.6339 4.14806 19.1798 3.53552 18.5747 3.1017C17.9695 2.66788 17.2437 2.43457 16.4991 2.43457C15.7545 2.43457 15.0286 2.66788 14.4234 3.1017C13.8183 3.53552 13.3643 4.14806 13.1252 4.85323C12.8861 5.55839 12.874 6.32075 13.0906 7.03315C13.3071 7.74556 13.7414 8.37221 14.3325 8.82504C13.4454 9.15559 12.647 9.68733 12 10.3785C11.3528 9.68721 10.554 9.15547 9.66656 8.82504C10.2576 8.37221 10.692 7.74556 10.9085 7.03315C11.1251 6.32075 11.1129 5.55839 10.8739 4.85323C10.6348 4.14806 10.1808 3.53552 9.57563 3.1017C8.97047 2.66788 8.24459 2.43457 7.5 2.43457C6.75541 2.43457 6.02953 2.66788 5.42437 3.1017C4.81922 3.53552 4.3652 4.14806 4.12613 4.85323C3.88706 5.55839 3.87494 6.32075 4.09149 7.03315C4.30804 7.74556 4.74237 8.37221 5.33344 8.82504C4.22423 9.23896 3.25784 9.96383 2.55 10.9129C2.46049 11.0322 2.42206 11.1822 2.44316 11.3299C2.46425 11.4776 2.54315 11.6108 2.6625 11.7004ZM16.5 3.56285C16.9821 3.56285 17.4534 3.70581 17.8542 3.97365C18.255 4.24148 18.5675 4.62217 18.752 5.06756C18.9364 5.51296 18.9847 6.00306 18.8907 6.47589C18.7966 6.94871 18.5645 7.38304 18.2236 7.72393C17.8827 8.06482 17.4484 8.29697 16.9755 8.39102C16.5027 8.48507 16.0126 8.4368 15.5672 8.25231C15.1218 8.06782 14.7411 7.7554 14.4733 7.35456C14.2055 6.95371 14.0625 6.48244 14.0625 6.00035C14.0625 5.35389 14.3193 4.7339 14.7764 4.27678C15.2335 3.81966 15.8535 3.56285 16.5 3.56285ZM7.5 3.56285C7.98209 3.56285 8.45336 3.70581 8.8542 3.97365C9.25505 4.24148 9.56747 4.62217 9.75196 5.06756C9.93645 5.51296 9.98472 6.00306 9.89067 6.47589C9.79662 6.94871 9.56447 7.38304 9.22357 7.72393C8.88268 8.06482 8.44836 8.29697 7.97553 8.39102C7.50271 8.48507 7.01261 8.4368 6.56721 8.25231C6.12182 8.06782 5.74113 7.7554 5.47329 7.35456C5.20546 6.95371 5.0625 6.48244 5.0625 6.00035C5.0625 5.35389 5.31931 4.7339 5.77643 4.27678C6.23355 3.81966 6.85354 3.56285 7.5 3.56285ZM18.6666 18.575C19.2576 18.1222 19.692 17.4956 19.9085 16.7832C20.1251 16.0707 20.1129 15.3084 19.8739 14.6032C19.6348 13.8981 19.1808 13.2855 18.5756 12.8517C17.9705 12.4179 17.2446 12.1846 16.5 12.1846C15.7554 12.1846 15.0295 12.4179 14.4244 12.8517C13.8192 13.2855 13.3652 13.8981 13.1261 14.6032C12.8871 15.3084 12.8749 16.0707 13.0915 16.7832C13.308 17.4956 13.7424 18.1222 14.3334 18.575C13.446 18.9055 12.6472 19.4372 12 20.1285C11.3528 19.4372 10.554 18.9055 9.66656 18.575C10.2576 18.1222 10.692 17.4956 10.9085 16.7832C11.1251 16.0707 11.1129 15.3084 10.8739 14.6032C10.6348 13.8981 10.1808 13.2855 9.57563 12.8517C8.97047 12.4179 8.24459 12.1846 7.5 12.1846C6.75541 12.1846 6.02953 12.4179 5.42437 12.8517C4.81922 13.2855 4.3652 13.8981 4.12613 14.6032C3.88706 15.3084 3.87494 16.0707 4.09149 16.7832C4.30804 17.4956 4.74237 18.1222 5.33344 18.575C4.22423 18.989 3.25784 19.7138 2.55 20.6629C2.50568 20.7219 2.47343 20.7892 2.4551 20.8608C2.43677 20.9323 2.43271 21.0068 2.44316 21.0799C2.4536 21.153 2.47835 21.2234 2.51599 21.2869C2.55362 21.3505 2.60341 21.406 2.6625 21.4504C2.7216 21.4947 2.78884 21.5269 2.8604 21.5453C2.93196 21.5636 3.00643 21.5676 3.07955 21.5572C3.15268 21.5468 3.22303 21.522 3.28659 21.4844C3.35015 21.4467 3.40568 21.3969 3.45 21.3379C3.92156 20.7091 4.53303 20.1988 5.23598 19.8473C5.93894 19.4958 6.71407 19.3129 7.5 19.3129C8.28593 19.3129 9.06107 19.4958 9.76402 19.8473C10.467 20.1988 11.0784 20.7091 11.55 21.3379C11.6397 21.4571 11.773 21.5358 11.9207 21.5567C12.0683 21.5776 12.2183 21.539 12.3375 21.4494C12.3801 21.4181 12.4177 21.3805 12.4491 21.3379C12.9206 20.7091 13.5321 20.1988 14.235 19.8473C14.938 19.4958 15.7131 19.3129 16.4991 19.3129C17.285 19.3129 18.0601 19.4958 18.7631 19.8473C19.466 20.1988 20.0775 20.7091 20.5491 21.3379C20.6387 21.4572 20.7721 21.5361 20.9198 21.5571C21.0676 21.5781 21.2177 21.5395 21.337 21.4499C21.4564 21.3603 21.5352 21.2269 21.5562 21.0791C21.5773 20.9313 21.5387 20.7813 21.4491 20.6619C20.7412 19.7136 19.7752 18.9891 18.6666 18.575ZM7.5 13.3129C7.98209 13.3129 8.45336 13.4558 8.8542 13.7236C9.25505 13.9915 9.56747 14.3722 9.75196 14.8176C9.93645 15.263 9.98472 15.7531 9.89067 16.2259C9.79662 16.6987 9.56447 17.133 9.22357 17.4739C8.88268 17.8148 8.44836 18.047 7.97553 18.141C7.50271 18.2351 7.01261 18.1868 6.56721 18.0023C6.12182 17.8178 5.74113 17.5054 5.47329 17.1046C5.20546 16.7037 5.0625 16.2324 5.0625 15.7504C5.0625 15.1039 5.31931 14.4839 5.77643 14.0268C6.23355 13.5697 6.85354 13.3129 7.5 13.3129ZM16.5 13.3129C16.9821 13.3129 17.4534 13.4558 17.8542 13.7236C18.255 13.9915 18.5675 14.3722 18.752 14.8176C18.9364 15.263 18.9847 15.7531 18.8907 16.2259C18.7966 16.6987 18.5645 17.133 18.2236 17.4739C17.8827 17.8148 17.4484 18.047 16.9755 18.141C16.5027 18.2351 16.0126 18.1868 15.5672 18.0023C15.1218 17.8178 14.7411 17.5054 14.4733 17.1046C14.2055 16.7037 14.0625 16.2324 14.0625 15.7504C14.0625 15.1039 14.3193 14.4839 14.7764 14.0268C15.2335 13.5697 15.8535 13.3129 16.5 13.3129Z" fill="#AEAEAE"/>
</svg>
