<svg width="335" height="253" viewBox="0 0 335 253" fill="none" xmlns="http://www.w3.org/2000/svg">
<path d="M305.192 129.916C303.131 161.786 278.69 192.216 245.579 194.121C207.558 197.034 172.656 176.181 134.775 175.96C115.465 174.309 97.3477 181.7 78.5287 184.091C36.0189 185.65 29.5391 135.695 37.4703 103.49C70.9051 -48.3348 307.507 -27.6815 305.192 129.916Z" fill="#9923AC" fill-opacity="0.2"/>
<path d="M304.374 253H275.272L264.568 201.965L257.144 253H226.66L230.852 215.006L233.496 191.104L235.088 176.693L276.448 166.032L295.122 167.063L304.374 253Z" fill="#6BB2AB"/>
<path d="M262.759 198.172L247.949 189.48L243.789 187.031C243.525 186.869 243.325 187.311 243.589 187.468L258.356 196.154L262.538 198.609C262.829 198.765 263.023 198.323 262.759 198.172Z" fill="#389688"/>
<path d="M261.866 199.267L251.264 196.57C250.967 196.489 250.892 196.969 251.188 197.044L261.79 199.742C262.092 199.818 262.168 199.343 261.866 199.267Z" fill="#389688"/>
<path d="M297.207 217.752C296.009 207.321 294.809 196.879 293.608 186.426C292.935 180.513 292.257 174.602 291.574 168.692C291.561 168.633 291.527 168.581 291.478 168.546C291.43 168.511 291.369 168.495 291.309 168.502C291.25 168.508 291.194 168.537 291.154 168.582C291.115 168.627 291.093 168.686 291.094 168.746L294.709 200.228C295.906 210.659 297.106 221.099 298.307 231.548C298.987 237.461 299.665 243.374 300.341 249.287C300.354 249.346 300.388 249.398 300.437 249.434C300.486 249.469 300.546 249.485 300.606 249.478C300.666 249.471 300.721 249.442 300.761 249.397C300.801 249.352 300.822 249.294 300.822 249.233L297.207 217.752Z" fill="#389688"/>
<path d="M334.611 65.5661C334.163 69.7151 333.03 73.767 331.913 77.7919L328.822 88.8901L317.173 88.6042C315.951 87.8148 314.919 86.7646 314.152 85.5288C313.116 83.7639 312.274 81.8915 311.643 79.9447C311.014 77.9918 310.127 76.1319 309.005 74.4145C308.498 73.8225 308.098 73.147 307.823 72.4182C307.613 71.6682 307.855 70.7187 308.573 70.4165C309.291 70.1144 310.192 70.6539 310.823 71.2096C313.107 73.2243 315.067 75.5792 316.634 78.1912H316.666C316.882 71.5226 317.099 64.8521 317.319 58.1799C317.312 57.8036 317.373 57.4292 317.497 57.0739C317.562 56.8961 317.674 56.7393 317.821 56.6205C317.969 56.5017 318.146 56.4252 318.333 56.3995C319.029 56.3563 319.412 57.1872 319.579 57.867C320.644 62.171 321.214 66.5823 321.279 71.0154C321.597 66.3646 322.067 61.7139 322.682 57.0901C322.811 56.1189 322.973 55.0884 323.631 54.36C323.749 54.2136 323.897 54.0954 324.066 54.0142C324.235 53.9329 324.42 53.8907 324.608 53.8906C325.304 53.9608 325.574 54.824 325.687 55.5092C326.345 60.6311 326.426 65.8106 325.93 70.9507C326.768 66.5696 327.608 62.1886 328.449 57.8076C328.463 57.5722 328.524 57.342 328.629 57.1306C328.734 56.9193 328.88 56.7312 329.059 56.5775C329.701 56.1728 330.537 56.7555 330.904 57.4192C331.535 58.5953 331.444 60.0143 331.32 61.3416C330.852 65.1294 330.183 68.8898 329.318 72.607C330.289 69.9309 331.298 67.2692 332.345 64.6219C332.555 64.0824 332.884 63.4727 333.424 63.4026C333.663 63.3924 333.899 63.4621 334.095 63.6008C334.29 63.7395 334.434 63.9393 334.503 64.1687C334.646 64.62 334.683 65.0982 334.611 65.5661Z" fill="#E88846"/>
<path d="M233.501 191.105L230.858 215.006C228.505 214.305 226.142 211.03 225.43 209.136C223.935 205.635 224.351 201.761 224.308 198.033C224.491 195.443 223.542 192.335 224.847 190.01C226.822 188.575 229.563 189.94 231.683 190.431C232.321 190.56 232.934 190.787 233.501 191.105Z" fill="#E88846"/>
<path d="M328.502 88.2699L316.212 87.9624H315.526L312.764 98.9743C312.764 98.9743 306.079 83.8673 300.554 77.1771C295.029 70.4869 276.453 70.638 276.453 70.638L251.516 75.7366C251.516 75.7366 234.354 85.842 229.336 89.3382C224.318 92.8344 221.718 93.5681 220.644 112.889C219.57 132.209 221.448 191.925 221.448 191.925C221.448 191.925 225.5 195.513 233.318 192.702L234.888 178.545C234.888 178.545 258.314 189.033 274.382 168.898C274.382 168.898 290.114 168.698 295.127 167.09L294.048 138.608L295.127 117.75C295.127 117.75 305.696 140.017 318.267 139.542C330.838 139.067 329.63 110.191 329.894 88.3293L328.502 88.2699ZM238.028 153.294L238.476 127.704L240.704 140.276L238.028 153.294Z" fill="#AF3737"/>
<path d="M276.451 70.6375C276.451 70.6375 276.154 73.2381 275.502 76.3512C274.746 79.9175 273.516 84.1636 271.725 85.9225L269.567 84.9891L265.596 92.9634L257.886 87.6166L255.879 89.3593C255.879 89.3593 250.154 86.4135 247.543 78.1262C247.543 78.1262 248.082 74.889 252.285 74.7649L252.35 77.0741L262.882 81.9299L271.709 72.7957L270.91 70.3246C272.732 69.7411 274.706 69.8526 276.451 70.6375Z" fill="#F4E9DC"/>
<path d="M329.791 71.5331C326.834 70.5803 323.752 70.0747 320.646 70.0332C320.333 70.0332 320.392 70.508 320.694 70.5134C323.716 70.5507 326.715 71.0418 329.591 71.9701C329.882 72.0672 330.087 71.6302 329.791 71.5331Z" fill="#C4532C"/>
<path d="M326.538 74.954C324.532 76.0674 322.697 77.4628 321.088 79.0976C320.873 79.3188 321.245 79.6372 321.461 79.3998C323.043 77.798 324.848 76.4316 326.818 75.3425C327.088 75.1752 326.802 74.7868 326.538 74.954Z" fill="#C4532C"/>
<path d="M237.246 106.711L236.906 100.533C236.906 100.22 236.41 100.274 236.426 100.587C236.833 107.889 237.239 115.189 237.646 122.487L237.991 128.67C237.991 128.977 238.487 128.923 238.466 128.616C238.063 121.318 237.656 114.016 237.246 106.711Z" fill="#8E2323"/>
<path d="M295.272 116.887C294.049 113.146 292.697 109.452 291.215 105.805C290.794 104.758 290.357 103.717 289.915 102.681C289.791 102.395 289.343 102.568 289.467 102.853C291.013 106.45 292.436 110.116 293.735 113.849C294.107 114.928 294.474 116.007 294.814 117.059C294.921 117.356 295.369 117.178 295.272 116.887Z" fill="#8E2323"/>
<path d="M293.432 116.703L286.779 108.48C286.585 108.238 286.191 108.518 286.391 108.761L293.043 116.989C293.221 117.226 293.61 116.946 293.432 116.703Z" fill="#8E2323"/>
<path d="M312.231 99.5348C311.047 103.887 309.864 108.241 308.681 112.597L307.677 116.293C307.596 116.595 308.071 116.665 308.152 116.368C309.335 112.02 310.519 107.667 311.702 103.312L312.706 99.6104C312.787 99.3136 312.317 99.2327 312.231 99.5348Z" fill="#8E2323"/>
<path d="M285.027 158.107L275.191 168.417C274.981 168.644 275.353 168.957 275.564 168.725L285.399 158.409C285.61 158.187 285.237 157.885 285.027 158.107Z" fill="#8E2323"/>
<path d="M279.123 160.308C275.465 164.543 271.736 168.779 267.291 172.21C263.071 175.447 258.167 177.999 252.826 178.685C249.714 179.105 246.546 178.799 243.573 177.789C243.281 177.686 243.082 178.123 243.373 178.226C248.666 180.093 254.509 179.472 259.618 177.336C264.728 175.199 269.028 171.746 272.88 167.894C275.195 165.579 277.353 163.108 279.495 160.632C279.7 160.378 279.328 160.076 279.123 160.308Z" fill="#8E2323"/>
<path d="M237.548 153.926C236.564 157.225 235.784 160.582 235.212 163.977C234.932 165.65 234.7 167.331 234.516 169.022C234.349 170.608 234.187 172.21 234.165 173.807C234.144 175.404 234.36 177.007 235.32 178.296C235.362 178.338 235.417 178.363 235.475 178.367C235.534 178.371 235.592 178.354 235.639 178.318C235.686 178.283 235.718 178.231 235.73 178.174C235.742 178.116 235.732 178.056 235.703 178.005C234.926 176.836 234.547 175.447 234.624 174.045C234.645 172.466 234.754 170.89 234.948 169.324C235.29 166.021 235.83 162.742 236.566 159.504C236.987 157.663 237.467 155.836 238.007 154.023C238.115 153.726 237.64 153.634 237.548 153.926Z" fill="#8E2323"/>
<path d="M275.628 115.203C270.42 118.952 265.668 123.298 261.471 128.152C260.284 129.522 259.146 130.931 258.056 132.377C257.867 132.625 258.239 132.916 258.428 132.684C262.277 127.586 266.712 122.957 271.641 118.894C273.03 117.753 274.452 116.66 275.909 115.613C276.136 115.419 275.85 115.025 275.628 115.203Z" fill="#8E2323"/>
<path d="M273.345 125.395L264.869 131.211C264.616 131.384 264.896 131.751 265.155 131.599L273.626 125.783C273.885 125.611 273.599 125.222 273.345 125.395Z" fill="#8E2323"/>
<path d="M262.57 82.788C260.95 84.204 259.428 85.729 258.016 87.3524C257.811 87.5844 258.189 87.892 258.388 87.6546C259.774 86.0639 261.265 84.5679 262.85 83.1765C263.082 82.9714 262.802 82.583 262.57 82.788Z" fill="#E2CAB0"/>
<path d="M269.597 84.6654C267.861 83.7281 266.058 82.922 264.202 82.2537C263.91 82.1512 263.711 82.5882 264.002 82.6962C265.859 83.3603 267.663 84.1647 269.397 85.1025C269.694 85.232 269.867 84.7949 269.597 84.6654Z" fill="#E2CAB0"/>
<path d="M269.179 46.3584C268.006 48.7427 265.969 50.5908 263.482 51.5271C261.262 52.3867 258.811 52.4421 256.554 51.6835C254.86 52.3111 253.073 52.6521 251.267 52.6925C249.699 52.73 248.135 52.5318 246.627 52.1044C245.213 51.7476 243.928 50.9996 242.92 49.9462C240.924 47.745 240.967 44.6426 241.463 41.8533C240.104 40.1915 239.073 38.1089 239.526 35.9184C239.709 35.0155 240.165 34.1905 240.832 33.5552C241.529 32.956 242.322 32.4798 243.179 32.1471C244.108 31.7874 245.01 31.3601 245.877 30.8684C246.815 30.2749 247.679 29.5735 248.607 28.9746C250.225 27.9333 252.232 27.2319 254.072 28.1437C254.785 28.4928 255.398 29.0168 255.854 29.6669C256.309 30.3169 256.593 31.0718 256.678 31.8611C258.155 31.0923 259.784 30.6576 261.448 30.5878C263.015 30.5558 264.555 31.0038 265.861 31.8719C270.425 34.9149 271.515 41.5781 269.179 46.3584Z" fill="#36344C"/>
<path d="M269.923 53.7823L270.328 56.043C270.585 57.49 270.568 58.9723 270.279 60.4132C270 61.7801 269.483 63.0875 268.752 64.2763C267.887 65.6893 266.731 66.9028 265.363 67.8367C263.994 68.7706 262.442 69.4037 260.811 69.6943C259.18 69.9849 257.505 69.9264 255.898 69.5226C254.291 69.1187 252.788 68.3788 251.487 67.3516C249.211 65.5756 247.673 63.0191 247.171 60.1758L246.766 57.9098C240.292 59.0644 238.538 50.9929 240.956 48.7053L241.15 48.5381C242.839 47.1407 244.414 48.3223 244.975 48.851C244.031 44.2919 245.601 41.74 245.601 41.74C247.567 42.0178 249.56 42.0576 251.536 41.8587C253.95 41.6211 256.315 41.0209 258.55 40.0782C260.09 39.4036 261.57 38.5986 262.974 37.6719C262.974 37.6719 267.02 41.0224 268.332 44.9286C268.332 44.9286 269.038 42.9701 270.77 42.846C271.252 42.8182 271.734 42.909 272.173 43.1104C275.254 44.4376 276.392 52.6331 269.923 53.7823Z" fill="#E88846"/>
<path d="M271.964 72.5744L262.905 81.9677L251.747 77.4194L251.683 74.6894L251.488 67.3409C252.788 68.3692 254.291 69.1102 255.898 69.5149C257.505 69.9196 259.18 69.9789 260.811 69.6887C262.443 69.3986 263.994 68.7657 265.363 67.8318C266.732 66.8979 267.888 65.6843 268.753 64.271L271.187 70.5458L271.964 72.5744Z" fill="#E88846"/>
<path d="M271.185 70.5562L271.962 72.574L271.18 70.5562H271.185Z" fill="#E88846"/>
<path d="M268.746 64.2817C268.746 64.2817 266.092 76.691 251.681 74.7001L251.492 67.3571C252.792 68.386 254.295 69.1273 255.902 69.5321C257.51 69.9369 259.185 69.9959 260.817 69.7052C262.449 69.4145 264 68.7808 265.369 67.8458C266.738 66.9109 267.893 65.6961 268.757 64.2817H268.746Z" fill="#C4532C"/>
<path d="M260.427 56.7066C259.062 57.1706 257.686 57.6022 256.305 58.0122C256.251 54.8254 256.152 51.6368 256.008 48.4463C256.008 48.1118 255.469 48.1712 255.469 48.5057C255.62 51.804 255.721 55.1006 255.771 58.3953C255.771 58.5787 255.987 58.6489 256.132 58.6057C257.632 58.1633 259.123 57.6921 260.605 57.1921C260.945 57.0842 260.745 56.6094 260.427 56.7066Z" fill="#C4532C"/>
<path d="M263.859 56.9927C263.96 58.0138 263.783 59.0432 263.347 59.9721C262.911 60.9009 262.232 61.6947 261.382 62.2694C261.102 62.4582 261.42 62.8736 261.695 62.6848C262.622 62.0582 263.361 61.1929 263.836 60.1805C264.311 59.1681 264.503 58.0462 264.393 56.9334C264.389 56.8983 264.378 56.8643 264.361 56.8334C264.344 56.8025 264.321 56.7753 264.294 56.7532C264.238 56.7087 264.167 56.6881 264.096 56.696C264.025 56.7039 263.961 56.7395 263.916 56.7952C263.872 56.8508 263.851 56.9219 263.859 56.9927Z" fill="#36344C"/>
<path d="M250.851 59.5336C251.983 59.5336 252.901 58.6156 252.901 57.4833C252.901 56.351 251.983 55.4331 250.851 55.4331C249.719 55.4331 248.801 56.351 248.801 57.4833C248.801 58.6156 249.719 59.5336 250.851 59.5336Z" fill="#C4532C"/>
<path d="M266.718 55.0287C267.85 55.0287 268.768 54.1108 268.768 52.9784C268.768 51.8461 267.85 50.9282 266.718 50.9282C265.586 50.9282 264.668 51.8461 264.668 52.9784C264.668 54.1108 265.586 55.0287 266.718 55.0287Z" fill="#C4532C"/>
<path d="M251.527 53.4894C252.309 53.2674 252.722 52.3042 252.447 51.3382C252.173 50.3721 251.317 49.769 250.534 49.991C249.752 50.2131 249.339 51.1762 249.613 52.1423C249.888 53.1083 250.744 53.7114 251.527 53.4894Z" fill="#36344C"/>
<path d="M262.363 50.8327C263.145 50.6106 263.557 49.6475 263.283 48.6814C263.009 47.7154 262.153 47.1123 261.37 47.3343C260.588 47.5563 260.175 48.5195 260.449 49.4855C260.724 50.4516 261.58 51.0547 262.363 50.8327Z" fill="#36344C"/>
<path d="M251.393 47.2645C251.227 47.0496 250.986 46.9051 250.718 46.8599H250.438C250.254 46.8789 250.078 46.9479 249.931 47.0595L247.864 48.2842C247.755 48.3653 247.663 48.4671 247.594 48.5838C247.525 48.7004 247.479 48.8297 247.459 48.964C247.421 49.2426 247.492 49.5252 247.659 49.7518C247.824 49.9692 248.069 50.1127 248.339 50.151H248.619C248.802 50.13 248.976 50.0591 249.121 49.946L251.193 48.7213C251.303 48.639 251.395 48.5357 251.465 48.4174C251.535 48.299 251.58 48.168 251.599 48.032C251.617 47.8959 251.609 47.7575 251.573 47.6248C251.538 47.4922 251.477 47.3678 251.393 47.2591V47.2645Z" fill="#36344C"/>
<path d="M258.82 45.1553C258.849 44.8862 258.978 44.6377 259.182 44.4593L259.419 44.3082C259.587 44.2296 259.774 44.1979 259.959 44.2165L262.365 44.1733C262.635 44.198 262.885 44.3278 263.061 44.5348C263.24 44.7522 263.327 45.031 263.304 45.3118C263.278 45.5831 263.146 45.8334 262.937 46.0078L262.705 46.1588C262.537 46.2399 262.35 46.2717 262.165 46.2505L259.759 46.2991C259.488 46.272 259.238 46.1404 259.063 45.9322C258.884 45.7149 258.797 45.436 258.82 45.1553Z" fill="#36344C"/>
<path d="M66.972 190.274L59.6289 253H94.0997L101.168 206.838L109.169 253H144.773L134.414 190.274H66.972Z" fill="#AF3737"/>
<path d="M98.9547 206.703L89.9607 204.119C89.6748 204.038 89.6046 204.491 89.8852 204.572L98.8846 207.161C99.1975 207.242 99.2407 206.784 98.9547 206.703Z" fill="#8E2323"/>
<path d="M97.3425 208.402L88.6021 208.942C88.3054 208.942 88.3539 209.417 88.6507 209.4L97.3965 208.861C97.6932 208.845 97.6393 208.386 97.3425 208.402Z" fill="#8E2323"/>
<path d="M82.5457 78.6069C82.5457 78.6069 77.6899 78.6446 75.1379 82.4969C75.1379 82.4969 61.9517 85.4319 59.2325 90.1636C56.5132 94.8954 39.9766 121.807 39.9766 121.807L54.2202 149.744C54.2202 149.744 61.0723 148.077 60.3224 140.853L64.8436 135.204L67.8542 153.872L65.1566 196.322C65.1566 196.322 74.7441 204.955 80.803 205.699C86.862 206.444 101.732 196.236 101.732 196.236C101.732 196.236 116.256 205.737 121.656 206.282C127.057 206.827 135.97 195.734 135.97 195.734L131.244 145.374L132.123 116.617L147.317 124.17C147.317 124.17 152.55 132.733 161.884 127.132L158.356 104.202C158.356 104.202 134.708 87.2232 129.183 83.4788C123.658 79.7345 105.319 80.0906 105.319 80.0906C105.319 80.0906 102.196 77.0746 98.9421 77.5763L82.5457 78.6069Z" fill="#F2B34E"/>
<path d="M90.6167 100.917C88.9495 98.4834 87.2608 96.0178 85.0918 93.9945C83.1765 92.2141 80.8079 90.7088 78.1966 90.2556C76.8943 89.9872 75.5396 90.1639 74.3497 90.7573C74.0727 88.5623 74.3644 86.3328 75.1968 84.2829C75.3101 84.0078 74.8893 83.8189 74.776 84.0941C73.8648 86.3239 73.5721 88.7582 73.9289 91.1404C73.9349 91.18 73.9507 91.2174 73.975 91.2492C73.9993 91.2809 74.0312 91.3061 74.0678 91.3222C74.1044 91.3384 74.1445 91.345 74.1844 91.3415C74.2242 91.338 74.2625 91.3245 74.2958 91.3023C76.4539 89.8725 79.4321 90.8005 81.5255 91.9443C83.8468 93.3045 85.8662 95.1238 87.4604 97.2911C88.4477 98.5482 89.3488 99.8646 90.2498 101.181C90.4116 101.435 90.7839 101.165 90.6167 100.917Z" fill="#EA8C11"/>
<path d="M107.235 82.2809C107.116 82.0057 106.696 82.173 106.804 82.4482C107.671 84.4996 108.296 86.6453 108.665 88.8416C103.642 89.3812 99.7896 93.1579 97.0002 97.1019C96.1262 98.3374 95.3169 99.6161 94.5076 100.879C94.3511 101.132 94.7072 101.418 94.8691 101.175C97.5182 96.967 100.41 92.4835 105.082 90.3146C106.303 89.7332 107.616 89.3681 108.962 89.2355C109.023 89.2274 109.078 89.1958 109.117 89.1475C109.155 89.0992 109.173 89.0379 109.167 88.9765C108.792 86.6757 108.144 84.4278 107.235 82.2809Z" fill="#EA8C11"/>
<path d="M59.7121 139.855C57.1126 133.907 53.1433 128.658 48.1283 124.537C48.0804 124.498 48.0188 124.479 47.957 124.485C47.8953 124.492 47.8385 124.522 47.7992 124.57C47.7598 124.618 47.7411 124.679 47.7472 124.741C47.7533 124.803 47.7836 124.86 47.8316 124.899C52.7978 128.95 56.7232 134.129 59.2805 140.006C59.3992 140.297 59.8146 140.13 59.7121 139.855Z" fill="#EA8C11"/>
<path d="M147.22 104.051C147.285 103.76 146.826 103.69 146.767 103.976C145.741 108.787 145.429 113.722 145.839 118.624C145.957 120.032 146.135 121.424 146.378 122.816C146.427 123.107 146.891 123.059 146.837 122.762C146.014 117.917 145.912 112.978 146.535 108.103C146.68 106.743 146.923 105.389 147.22 104.051Z" fill="#EA8C11"/>
<path d="M98.5863 160.2L95.9966 124.904C95.5146 118.3 95.0308 111.696 94.5452 105.092C94.5452 104.796 94.0651 104.844 94.0866 105.141C94.9499 116.91 95.8113 128.677 96.671 140.443L99.2608 175.744L100.712 195.556C100.712 195.853 101.192 195.799 101.171 195.502C100.307 183.74 99.446 171.973 98.5863 160.2Z" fill="#EA8C11"/>
<path d="M62.9277 116.164L62.2156 111.254C62.2084 111.192 62.1771 111.136 62.1285 111.098C62.08 111.059 62.0181 111.042 61.9566 111.049C61.8951 111.056 61.8389 111.087 61.8004 111.136C61.762 111.185 61.7444 111.246 61.7516 111.308C62.5932 117.092 63.4331 122.876 64.2712 128.659C64.514 130.278 64.7514 131.934 64.9888 133.569C65.0319 133.86 65.4905 133.812 65.4474 133.515C64.6057 127.731 63.7658 121.948 62.9277 116.164Z" fill="#EA8C11"/>
<path d="M63.5386 132.587L60.7061 121.894C60.6306 121.608 60.1989 121.78 60.2745 122.066L63.107 132.771C63.1825 133.04 63.5926 132.873 63.5386 132.587Z" fill="#EA8C11"/>
<path d="M132.734 99.3089C132.508 103.474 132.283 107.641 132.06 111.81L131.871 115.371C131.871 115.662 132.308 115.738 132.324 115.441C132.551 111.272 132.776 107.103 132.999 102.935L133.193 99.3791C133.193 99.0877 132.751 99.0122 132.734 99.3089Z" fill="#EA8C11"/>
<path d="M101.814 83.4143L92.1506 102.81L80.2539 84.7631L80.6262 80.517L81.2952 72.9635C82.5048 74.1663 83.9555 75.0992 85.5518 75.7007C87.1481 76.3022 88.8537 76.5586 90.5563 76.4531C92.2589 76.3476 93.9198 75.8825 95.4296 75.0885C96.9394 74.2945 98.2638 73.1897 99.3156 71.8467L101.814 83.4143Z" fill="#D36D29"/>
<path d="M99.3179 71.8628C99.3179 71.8628 95.3416 81.9952 80.8281 78.2509L81.2975 72.9796C82.5071 74.1825 83.9578 75.1153 85.5541 75.7168C87.1504 76.3183 88.856 76.5747 90.5586 76.4692C92.2612 76.3637 93.9221 75.8986 95.4319 75.1046C96.9417 74.3106 98.2661 73.2058 99.3179 71.8628Z" fill="#AA3617"/>
<path d="M101.049 62.9281L101.19 65.1294C101.357 67.8923 100.501 70.62 98.7833 72.7908C97.3688 74.5746 95.4476 75.8885 93.2723 76.5598C91.097 77.231 88.7694 77.2281 86.5958 76.5514C84.4222 75.8747 82.5042 74.556 81.0943 72.7686C79.6844 70.9813 78.8484 68.809 78.6964 66.5376L78.5669 64.3309C72.4972 64.714 71.553 57.3547 73.8029 55.1588C73.8781 55.0861 73.9574 55.0177 74.0403 54.9538C74.105 54.8999 74.1806 54.8567 74.2399 54.8135C75.9988 53.6697 77.3638 54.9646 77.844 55.5257C78.5599 54.8875 79.0665 54.048 79.2976 53.1172C79.5286 52.1863 79.4733 51.2074 79.1389 50.3084C80.1093 50.1997 81.0015 49.7239 81.6324 48.9786C82.2634 48.2332 82.5854 47.2748 82.5325 46.2997C83.2153 46.6473 83.9806 46.8004 84.7446 46.7421C85.1509 46.7152 85.551 46.6279 85.9316 46.4831C86.4776 46.2705 86.9732 45.9461 87.3867 45.5308C87.8001 45.1155 88.1223 44.6184 88.3325 44.0714C89.388 44.9198 90.7079 45.3704 92.0618 45.3448C93.4158 45.3192 94.7177 44.8188 95.7403 43.9312C95.8383 44.9323 96.1892 45.8922 96.76 46.7205C96.9022 46.9392 97.0609 47.1466 97.2348 47.341C97.9466 48.1858 98.8813 48.8139 99.9325 49.1538C99.6469 49.8795 99.5152 50.6566 99.5458 51.4359C99.5765 52.2151 99.7688 52.9795 100.111 53.6805C100.229 53.8154 100.353 53.9449 100.483 54.0744V54.3495C100.531 54.247 101.416 52.5691 103.029 52.6392C103.49 52.6691 103.936 52.8097 104.33 53.0493C104.505 53.1451 104.667 53.265 104.81 53.4054C107.146 55.5635 106.946 62.545 101.049 62.9281Z" fill="#D36D29"/>
<path d="M91.6984 64.703C90.346 64.9871 88.9899 65.2497 87.6303 65.4907C87.9288 62.4549 88.1824 59.4102 88.391 56.3564C88.391 56.0381 87.9163 56.0381 87.8893 56.3564C87.6807 59.5037 87.4181 62.6492 87.1016 65.7929C87.1016 65.9709 87.2742 66.0572 87.4199 66.0356C88.8946 65.7767 90.3657 65.4907 91.8333 65.1778C92.1462 65.0915 92.0113 64.6113 91.6984 64.703Z" fill="#AA3617"/>
<path d="M82.4991 66.3326C83.5837 66.3326 84.463 65.4533 84.463 64.3687C84.463 63.2841 83.5837 62.4048 82.4991 62.4048C81.4144 62.4048 80.5352 63.2841 80.5352 64.3687C80.5352 65.4533 81.4144 66.3326 82.4991 66.3326Z" fill="#AA3617"/>
<path d="M98.0889 63.7862C99.1735 63.7862 100.053 62.9069 100.053 61.8223C100.053 60.7377 99.1735 59.8584 98.0889 59.8584C97.0043 59.8584 96.125 60.7377 96.125 61.8223C96.125 62.9069 97.0043 63.7862 98.0889 63.7862Z" fill="#AA3617"/>
<path d="M83.5801 60.6281C84.3476 60.5024 84.8441 59.633 84.689 58.6861C84.5339 57.7392 83.7861 57.0735 83.0186 57.1992C82.2511 57.3249 81.7546 58.1943 81.9097 59.1412C82.0647 60.0881 82.8126 60.7538 83.5801 60.6281Z" fill="#36344C"/>
<path d="M94.1777 59.2775C94.9452 59.1518 95.4417 58.2824 95.2867 57.3355C95.1316 56.3886 94.3837 55.7229 93.6162 55.8486C92.8487 55.9743 92.3523 56.8438 92.5073 57.7906C92.6624 58.7375 93.4102 59.4032 94.1777 59.2775Z" fill="#36344C"/>
<path d="M84.1275 54.7053C83.9937 54.4828 83.7792 54.3205 83.5287 54.2521L83.2589 54.2144C83.0824 54.2176 82.9097 54.2659 82.7571 54.3546L80.6529 55.2934C80.4842 55.3943 80.3487 55.5424 80.2634 55.7196C80.1781 55.8967 80.1467 56.095 80.1732 56.2899C80.1996 56.4847 80.2827 56.6675 80.4121 56.8155C80.5415 56.9635 80.7116 57.0702 80.9011 57.1224L81.1709 57.1548C81.3473 57.1563 81.5208 57.1096 81.6727 57.0199L83.7768 56.0757C84.0029 55.9447 84.1679 55.7293 84.2354 55.4769C84.303 55.2155 84.2642 54.9381 84.1275 54.7053Z" fill="#36344C"/>
<path d="M91.4262 53.5134C91.4811 53.2571 91.6341 53.0325 91.8524 52.8875L92.0898 52.7742C92.2629 52.7123 92.4501 52.7011 92.6293 52.7418L94.9224 52.963C95.1147 53.0044 95.2907 53.1014 95.4284 53.2419C95.5661 53.3825 95.6594 53.5604 95.6968 53.7536C95.7341 53.9467 95.7139 54.1466 95.6386 54.3284C95.5632 54.5102 95.4361 54.6658 95.273 54.7759L95.0303 54.8946C94.8562 54.9522 94.6697 54.9615 94.4907 54.9215L92.1977 54.7003C91.9425 54.6462 91.7182 54.4954 91.5719 54.2795C91.4259 54.0526 91.3737 53.778 91.4262 53.5134Z" fill="#36344C"/>
<path d="M106.569 50.5404C106.233 51.6195 105.643 52.602 104.848 53.4053C104.705 53.2649 104.544 53.145 104.368 53.0492C103.974 52.8097 103.528 52.669 103.067 52.6392C101.449 52.569 100.569 54.2578 100.521 54.3495V54.0743C100.391 53.9448 100.267 53.8153 100.149 53.6805C99.6359 52.624 99.4625 51.4349 99.6522 50.276C98.6883 50.4102 97.7072 50.2204 96.8628 49.7365C95.9578 49.2212 95.2584 48.4094 94.8827 47.4381C94.3511 47.7384 93.7701 47.9412 93.167 48.0369C92.4726 48.1292 91.7667 48.0812 91.0911 47.8959C90.4155 47.7105 89.784 47.3916 89.2338 46.9579C88.8712 47.2842 88.4687 47.5634 88.0361 47.7888C86.7524 48.4146 85.2786 48.5284 83.914 48.1071C83.6709 48.7996 83.2722 49.4271 82.7486 49.9415C81.8442 50.822 80.6483 51.3403 79.3873 51.3982C79.4532 51.9387 79.424 52.4865 79.301 53.0168C79.0879 53.9882 78.5744 54.8678 77.8335 55.5311C77.3533 54.9915 75.9883 53.6751 74.2294 54.8189C74.1701 54.862 74.0945 54.9052 74.0298 54.9591C73.9469 55.023 73.8676 55.0915 73.7924 55.1642C73.4785 54.9039 73.2332 54.5706 73.078 54.1935C72.9229 53.8163 72.8627 53.4069 72.9026 53.0011C72.9426 52.5952 73.0815 52.2054 73.3071 51.8657C73.5328 51.5261 73.8384 51.247 74.197 51.0529C73.804 50.673 73.5202 50.1946 73.3752 49.6675C73.2302 49.1405 73.2293 48.5842 73.3726 48.0567C73.5159 47.5292 73.7982 47.0498 74.1899 46.6687C74.5817 46.2875 75.0686 46.0184 75.5998 45.8896C75.1628 45.3445 74.9182 44.6702 74.9043 43.9716C74.8903 43.2731 75.1078 42.5896 75.5227 42.0275C75.9377 41.4654 76.5269 41.0562 77.1985 40.8638C77.8702 40.6714 78.5866 40.7065 79.2363 40.9637C79.0282 40.2572 79.0673 39.501 79.347 38.8197C79.6266 38.1384 80.1302 37.5729 80.7747 37.2164C81.4191 36.86 82.1658 36.7339 82.8915 36.859C83.6172 36.9841 84.2786 37.3529 84.7665 37.9045C84.8661 37.1559 85.1969 36.457 85.7129 35.9056C86.2289 35.3541 86.9042 34.9775 87.6445 34.8283C88.3849 34.6792 89.1533 34.765 89.8425 35.0737C90.5318 35.3824 91.1074 35.8986 91.4891 36.5503C91.7768 35.9465 92.2422 35.4451 92.823 35.1133C93.4037 34.7815 94.072 34.6351 94.7383 34.6938C95.4045 34.7525 96.0369 35.0135 96.5507 35.4417C97.0645 35.87 97.435 36.445 97.6128 37.0898C98.6379 36.2373 100.31 36.5503 101.238 37.4729C102.139 38.4731 102.634 39.774 102.625 41.1201C103.104 40.9324 103.63 40.897 104.13 41.0186C104.63 41.1402 105.08 41.4131 105.42 41.7999C105.748 42.1931 105.991 42.6505 106.132 43.143C106.273 43.6354 106.31 44.152 106.24 44.6595C106.093 45.6766 105.725 46.6491 105.161 47.5082C106.326 47.8751 106.833 49.3426 106.569 50.5404Z" fill="#36344C"/>
<path d="M95.9878 69.3485C95.5575 69.923 94.9779 70.3685 94.312 70.6368C93.6462 70.905 92.9196 70.9857 92.2111 70.8699C90.9702 70.6757 89.1574 69.5912 89.6321 68.0752C89.7661 67.7456 89.9763 67.4525 90.2454 67.2199C90.5146 66.9873 90.8351 66.8218 91.1806 66.7371C91.7988 66.5428 92.4616 66.5428 93.0798 66.7371C93.2356 66.154 93.5764 65.6372 94.0509 65.2642C94.3448 65.037 94.7079 64.9179 95.0793 64.9267C95.4506 64.9356 95.8076 65.0719 96.0904 65.3127C97.2396 66.3648 96.7918 68.264 95.9878 69.3485Z" fill="#F4E9DC"/>
<path d="M22.2684 108.831C22.2684 108.831 32.3793 158.69 43.6286 156.175C54.8778 153.661 55.9353 148.082 54.0523 143.475C52.1694 138.867 33.5824 103.808 33.5824 103.808C33.5824 103.808 33.5824 96.8699 31.6995 91.1239C29.8165 85.3779 30.5665 77.8784 29.7518 76.9666C28.9371 76.0548 25.4841 74.8084 25.975 87.4821C25.975 87.4821 11.7368 71.0965 9.55164 73.3841C7.36653 75.6717 17.5907 87.1368 17.5907 87.1368C17.5907 87.1368 3.88654 76.0871 2.58627 78.0025C1.28599 79.9178 13.037 90.088 13.037 90.088C13.037 90.088 3.26069 82.0382 1.83092 83.5866C0.40116 85.1351 11.877 94.3773 11.877 94.3773C11.877 94.3773 0.169162 92.8828 0.13679 94.9168C0.104418 96.9509 11.1864 98.3429 11.1864 98.3429C11.1864 98.3429 16.0314 106.447 22.2684 108.831Z" fill="#D36D29"/>
<path d="M21.058 86.8236C20.2595 87.293 19.4934 87.8056 18.7327 88.3397C18.7292 88.3093 18.716 88.2809 18.6949 88.2588L17.3784 86.7481C17.3427 86.6994 17.289 86.667 17.2293 86.6579C17.1696 86.6488 17.1088 86.6638 17.0601 86.6995C17.0115 86.7353 16.979 86.7889 16.9699 86.8486C16.9608 86.9083 16.9758 86.9692 17.0115 87.0178L18.328 88.5231C18.3475 88.5457 18.3714 88.564 18.3981 88.5771C17.0836 89.5283 15.8328 90.5646 14.6538 91.6794L12.4579 89.3163C12.4415 89.2899 12.4198 89.2673 12.3943 89.2497C12.3687 89.2321 12.3398 89.2199 12.3094 89.2139C12.2789 89.2079 12.2476 89.2083 12.2173 89.2149C12.187 89.2215 12.1584 89.2343 12.1332 89.2524C12.108 89.2706 12.0868 89.2937 12.071 89.3203C12.0551 89.347 12.0449 89.3766 12.0409 89.4074C12.037 89.4381 12.0394 89.4694 12.048 89.4992C12.0566 89.529 12.0712 89.5567 12.091 89.5806L14.2977 91.96L14.3355 91.987C13.9632 92.343 13.6017 92.7045 13.2564 93.066C13.0514 93.2764 13.4075 93.557 13.6017 93.352C15.8802 90.9573 18.4805 88.8909 21.3278 87.2121C21.576 87.0664 21.3062 86.6995 21.058 86.8236Z" fill="#AA3617"/>
<path d="M23.8159 92.8502C23.0829 95.0573 22.6828 97.3612 22.6289 99.6861C22.6289 99.9775 23.0713 99.9235 23.0767 99.6376C23.1243 97.3944 23.5043 95.1707 24.2043 93.0391C24.3176 92.7585 23.9076 92.5751 23.8159 92.8502Z" fill="#AA3617"/>
<path d="M31.099 105.847C29.2988 106.436 27.5366 107.135 25.8224 107.941C25.558 108.065 25.7199 108.48 25.9843 108.362C27.698 107.549 29.4602 106.842 31.2609 106.247C31.5361 106.177 31.3742 105.756 31.099 105.847Z" fill="#AA3617"/>
<path d="M166.743 75.4019C166.743 75.4019 173.368 125.843 161.924 127.116C150.481 128.389 147.665 123.48 147.94 118.484C148.215 113.488 154.414 74.3174 154.414 74.3174C154.414 74.3174 152.159 67.7567 152.078 61.7085C151.997 55.6604 148.841 48.8137 149.321 47.6807C149.801 46.5477 152.661 44.26 156.297 56.4049C156.297 56.4049 164.444 36.2804 167.25 37.7425C170.055 39.2046 164.12 53.3728 164.12 53.3728C164.12 53.3728 173.492 38.4709 175.348 39.8575C177.204 41.2441 169.386 54.6838 169.386 54.6838C169.386 54.6838 176.017 43.8932 177.862 44.8697C179.707 45.8463 171.857 58.3149 171.857 58.3149C171.857 58.3149 182.448 53.103 183.15 55.0399C183.851 56.9768 173.805 61.865 173.805 61.865C173.805 61.865 171.863 71.1234 166.743 75.4019Z" fill="#D36D29"/>
<path d="M160.742 54.2199C161.648 54.4034 162.544 54.6408 163.439 54.8943C163.432 54.8661 163.432 54.8363 163.439 54.808L164.195 52.952C164.213 52.8958 164.253 52.8488 164.305 52.8207C164.357 52.7926 164.418 52.7855 164.475 52.8009C164.532 52.8207 164.579 52.8612 164.607 52.9142C164.635 52.9673 164.642 53.029 164.626 53.0869L163.871 54.9375C163.86 54.9644 163.845 54.9898 163.828 55.013C165.375 55.4729 166.889 56.0371 168.36 56.7018L169.671 53.7505C169.69 53.6943 169.729 53.6473 169.781 53.6192C169.833 53.5911 169.894 53.584 169.952 53.5995C170.009 53.6169 170.057 53.6562 170.085 53.7087C170.113 53.7612 170.12 53.8228 170.103 53.88L168.786 56.8474C168.787 56.86 168.787 56.8726 168.786 56.8852C169.25 57.101 169.709 57.3276 170.162 57.5596C170.421 57.6945 170.162 58.0992 169.925 57.9481C166.994 56.4233 163.865 55.3138 160.628 54.6515C160.326 54.5922 160.461 54.1606 160.742 54.2199Z" fill="#AA3617"/>
<path d="M160.084 60.7911C161.499 62.6376 162.627 64.6876 163.429 66.8716C163.526 67.1468 163.089 67.2439 162.986 66.9741C162.208 64.8663 161.116 62.8875 159.749 61.104C159.582 60.872 159.911 60.5591 160.084 60.7911Z" fill="#AA3617"/>
<path d="M157.42 75.4502C159.31 75.4241 161.2 75.5141 163.08 75.72C163.366 75.7524 163.349 76.2002 163.08 76.1678C161.2 75.9675 159.31 75.8774 157.42 75.898C157.112 75.9034 157.129 75.4502 157.42 75.4502Z" fill="#AA3617"/>
<path d="M205.397 67.1798C204.492 68.2262 203.317 69.004 202 69.4284C200.683 69.8527 199.275 69.9073 197.929 69.5861C195.118 68.8415 192.987 66.7104 190.435 65.4425C189.081 64.768 187.614 64.2285 186.561 63.1009C186.428 62.9633 186.305 62.8154 186.195 62.6585C186.07 62.5028 185.957 62.3387 185.855 62.1675C184.333 59.5022 185.887 56.1463 187.543 53.9234C188.422 52.713 189.531 51.6885 190.807 50.9088C192.083 50.1291 193.5 49.6097 194.978 49.3806C196.38 49.2257 197.799 49.3562 199.149 49.7642C200.499 50.1722 201.752 50.8492 202.834 51.7545C205.141 53.5828 206.746 56.152 207.377 59.0274C207.691 60.4473 207.676 61.9202 207.333 63.3334C206.99 64.7465 206.327 66.0623 205.397 67.1798Z" fill="#AF3737"/>
<path d="M209.53 76.4538C209.53 86.5161 202.823 92.5265 194.299 92.5265C185.774 92.5265 178.652 86.5161 178.652 76.4538C178.652 66.3915 185.564 60.4404 194.094 60.4404C202.624 60.4404 209.53 66.3915 209.53 76.4538Z" fill="#AF3737"/>
<path d="M134.308 45.0048C134.032 47.1629 133.374 49.2563 132.964 51.3983C132.425 54.3549 132.306 57.3925 131.777 60.3599C131.27 63.1979 130.299 66.0628 128.357 68.1778C128.357 68.9061 128.4 69.6291 128.427 70.3359L117.248 67.5681C117.334 66.4207 117.417 65.2715 117.496 64.1205C115.915 60.716 115.338 56.9231 114.167 53.3298C112.834 49.2186 110.735 45.3609 109.716 41.1579C109.637 40.8958 109.612 40.6207 109.64 40.3486C109.657 40.2121 109.711 40.0828 109.797 39.9752C109.882 39.8676 109.996 39.7858 110.126 39.739C110.547 39.6311 110.913 40.0249 111.167 40.381C112.692 42.5453 114.037 44.8317 115.186 47.2169C114.132 43.5051 113.367 39.7169 112.899 35.8867C112.769 35.0872 112.754 34.2732 112.856 33.4696C112.904 33.1459 113.045 32.779 113.363 32.6927C113.516 32.6814 113.668 32.711 113.806 32.7783C113.943 32.8456 114.06 32.9483 114.145 33.0757C114.646 33.72 115.023 34.4518 115.257 35.2339C116.692 39.0807 117.846 43.0247 118.99 46.9687H119.082C118.132 42.0428 117.172 37.0737 116.999 32.0722C116.972 31.784 116.998 31.4934 117.075 31.2143C117.12 31.0776 117.2 30.9554 117.309 30.8605C117.417 30.7656 117.549 30.7015 117.69 30.6748C118.068 30.6263 118.391 30.9446 118.618 31.2521C119.371 32.385 119.919 33.6414 120.237 34.9641C121.073 37.8182 121.704 40.7209 122.265 43.6398C122.066 40.5698 121.877 37.5107 121.796 34.4354C121.715 33.4303 121.81 32.4188 122.076 31.4463C122.211 31.0417 122.524 30.5939 122.94 30.6586C123.269 30.7072 123.479 31.0363 123.598 31.3384C125.314 35.1152 125.594 39.3019 126.247 43.3754C126.677 46.0972 127.284 48.7881 128.065 51.4306C128.81 48.7779 130.017 46.2775 131.631 44.0444C131.86 43.6971 132.148 43.3937 132.484 43.1488C132.653 43.0292 132.848 42.9529 133.053 42.9266C133.258 42.9003 133.467 42.9247 133.66 42.9977C134.345 43.2999 134.405 44.2495 134.308 45.0048Z" fill="#F99958"/>
<path d="M124.267 43.6077C123.727 43.8343 123.188 44.0825 122.648 44.3468C122.589 43.9314 122.529 43.5105 122.475 43.0951C122.475 43.0612 122.467 43.0278 122.453 42.997C122.439 42.9661 122.419 42.9386 122.393 42.9162C122.368 42.8938 122.338 42.8769 122.306 42.8667C122.273 42.8565 122.239 42.8532 122.206 42.857C122.172 42.8608 122.139 42.8716 122.11 42.8887C122.081 42.9058 122.055 42.9289 122.036 42.9564C122.016 42.9839 122.002 43.0153 121.995 43.0484C121.988 43.0816 121.988 43.1159 121.995 43.1491C122.06 43.5915 122.119 44.0393 122.179 44.4871C122.176 44.514 122.176 44.5411 122.179 44.568C120.275 45.5569 118.508 46.7903 116.924 48.2369C116.697 48.4419 116.978 48.8357 117.204 48.6253C119.324 46.6907 121.768 45.1439 124.423 44.0555C124.725 43.9368 124.553 43.489 124.267 43.6077Z" fill="#D36D29"/>
<path d="M115.441 46.9257C115.402 46.8745 115.345 46.8403 115.282 46.8302C115.218 46.8202 115.154 46.835 115.101 46.8717C115.052 46.912 115.019 46.9693 115.01 47.0322C115.001 47.0952 115.016 47.1592 115.052 47.2116C115.063 47.2343 115.076 47.256 115.09 47.2764C115.09 47.3141 115.128 47.3573 115.149 47.4005C115.186 47.481 115.216 47.5639 115.241 47.6487L115.274 47.7674V47.8051C115.274 47.8051 115.274 47.8429 115.274 47.8645C115.29 47.9573 115.301 48.0509 115.306 48.145C115.315 48.208 115.349 48.265 115.399 48.3041C115.449 48.3433 115.512 48.3617 115.576 48.3554C115.638 48.3461 115.694 48.3136 115.733 48.2646C115.772 48.2156 115.791 48.1536 115.786 48.0911C115.763 47.6811 115.645 47.2821 115.441 46.9257Z" fill="#D36D29"/>
<path d="M125.373 56.7719C123.788 54.584 121.767 52.7472 119.439 51.3766C119.169 51.2201 118.975 51.6571 119.239 51.8136C121.485 53.1445 123.431 54.9243 124.958 57.0417C124.994 57.0968 125.05 57.1354 125.114 57.149C125.178 57.1627 125.246 57.1503 125.301 57.1145C125.356 57.0787 125.394 57.0225 125.408 56.9583C125.422 56.894 125.409 56.827 125.373 56.7719Z" fill="#D36D29"/>
<path d="M242.502 231.678C242.502 232.218 242.502 232.757 242.47 233.297C242.507 233.77 242.388 234.242 242.13 234.64C242.018 234.79 241.863 234.903 241.686 234.965C241.509 235.026 241.318 235.034 241.137 234.986C240.973 234.92 240.824 234.82 240.702 234.692C240.579 234.565 240.484 234.413 240.425 234.246C240.231 233.767 240.068 233.275 239.939 232.774C239.772 232.234 239.621 231.694 239.475 231.155C239.33 230.615 239.222 230.168 239.103 229.671C239.038 230.68 238.957 231.694 238.806 232.698C238.618 234.088 238.255 235.45 237.727 236.75C237.533 237.219 237.279 237.802 236.74 237.953C236.525 238.011 236.296 237.988 236.097 237.889C235.898 237.789 235.743 237.62 235.661 237.413C235.46 236.909 235.386 236.362 235.445 235.822C235.445 235.023 235.477 234.203 235.488 233.421L235.52 231.597C235.439 231.948 235.348 232.293 235.256 232.633C234.972 233.699 234.623 234.746 234.209 235.768C233.907 236.507 233.13 237.44 232.245 236.939C232.085 236.835 231.95 236.697 231.85 236.535C231.751 236.372 231.688 236.19 231.668 236C231.586 235.454 231.556 234.901 231.576 234.349C231.579 233.628 231.621 232.907 231.701 232.191C231.42 232.676 231.123 233.157 230.799 233.615C230.591 233.993 230.278 234.302 229.898 234.505C229.739 234.57 229.563 234.577 229.399 234.525C229.235 234.472 229.095 234.364 229.003 234.219C228.871 233.96 228.826 233.665 228.873 233.378C228.917 232.935 229.051 232.498 229.138 232.067C229.348 231.085 229.553 230.108 229.758 229.126C229.963 228.144 230.184 227.13 230.395 226.126C230.637 225.173 230.817 224.206 230.934 223.229C230.982 222.345 230.882 221.458 230.638 220.607C230.309 220.067 229.99 219.485 229.71 218.897C228.415 216.145 227.87 212.908 228.938 209.994C229.614 208.107 231 206.558 232.801 205.678C232.931 205.592 233.055 205.505 233.184 205.435C233.951 204.99 234.839 204.801 235.72 204.896C236.587 205.02 237.386 205.434 237.986 206.072C239.394 207.513 239.745 209.574 240.144 211.467C240.603 213.696 241.029 215.929 241.385 218.179C242.127 222.641 242.5 227.156 242.502 231.678Z" fill="#F99958"/>
<path d="M235.363 221.034C235.26 223.316 235.174 225.668 234.489 227.864C234.348 228.312 234.073 228.986 233.496 228.943C233.01 228.9 232.859 228.258 232.768 227.864C232.556 226.718 232.417 225.559 232.352 224.395C232.272 223.238 231.954 222.11 231.419 221.082C231.268 220.818 230.879 221.082 231.03 221.368C231.574 222.464 231.876 223.663 231.915 224.886C232.023 226.078 232.028 227.373 232.455 228.506C232.511 228.707 232.615 228.891 232.756 229.044C232.898 229.197 233.074 229.314 233.269 229.386C233.504 229.436 233.748 229.416 233.972 229.329C234.195 229.242 234.388 229.091 234.527 228.895C234.83 228.42 235.035 227.89 235.131 227.335C235.285 226.709 235.408 226.075 235.498 225.436C235.703 224.006 235.767 222.56 235.832 221.12C235.854 220.807 235.379 220.726 235.363 221.034Z" fill="#D36D29"/>
<path d="M232.139 229.498C231.993 230.367 231.853 231.236 231.707 232.099C231.706 232.157 231.726 232.214 231.764 232.259C231.801 232.304 231.854 232.334 231.912 232.343C231.969 232.352 232.029 232.34 232.078 232.309C232.128 232.278 232.165 232.23 232.182 232.175C232.328 231.311 232.468 230.443 232.613 229.574C232.614 229.516 232.594 229.459 232.557 229.414C232.519 229.369 232.467 229.339 232.409 229.33C232.351 229.321 232.292 229.333 232.242 229.364C232.193 229.395 232.156 229.443 232.139 229.498Z" fill="#D36D29"/>
<path d="M235.535 227.453L235.309 231.532C235.309 231.84 235.767 231.921 235.783 231.608L236.01 227.529C236.026 227.227 235.551 227.146 235.535 227.453Z" fill="#D36D29"/>
<path d="M238.845 223.688C238.78 223.386 238.305 223.44 238.364 223.742C238.786 225.811 239.005 227.916 239.017 230.027C239.017 230.335 239.498 230.281 239.498 229.973C239.483 227.862 239.264 225.757 238.845 223.688Z" fill="#D36D29"/>
<path d="M190.122 178.652L157.097 177.034C157.097 177.034 145.594 176.51 144.262 253H175.269L184.872 210.21L190.106 253H218.329C218.329 253 225.294 185.337 208.72 178.383L190.122 178.652Z" fill="#36344C"/>
<path d="M211.592 181.194C178.292 190.905 161.043 179.187 161.043 179.187L165.926 151.239L170.075 110.984L204.707 112.603L208.722 158.463C208.414 158.485 211.592 181.194 211.592 181.194Z" fill="#F4E9DC"/>
<path d="M197.748 138.738C197.708 140.587 197.562 142.431 197.311 144.263C197.079 146.097 196.836 147.926 196.545 149.75C196.006 153.279 195.218 156.937 193.518 160.109C192.86 161.334 191.9 162.575 190.481 162.877C188.905 163.211 187.486 162.175 186.423 161.15C185.042 159.807 183.758 158.356 182.431 156.958C181.19 155.719 180.013 154.419 178.902 153.063C177.873 151.818 177.151 150.349 176.793 148.773C176.519 147.089 176.744 145.362 177.44 143.804C178.139 142.205 179.03 140.698 180.095 139.315C181.078 137.957 182.146 136.663 183.294 135.442C183.704 135.01 184.125 134.595 184.557 134.179C185.274 133.424 186.03 132.685 186.823 132.021C188.058 130.892 189.411 129.899 190.858 129.059C191.562 128.633 192.379 128.43 193.2 128.476C193.888 128.559 194.532 128.858 195.04 129.329C196.189 130.365 196.761 131.897 197.144 133.354C197.58 135.114 197.783 136.925 197.748 138.738Z" fill="#F2B34E"/>
<path d="M200.549 154.492C201.218 159.208 195.909 161.35 192.208 159.348C188.27 155.42 186.78 139.186 196.141 142.892C200.323 145.034 200.808 150.316 200.549 154.492Z" fill="#D36D29"/>
<path d="M180.668 139.126C178.544 140.277 176.098 140.684 173.716 140.284C171.335 139.885 169.156 138.7 167.525 136.92C167.32 136.693 166.931 136.974 167.136 137.2C168.832 139.063 171.099 140.307 173.581 140.737C176.063 141.167 178.617 140.758 180.84 139.574C181.099 139.429 180.927 138.981 180.668 139.126Z" fill="#E2CAB0"/>
<path d="M208.06 140.778C205.754 142.136 203.08 142.739 200.414 142.501C197.749 142.263 195.224 141.196 193.195 139.45C192.958 139.245 192.656 139.623 192.888 139.823C194.527 141.22 196.479 142.201 198.578 142.683C200.678 143.165 202.862 143.133 204.946 142.59C206.144 142.276 207.292 141.794 208.356 141.161C208.605 141.004 208.324 140.616 208.06 140.778Z" fill="#E2CAB0"/>
<path d="M204.565 86.662L204.441 88.7716C204.394 89.5612 204.258 90.343 204.037 91.1023C203.335 93.5241 201.808 95.6239 199.72 97.0372C197.597 98.496 195.021 99.1443 192.461 98.8641C189.9 98.5839 187.525 97.3938 185.768 95.5103C184.756 94.4435 183.972 93.181 183.466 91.8005C182.959 90.4199 182.74 88.9504 182.822 87.4821L182.946 85.3833C176.92 85.0218 177.076 77.4144 179.736 75.8875C181.786 74.7167 183.038 76.4702 183.356 76.9989C184.812 76.9392 186.259 76.7313 187.673 76.3785C190.98 75.6572 194.044 74.09 196.564 71.8302C197.033 71.3933 197.472 70.9265 197.881 70.4328C198.534 69.6441 199.105 68.7908 199.586 67.8862C200.923 68.9219 202.066 70.1859 202.963 71.6198C203.588 72.5811 204.083 73.6206 204.436 74.7113C204.83 75.9048 205.045 77.1504 205.073 78.4071C205.224 78.1859 206.783 76.0656 208.892 77.6302C209.204 77.8701 209.458 78.1759 209.637 78.5258C209.761 78.7553 209.864 78.9955 209.945 79.2434C210.878 82.0975 209.421 86.9479 204.565 86.662Z" fill="#F99958"/>
<path d="M213.689 108.227C213.197 109.347 212.574 110.405 211.833 111.378C202.731 123.841 184.393 124.688 173.888 113.38C171.32 110.612 169.162 107.984 168.066 106.042C172.809 105.071 184.366 102.805 184.366 102.805L184.582 101.693L185.272 98.0407L185.758 95.5103C187.51 97.4009 189.884 98.599 192.446 98.8862C195.008 99.1734 197.588 98.5306 199.715 97.0749L199.91 99.956L200.158 103.425C200.962 103.512 213.689 108.178 213.689 108.227Z" fill="#F99958"/>
<path d="M194.828 87.5683C193.565 87.5683 192.303 87.5143 191.051 87.455C191.925 84.8077 192.763 82.1442 193.565 79.4645C193.652 79.1786 193.204 79.0814 193.118 79.362C192.29 82.1316 191.424 84.885 190.517 87.6222C190.469 87.7787 190.62 87.892 190.754 87.9028C192.118 87.9675 193.486 88.0089 194.86 88.0269C195.146 88.0269 195.119 87.5683 194.828 87.5683Z" fill="#D36D29"/>
<path d="M186.679 87.2393C187.672 87.2393 188.476 86.4349 188.476 85.4426C188.476 84.4504 187.672 83.646 186.679 83.646C185.687 83.646 184.883 84.4504 184.883 85.4426C184.883 86.4349 185.687 87.2393 186.679 87.2393Z" fill="#D36D29"/>
<path d="M201.097 88.0972C202.09 88.0972 202.894 87.2928 202.894 86.3006C202.894 85.3083 202.09 84.5039 201.097 84.5039C200.105 84.5039 199.301 85.3083 199.301 86.3006C199.301 87.2928 200.105 88.0972 201.097 88.0972Z" fill="#D36D29"/>
<path d="M189.766 80.8097C189.819 79.9322 189.285 79.1867 188.574 79.1444C187.863 79.1022 187.244 79.7793 187.192 80.6568C187.14 81.5343 187.674 82.2798 188.385 82.3221C189.096 82.3643 189.714 81.6872 189.766 80.8097Z" fill="#36344C"/>
<path d="M199.485 81.7394C199.537 80.8619 199.003 80.1164 198.292 80.0741C197.581 80.0319 196.963 80.709 196.911 81.5865C196.859 82.464 197.393 83.2095 198.104 83.2518C198.815 83.294 199.433 82.6169 199.485 81.7394Z" fill="#36344C"/>
<path d="M190.08 77.1552C190.009 76.9241 189.85 76.7302 189.637 76.6157L189.405 76.5294C189.25 76.4889 189.086 76.4889 188.93 76.5294L186.864 76.9448C186.632 77.0172 186.438 77.1782 186.325 77.3926C186.214 77.6115 186.192 77.865 186.265 78.0994C186.337 78.3297 186.496 78.523 186.708 78.6389L186.94 78.7199C187.095 78.7631 187.259 78.7631 187.414 78.7199L189.481 78.3044C189.711 78.2322 189.904 78.0737 190.02 77.862C190.131 77.6431 190.153 77.3896 190.08 77.1552Z" fill="#36344C"/>
<path d="M196.851 77.5545C196.95 77.3386 197.13 77.1702 197.352 77.0851L197.59 77.0258C197.753 77.0089 197.917 77.0369 198.065 77.1067L200.061 77.7649C200.278 77.8644 200.448 78.0443 200.536 78.2667C200.628 78.4952 200.628 78.7504 200.536 78.9789C200.432 79.1942 200.251 79.362 200.029 79.4483L199.791 79.5022C199.631 79.5182 199.469 79.4922 199.322 79.4267L197.32 78.7685C197.103 78.669 196.933 78.4891 196.845 78.2667C196.753 78.0379 196.755 77.7819 196.851 77.5545Z" fill="#36344C"/>
<path d="M199.716 97.0752C199.716 97.0752 197.364 103.803 184.609 101.731L185.305 98.0788L185.786 95.5483C187.542 97.4262 189.912 98.6128 192.468 98.8929C195.024 99.173 197.595 98.5282 199.716 97.0752Z" fill="#D36D29"/>
<path d="M198.122 88.8147C197.668 89.4518 197.07 89.9739 196.378 90.3392C195.686 90.7046 194.918 90.903 194.135 90.9189C193.828 90.9189 193.882 91.4044 194.189 91.399C195.035 91.3778 195.865 91.1613 196.614 90.7663C197.363 90.3714 198.01 89.8087 198.505 89.1222C198.673 88.8686 198.3 88.5665 198.122 88.8147Z" fill="#36344C"/>
<path d="M184.889 100.14L184.35 102.838L179.624 103.771L163.286 211.948C143.734 210.545 135.436 198.842 135.436 198.842L143.194 135.463C143.194 135.463 113.018 112.862 109.937 102.876C106.857 92.8888 114.842 64.7036 114.842 64.7036L117.243 65.3025L128.422 68.0649L129.949 68.4803V91.567L170.872 101.931C175.283 100.025 180.142 99.4044 184.889 100.14Z" fill="#6BB2AB"/>
<path d="M199.91 99.9458C201.887 99.987 203.831 100.458 205.607 101.325C207.384 102.192 208.951 103.436 210.199 104.969C210.199 104.969 222.355 107.667 224.632 115.668C226.908 123.669 239.199 204.194 239.199 204.194C239.199 204.194 237.996 212.552 228.101 213.55L222.484 205.128L222.754 209.007C222.754 209.007 215.395 216.426 206.568 215.293L200.153 103.415L199.91 99.9458Z" fill="#6BB2AB"/>
<path d="M171.154 125.757C170.715 121.01 170.515 116.243 170.555 111.476C170.577 108.76 170.678 106.05 170.858 103.345C170.858 103.038 170.404 102.962 170.383 103.27C169.746 112.848 170.083 122.467 171.386 131.978C171.746 134.651 172.188 137.311 172.714 139.958C172.773 140.26 173.253 140.206 173.194 139.904C172.277 135.226 171.597 130.504 171.154 125.757Z" fill="#389688"/>
<path d="M210.542 105.978C209.704 114.677 207.964 123.265 205.352 131.606C204.613 133.952 203.809 136.283 202.935 138.582C202.827 138.873 203.264 139.073 203.377 138.781C206.48 130.591 208.727 122.102 210.084 113.45C210.467 111.001 210.78 108.535 211.017 106.069C211.05 105.746 210.575 105.67 210.542 105.978Z" fill="#389688"/>
<path d="M142.016 118.527C141.86 117.076 141.709 115.625 141.574 114.168C141.561 114.109 141.527 114.057 141.478 114.022C141.43 113.987 141.369 113.971 141.309 113.978C141.25 113.984 141.194 114.013 141.154 114.058C141.115 114.103 141.093 114.162 141.094 114.222C141.572 119.369 142.214 124.498 143.02 129.609C143.247 131.048 143.486 132.487 143.737 133.926C143.791 134.228 144.277 134.174 144.218 133.872C143.336 128.764 142.603 123.649 142.016 118.527Z" fill="#389688"/>
<path d="M142.057 130.462C140.697 126.505 139.335 122.549 137.972 118.592C137.87 118.301 137.433 118.474 137.519 118.765C138.886 122.721 140.249 126.678 141.609 130.635C141.711 130.931 142.159 130.753 142.057 130.462Z" fill="#389688"/>
<path d="M220.833 178.47C220.315 170.438 219.715 162.413 219.031 154.396C218.632 149.853 218.217 145.314 217.785 140.778C217.772 140.719 217.738 140.667 217.689 140.632C217.64 140.596 217.58 140.581 217.52 140.587C217.461 140.594 217.405 140.623 217.365 140.668C217.326 140.713 217.304 140.772 217.305 140.832C218.092 148.875 218.794 156.932 219.409 165.003C220.024 173.074 220.549 181.103 220.984 189.088C221.236 193.641 221.459 198.193 221.653 202.743C221.653 203.056 222.144 203.002 222.134 202.689C221.785 194.618 221.351 186.545 220.833 178.47Z" fill="#389688"/>
<path d="M162.265 179.311C158.742 186.935 152.979 193.304 145.744 197.569C145.475 197.731 145.744 198.109 146.025 197.963C153.324 193.641 159.141 187.207 162.707 179.511C162.731 179.453 162.732 179.387 162.709 179.328C162.686 179.27 162.64 179.222 162.583 179.196C162.525 179.17 162.46 179.168 162.401 179.189C162.341 179.211 162.292 179.255 162.265 179.311Z" fill="#389688"/>
<path d="M218.434 203.299C214.592 198.759 211.716 193.485 209.979 187.798C209.489 186.192 209.095 184.558 208.798 182.904C208.744 182.602 208.258 182.651 208.318 182.958C209.681 190.568 213.031 197.682 218.029 203.579C218.267 203.817 218.66 203.536 218.434 203.299Z" fill="#389688"/>
<path d="M168.217 121.176C164.498 127.464 161.881 134.342 160.48 141.511C160.302 142.423 161.727 142.65 161.905 141.738C163.291 134.699 165.87 127.947 169.528 121.775C170.003 120.977 168.681 120.389 168.217 121.176Z" fill="#F4E9DC"/>
<path d="M210.118 126.891C209.859 125.995 208.5 126.524 208.775 127.43C210.688 134.037 211.28 140.956 210.518 147.792C210.415 148.709 211.839 148.941 211.947 148.019C212.735 140.924 212.113 133.744 210.118 126.891Z" fill="#F4E9DC"/>
<path d="M171.251 139.828C170.24 149.04 169.161 158.239 168.014 167.425C166.866 176.612 165.636 185.748 164.323 194.834C163.604 199.948 162.85 205.059 162.063 210.167C162.062 210.226 162.082 210.282 162.119 210.327C162.157 210.372 162.209 210.402 162.267 210.411C162.325 210.42 162.384 210.408 162.434 210.377C162.483 210.346 162.52 210.298 162.537 210.243C163.929 201.081 165.248 191.909 166.492 182.726C167.737 173.544 168.9 164.4 169.983 155.297C170.591 150.167 171.177 145.033 171.742 139.893C171.763 139.596 171.289 139.521 171.251 139.828Z" fill="#F4E9DC"/>
<path d="M206.119 184.48C205.497 174.866 205.098 165.24 204.921 155.604C204.817 150.177 204.788 144.747 204.835 139.316C204.835 139.008 204.36 139.062 204.355 139.37C204.279 149.006 204.429 158.638 204.803 168.267C205.177 177.896 205.772 187.512 206.589 197.116C207.045 202.511 207.585 207.907 208.207 213.302C208.214 213.365 208.246 213.422 208.296 213.462C208.345 213.501 208.409 213.52 208.472 213.512C208.535 213.505 208.592 213.473 208.632 213.424C208.671 213.374 208.689 213.311 208.682 213.248C207.599 203.684 206.745 194.095 206.119 184.48Z" fill="#F4E9DC"/>
</svg>
