<svg xmlns="http://www.w3.org/2000/svg" width="70" height="75" viewBox="0 0 70 75" fill="none">
  <path d="M37.9353 50.4233L21.6172 37.4206L37.043 16.8955L57.822 20.7207L37.9353 50.4233Z" fill="#F7DC64"/>
  <path d="M39.5621 32.7819L36.8672 31.2985L39.2385 29.2268L62.944 27.0692C63.1317 27.0516 63.321 27.0713 63.501 27.1271C63.6811 27.1829 63.8483 27.2738 63.9932 27.3944C64.138 27.5151 64.2575 27.6631 64.3449 27.8301C64.4324 27.9971 64.4859 28.1798 64.5025 28.3675L64.566 29.0659C64.6003 29.4446 64.4828 29.8215 64.2394 30.1138C63.996 30.406 63.6465 30.5896 63.2677 30.6243L39.5621 32.7819Z" fill="#C63539"/>
  <path d="M54.1008 34.478L51.3361 33.6259L48.1538 30.0171C47.8704 29.6953 47.4771 29.4907 47.0509 29.4432C46.6247 29.3958 46.196 29.5089 45.8487 29.7605C45.6517 29.9039 45.4872 30.0874 45.3662 30.2989C45.2453 30.5105 45.1705 30.7453 45.1468 30.9878C45.1232 31.2303 45.1512 31.4752 45.229 31.7061C45.3068 31.937 45.4327 32.1488 45.5984 32.3276L49.8456 36.412L50.0539 40.6253L55.1317 43.618" stroke="black" stroke-miterlimit="10"/>
  <path d="M56.3128 30.6904L52.8516 34.2187" stroke="black" stroke-miterlimit="10"/>
  <path d="M61.3356 30.8506L62.1502 32.08L58.1328 42.8607" stroke="black" stroke-miterlimit="10"/>
  <path d="M48.7871 28.4402L53.4796 25.9697L57.5819 26.4088L58.6987 27.4379" stroke="black" stroke-miterlimit="10"/>
  <path d="M25.5675 33.009C25.5675 33.009 27.3442 32.2043 29.9282 31.2332C32.5123 30.2622 31.7845 27.4385 31.7845 27.4385L26.8595 29.3761L21.5313 30.9104L19.3496 37.0487" stroke="black" stroke-miterlimit="10"/>
  <path d="M24.1127 32.7666C24.1127 32.7666 27.5042 36.0749 22.7402 41.6481" stroke="black" stroke-miterlimit="10"/>
  <path d="M8.4668 25.4451L18.1102 1.04567C18.1102 1.04567 32.8153 -0.403735 29.4774 13.0272L31.6484 16.0521L27.4459 17.109L19.8457 43.5685" stroke="black" stroke-miterlimit="10"/>
  <path d="M23.442 33.8295C23.442 33.8295 16.4525 20.3047 8.25498 29.6718C0.0574557 39.0388 7.60315 60.1898 14.3611 72.0417C21.119 83.8936 34.44 44.8865 36.298 51.9485C38.1561 59.0105 30.1696 73.4974 41.6128 66.9701C53.0561 60.4429 68.6277 52.291 68.8449 51.0865C69.0622 49.8821 60.4981 53.8584 59.8141 54.2491C59.13 54.6399 72.3473 47.1031 67.5994 48.9075C62.8515 50.7119 57.3838 53.4677 57.3838 53.4677C57.3838 53.4677 72.1157 45.4293 68.3988 46.8259C64.6818 48.2226 57.3659 51.8528 57.3659 51.8528C57.3659 51.8528 70.4428 45.6609 67.0379 46.3386C63.633 47.0164 55.9853 51.015 55.9853 51.015C55.9853 51.015 68.5928 44.0058 65.3283 44.6058C62.0637 45.2058 54.4707 48.9871 54.4707 48.9871C54.4707 48.9871 43.7069 56.3879 44.8389 52.6737C45.9709 48.9594 48.8626 33.7714 21.0243 39.7166C-6.81405 45.6618 0.347159 21.1828 7.32775 22.9782" stroke="black" stroke-miterlimit="10"/>
  <path d="M35.4805 22.1865L50.5236 25.3742" stroke="black" stroke-miterlimit="10"/>
  <path d="M33.3125 25.373L42.1091 27.4126" stroke="black" stroke-miterlimit="10"/>
  <path d="M31.4004 28.9429L35.9891 30.7276" stroke="black" stroke-miterlimit="10"/>
  <path d="M27.8301 32.002L42.8723 37.2291" stroke="black" stroke-miterlimit="10"/>
  <path d="M26.6836 35.6992L37.7737 42.8381" stroke="black" stroke-miterlimit="10"/>
  <path d="M5.3044 8.86221C5.98488 8.86221 6.53653 8.31057 6.53653 7.63008C6.53653 6.94959 5.98488 6.39795 5.3044 6.39795C4.62391 6.39795 4.07227 6.94959 4.07227 7.63008C4.07227 8.31057 4.62391 8.86221 5.3044 8.86221Z" fill="#F7DC64"/>
  <path d="M37.9987 5.65456C38.5567 5.65456 39.0091 5.20219 39.0091 4.64417C39.0091 4.08615 38.5567 3.63379 37.9987 3.63379C37.4406 3.63379 36.9883 4.08615 36.9883 4.64417C36.9883 5.20219 37.4406 5.65456 37.9987 5.65456Z" fill="#494993"/>
  <path d="M6.99385 45.3388C7.67434 45.3388 8.22598 44.7871 8.22598 44.1066C8.22598 43.4262 7.67434 42.8745 6.99385 42.8745C6.31336 42.8745 5.76172 43.4262 5.76172 44.1066C5.76172 44.7871 6.31336 45.3388 6.99385 45.3388Z" fill="#494993"/>
  <path d="M19.0505 55.9418C19.731 55.9418 20.2826 55.3902 20.2826 54.7097C20.2826 54.0292 19.731 53.4775 19.0505 53.4775C18.37 53.4775 17.8184 54.0292 17.8184 54.7097C17.8184 55.3902 18.37 55.9418 19.0505 55.9418Z" fill="#F7DC64"/>
</svg>