<svg width="12" height="12" viewBox="0 0 12 12" fill="none" xmlns="http://www.w3.org/2000/svg">
<path fill-rule="evenodd" clip-rule="evenodd" d="M10.0502 5.20041H2.81311C2.43867 5.20041 2.13477 5.50431 2.13477 5.87876C2.13477 6.25321 2.43867 6.55711 2.81311 6.55711H10.066L8.65776 7.96536C8.39321 8.22992 8.39321 8.65999 8.65776 8.92455C8.92277 9.18956 9.35239 9.18956 9.6174 8.92455C9.6174 8.92455 10.7783 7.76367 11.5358 7.00618C12.154 6.38798 12.154 5.38583 11.5358 4.76763L9.6174 2.84881C9.35239 2.58425 8.92277 2.58425 8.65776 2.84881C8.39321 3.11382 8.39321 3.54344 8.65776 3.80844L10.0502 5.20041Z" fill="#FF5348"/>
<path fill-rule="evenodd" clip-rule="evenodd" d="M7.68795 9.49688V7.46183H2.8156C1.94189 7.46183 1.23278 6.75273 1.23278 5.87902C1.23278 5.00531 1.94189 4.29621 2.8156 4.29621H7.68795V2.26116C7.68795 1.01255 6.6754 0 5.42679 0C4.44725 0 3.2407 0 2.26116 0C1.6615 0 1.08626 0.238326 0.662068 0.662068C0.238327 1.08626 0 1.6615 0 2.26116C0 4.26862 0 7.48942 0 9.49688C0 10.0965 0.238327 10.6718 0.662068 11.096C1.08626 11.5197 1.6615 11.758 2.26116 11.758C3.2407 11.758 4.44725 11.758 5.42679 11.758C6.02645 11.758 6.60169 11.5197 7.02588 11.096C7.44962 10.6718 7.68795 10.0965 7.68795 9.49688Z" fill="#FF5348"/>
</svg>
