<svg width="40" height="40" viewBox="0 0 40 40" fill="none" xmlns="http://www.w3.org/2000/svg">
<circle cx="20" cy="20" r="19.5" fill="white" stroke="#151515"/>
<g clip-path="url(#clip0_19_71)">
<path d="M31.9991 20.7498C31.9991 20.9488 31.92 21.1395 31.7794 21.2802C31.6387 21.4208 31.448 21.4998 31.2491 21.4998H29.7491V22.9998C29.7491 23.1988 29.67 23.3895 29.5294 23.5302C29.3887 23.6708 29.198 23.7498 28.9991 23.7498C28.8001 23.7498 28.6094 23.6708 28.4687 23.5302C28.3281 23.3895 28.2491 23.1988 28.2491 22.9998V21.4998H26.7491C26.5501 21.4998 26.3594 21.4208 26.2187 21.2802C26.0781 21.1395 25.9991 20.9488 25.9991 20.7498C25.9991 20.5509 26.0781 20.3602 26.2187 20.2195C26.3594 20.0789 26.5501 19.9998 26.7491 19.9998H28.2491V18.4998C28.2491 18.3009 28.3281 18.1102 28.4687 17.9695C28.6094 17.8289 28.8001 17.7498 28.9991 17.7498C29.198 17.7498 29.3887 17.8289 29.5294 17.9695C29.67 18.1102 29.7491 18.3009 29.7491 18.4998V19.9998H31.2491C31.448 19.9998 31.6387 20.0789 31.7794 20.2195C31.92 20.3602 31.9991 20.5509 31.9991 20.7498ZM21.4991 22.7823C22.6748 22.0501 23.58 20.9548 24.0778 19.6622C24.5756 18.3697 24.6389 16.9501 24.2581 15.6184C23.8773 14.2867 23.0731 13.1152 21.9672 12.2812C20.8613 11.4472 19.5139 10.9961 18.1287 10.9961C16.7436 10.9961 15.3962 11.4472 14.2903 12.2812C13.1844 13.1152 12.3802 14.2867 11.9994 15.6184C11.6186 16.9501 11.6819 18.3697 12.1797 19.6622C12.6775 20.9548 13.5827 22.0501 14.7584 22.7823C12.8225 23.4161 11.0806 24.6002 9.67999 26.267C9.5883 26.376 9.52953 26.5089 9.51058 26.65C9.49162 26.7912 9.51326 26.9349 9.57295 27.0642C9.63265 27.1935 9.72793 27.3032 9.84767 27.3803C9.9674 27.4575 10.1066 27.4989 10.2491 27.4998H25.9991C26.142 27.5 26.2819 27.4593 26.4025 27.3826C26.5231 27.3058 26.6192 27.1963 26.6796 27.0667C26.74 26.9372 26.7621 26.7931 26.7433 26.6514C26.7246 26.5098 26.6657 26.3764 26.5737 26.267C25.1722 24.6002 23.4303 23.4161 21.4991 22.7823Z" fill="#008000"/>
</g>
<defs>
<clipPath id="clip0_19_71">
<rect width="24" height="24" fill="white" transform="translate(8 8)"/>
</clipPath>
</defs>
</svg>
