<svg width="54" height="54" viewBox="0 0 54 54" fill="none" xmlns="http://www.w3.org/2000/svg">
<circle cx="27" cy="27" r="27" fill="#9923AC" fill-opacity="0.2"/>
<path d="M33.8207 34.8327C33.9221 34.9533 33.987 35.1003 34.0077 35.2564C34.0283 35.4126 34.004 35.5714 33.9374 35.7142C33.8709 35.857 33.7649 35.9778 33.632 36.0623C33.4991 36.1469 33.3448 36.1918 33.1873 36.1916H15.8265C15.6691 36.1916 15.5149 36.1466 15.3822 36.0619C15.2494 35.9773 15.1436 35.8565 15.0772 35.7137C15.0108 35.571 14.9865 35.4122 15.0072 35.2562C15.0279 35.1001 15.0927 34.9532 15.1941 34.8327C16.7379 32.9954 18.658 31.6902 20.7919 30.9916C19.4959 30.1845 18.4981 28.9772 17.9494 27.5524C17.4007 26.1277 17.331 24.563 17.7507 23.095C18.1705 21.6271 19.0569 20.3358 20.2759 19.4165C21.4949 18.4973 22.9801 18 24.5069 18C26.0337 18 27.5189 18.4973 28.7379 19.4165C29.9569 20.3358 30.8433 21.6271 31.2631 23.095C31.6828 24.563 31.6131 26.1277 31.0644 27.5524C30.5157 28.9772 29.5178 30.1845 28.2219 30.9916C30.3558 31.6902 32.2758 32.9954 33.8207 34.8327ZM38.8895 30.6114C38.8168 30.7372 38.7123 30.8417 38.5863 30.9143C38.4604 30.9868 38.3176 31.0249 38.1723 31.0247C38.0272 31.0252 37.8845 30.987 37.759 30.9141L37.2764 30.6351C37.0454 30.8333 36.7799 30.9871 36.4931 31.0888V31.6447C36.4931 31.864 36.406 32.0743 36.2509 32.2293C36.0959 32.3843 35.8856 32.4714 35.6664 32.4714C35.4471 32.4714 35.2368 32.3843 35.0818 32.2293C34.9268 32.0743 34.8397 31.864 34.8397 31.6447V31.0888C34.5529 30.9871 34.2873 30.8333 34.0564 30.6351L33.5738 30.9141C33.4482 30.987 33.3056 31.0252 33.1604 31.0247C32.9784 31.0248 32.8014 30.9648 32.6569 30.854C32.5125 30.7432 32.4087 30.5878 32.3615 30.412C32.3144 30.2361 32.3267 30.0496 32.3964 29.8815C32.4661 29.7133 32.5894 29.5728 32.7471 29.4819L33.2286 29.2039C33.1721 28.9048 33.1721 28.5978 33.2286 28.2987L32.7471 28.0207C32.653 27.9664 32.5706 27.8941 32.5045 27.808C32.4384 27.7218 32.3899 27.6235 32.3617 27.5186C32.3336 27.4138 32.3264 27.3044 32.3406 27.1967C32.3548 27.0891 32.39 26.9852 32.4443 26.8912C32.4986 26.7972 32.5708 26.7147 32.657 26.6486C32.7431 26.5825 32.8414 26.534 32.9463 26.5059C33.0512 26.4778 33.1606 26.4706 33.2682 26.4847C33.3759 26.4989 33.4797 26.5341 33.5738 26.5884L34.0564 26.8674C34.2873 26.6693 34.5529 26.5155 34.8397 26.4138V25.8578C34.8397 25.6386 34.9268 25.4283 35.0818 25.2732C35.2368 25.1182 35.4471 25.0311 35.6664 25.0311C35.8856 25.0311 36.0959 25.1182 36.2509 25.2732C36.406 25.4283 36.4931 25.6386 36.4931 25.8578V26.4138C36.7799 26.5155 37.0454 26.6693 37.2764 26.8674L37.759 26.5884C37.853 26.5341 37.9568 26.4989 38.0645 26.4847C38.1721 26.4706 38.2815 26.4778 38.3864 26.5059C38.4913 26.534 38.5896 26.5825 38.6757 26.6486C38.7619 26.7147 38.8342 26.7972 38.8884 26.8912C38.9427 26.9852 38.9779 27.0891 38.9921 27.1967C39.0063 27.3044 38.9991 27.4138 38.971 27.5186C38.9429 27.6235 38.8944 27.7218 38.8282 27.808C38.7621 27.8941 38.6797 27.9664 38.5857 28.0207L38.1041 28.2987C38.1606 28.5978 38.1606 28.9048 38.1041 29.2039L38.5857 29.4819C38.6798 29.5361 38.7623 29.6083 38.8286 29.6944C38.8948 29.7805 38.9434 29.8788 38.9716 29.9837C38.9998 30.0886 39.0071 30.198 38.993 30.3057C38.9789 30.4134 38.9437 30.5173 38.8895 30.6114ZM35.6674 29.578C35.8309 29.578 35.9907 29.5295 36.1267 29.4387C36.2626 29.3478 36.3686 29.2187 36.4312 29.0676C36.4937 28.9166 36.5101 28.7504 36.4782 28.59C36.4463 28.4296 36.3676 28.2823 36.252 28.1667C36.1363 28.0511 35.989 27.9724 35.8287 27.9405C35.6683 27.9086 35.5021 27.9249 35.351 27.9875C35.2 28.0501 35.0709 28.156 34.98 28.292C34.8892 28.4279 34.8407 28.5878 34.8407 28.7513C34.8407 28.9705 34.9278 29.1808 35.0828 29.3358C35.2379 29.4909 35.4481 29.578 35.6674 29.578Z" fill="#151515"/>
</svg>
