<svg width="14" height="14" viewBox="0 0 14 14" fill="none" xmlns="http://www.w3.org/2000/svg">
<path d="M12.6285 12.0313C12.5901 12.0978 12.5349 12.153 12.4684 12.1914C12.4018 12.2298 12.3264 12.25 12.2496 12.25H1.74955C1.67279 12.2499 1.5974 12.2297 1.53096 12.1912C1.46451 12.1528 1.40935 12.0976 1.371 12.0311C1.33266 11.9646 1.31248 11.8892 1.3125 11.8124C1.31252 11.7357 1.33273 11.6602 1.37111 11.5938C2.204 10.1539 3.48752 9.12135 4.98541 8.6319C4.24449 8.19082 3.66883 7.51872 3.34686 6.71882C3.02488 5.91891 2.97438 5.03543 3.20311 4.20405C3.43185 3.37266 3.92716 2.63935 4.613 2.11672C5.29884 1.59408 6.13728 1.31104 6.99955 1.31104C7.86183 1.31104 8.70026 1.59408 9.3861 2.11672C10.0719 2.63935 10.5673 3.37266 10.796 4.20405C11.0247 5.03543 10.9742 5.91891 10.6522 6.71882C10.3303 7.51872 9.75462 8.19082 9.01369 8.6319C10.5116 9.12135 11.7951 10.1539 12.628 11.5938C12.6665 11.6602 12.6868 11.7357 12.6869 11.8124C12.687 11.8892 12.6669 11.9647 12.6285 12.0313Z" fill="black"/>
</svg>
