<svg width="150" height="147" viewBox="0 0 150 147" fill="none" xmlns="http://www.w3.org/2000/svg">
<path d="M67.8303 5.13998C70.703 -0.510294 78.7745 -0.510289 81.6472 5.13999L92.9546 27.3809C94.639 30.6939 98.3305 32.4716 101.971 31.7229L126.41 26.6964C132.618 25.4195 137.651 31.7301 135.024 37.4989L124.686 60.2064C123.146 63.5889 124.057 67.5834 126.912 69.9627L146.08 85.9358C150.949 89.9937 149.153 97.8629 143.005 99.4062L118.806 105.481C115.201 106.386 112.646 109.589 112.566 113.305L112.029 138.25C111.892 144.587 104.62 148.089 99.58 144.244L79.7423 129.112C76.7874 126.858 72.6901 126.858 69.7351 129.112L49.8975 144.244C44.8577 148.089 37.5855 144.587 37.4489 138.25L36.9112 113.305C36.8312 109.589 34.2765 106.386 30.6719 105.481L6.47238 99.4062C0.324543 97.8629 -1.47154 89.9937 3.39785 85.9358L22.565 69.9627C25.4201 67.5834 26.3318 63.5889 24.7918 60.2064L14.4532 37.4989C11.8267 31.7301 16.8593 25.4195 23.0679 26.6964L47.5067 31.7229C51.147 32.4716 54.8385 30.6939 56.5229 27.3809L67.8303 5.13998Z" fill="#9923AC" stroke="#151515" stroke-width="0.5"/>
</svg>
