<svg width="29" height="30" viewBox="0 0 29 30" fill="none" xmlns="http://www.w3.org/2000/svg">
<path d="M11.8388 2.63822C12.7731 0.113431 16.3441 0.11343 17.2784 2.63822L19.3879 8.33916C19.7019 9.18769 20.3709 9.85671 21.2194 10.1707L26.9204 12.2802C29.4452 13.2145 29.4452 16.7855 26.9204 17.7198L21.2194 19.8293C20.3709 20.1433 19.7019 20.8123 19.3879 21.6608L17.2784 27.3618C16.3441 29.8866 12.7731 29.8866 11.8388 27.3618L9.72929 21.6608C9.4153 20.8123 8.74629 20.1433 7.89776 19.8293L2.19682 17.7198C-0.327975 16.7855 -0.327977 13.2145 2.19682 12.2802L7.89776 10.1707C8.74629 9.85671 9.4153 9.18769 9.72929 8.33916L11.8388 2.63822Z" fill="#ED5702" stroke="#151515" stroke-width="0.2"/>
</svg>
