<svg width="30" height="30" viewBox="0 0 30 30" fill="none" xmlns="http://www.w3.org/2000/svg">
<path d="M12.2802 2.63822C13.2145 0.113431 16.7855 0.11343 17.7198 2.63822L19.8293 8.33916C20.1433 9.18769 20.8123 9.85671 21.6608 10.1707L27.3618 12.2802C29.8866 13.2145 29.8866 16.7855 27.3618 17.7198L21.6608 19.8293C20.8123 20.1433 20.1433 20.8123 19.8293 21.6608L17.7198 27.3618C16.7855 29.8866 13.2145 29.8866 12.2802 27.3618L10.1707 21.6608C9.85671 20.8123 9.18769 20.1433 8.33916 19.8293L2.63822 17.7198C0.113431 16.7855 0.11343 13.2145 2.63822 12.2802L8.33916 10.1707C9.18769 9.85671 9.85671 9.18769 10.1707 8.33916L12.2802 2.63822Z" fill="#9923AC" stroke="#151515" stroke-width="0.2"/>
</svg>
