<svg width="24" height="24" viewBox="0 0 24 24" fill="none" xmlns="http://www.w3.org/2000/svg">
<path d="M19.8975 7.8525L14.6475 2.6025C14.5421 2.49698 14.3991 2.43763 14.25 2.4375H5.25C4.9019 2.4375 4.56806 2.57578 4.32192 2.82192C4.07578 3.06806 3.9375 3.4019 3.9375 3.75V12C3.9375 12.1492 3.99676 12.2923 4.10225 12.3977C4.20774 12.5032 4.35082 12.5625 4.5 12.5625C4.64918 12.5625 4.79226 12.5032 4.89775 12.3977C5.00324 12.2923 5.0625 12.1492 5.0625 12V3.75C5.0625 3.70027 5.08225 3.65258 5.11742 3.61742C5.15258 3.58225 5.20027 3.5625 5.25 3.5625H13.6875V8.25C13.6875 8.39918 13.7468 8.54226 13.8523 8.64775C13.9577 8.75324 14.1008 8.8125 14.25 8.8125H18.9375V20.25C18.9375 20.2997 18.9177 20.3474 18.8826 20.3826C18.8474 20.4177 18.7997 20.4375 18.75 20.4375H16.5C16.3508 20.4375 16.2077 20.4968 16.1023 20.6023C15.9968 20.7077 15.9375 20.8508 15.9375 21C15.9375 21.1492 15.9968 21.2923 16.1023 21.3977C16.2077 21.5032 16.3508 21.5625 16.5 21.5625H18.75C19.0981 21.5625 19.4319 21.4242 19.6781 21.1781C19.9242 20.9319 20.0625 20.5981 20.0625 20.25V8.25C20.0624 8.10087 20.003 7.95789 19.8975 7.8525ZM14.8125 4.3575L18.1425 7.6875H14.8125V4.3575ZM10.125 12.1875C9.17819 12.1873 8.2535 12.4738 7.47267 13.0093C6.69184 13.5448 6.09148 14.3042 5.75063 15.1875H5.625C4.77962 15.1875 3.96887 15.5233 3.3711 16.1211C2.77332 16.7189 2.4375 17.5296 2.4375 18.375C2.4375 19.2204 2.77332 20.0311 3.3711 20.6289C3.96887 21.2267 4.77962 21.5625 5.625 21.5625H10.125C11.3682 21.5625 12.5605 21.0686 13.4396 20.1896C14.3186 19.3105 14.8125 18.1182 14.8125 16.875C14.8125 15.6318 14.3186 14.4395 13.4396 13.5604C12.5605 12.6814 11.3682 12.1875 10.125 12.1875ZM10.125 20.4375H5.625C5.09096 20.4381 4.57749 20.2316 4.19263 19.8614C3.80776 19.4911 3.58151 18.9861 3.56147 18.4524C3.54143 17.9187 3.72916 17.3981 4.08518 17C4.4412 16.602 4.93773 16.3575 5.47031 16.3181C5.46469 16.3622 5.46094 16.4053 5.45625 16.4494C5.44282 16.5986 5.48921 16.747 5.58521 16.862C5.6812 16.9769 5.81894 17.0491 5.96812 17.0625C6.11731 17.0759 6.26572 17.0295 6.3807 16.9335C6.49568 16.8376 6.56782 16.6998 6.58125 16.5506C6.59796 16.3437 6.63246 16.1385 6.68438 15.9375C6.69397 15.9113 6.70149 15.8843 6.70687 15.8569C6.89564 15.2239 7.25666 14.6559 7.7496 14.2163C8.24255 13.7766 8.848 13.4827 9.49835 13.3673C10.1487 13.2519 10.8183 13.3196 11.4324 13.5628C12.0465 13.8059 12.581 14.2151 12.976 14.7444C13.371 15.2738 13.6111 15.9026 13.6694 16.5605C13.7277 17.2184 13.6019 17.8796 13.3062 18.4702C13.0104 19.0608 12.5563 19.5575 11.9946 19.9049C11.4328 20.2523 10.7855 20.4367 10.125 20.4375Z" fill="#AEAEAE"/>
</svg>
