<svg width="24" height="24" viewBox="0 0 24 24" fill="none" xmlns="http://www.w3.org/2000/svg">
<path d="M19.8975 7.85348L14.6475 2.60348C14.5421 2.49796 14.3991 2.43861 14.25 2.43848H5.25C4.9019 2.43848 4.56806 2.57676 4.32192 2.8229C4.07578 3.06904 3.9375 3.40288 3.9375 3.75098V12.001C3.9375 12.1502 3.99676 12.2932 4.10225 12.3987C4.20774 12.5042 4.35082 12.5635 4.5 12.5635C4.64918 12.5635 4.79226 12.5042 4.89775 12.3987C5.00324 12.2932 5.0625 12.1502 5.0625 12.001V3.75098C5.0625 3.70125 5.08225 3.65356 5.11742 3.61839C5.15258 3.58323 5.20027 3.56348 5.25 3.56348H13.6875V8.25098C13.6875 8.40016 13.7468 8.54323 13.8523 8.64872C13.9577 8.75421 14.1008 8.81348 14.25 8.81348H18.9375V20.251C18.9375 20.3007 18.9177 20.3484 18.8826 20.3836C18.8474 20.4187 18.7997 20.4385 18.75 20.4385H16.5C16.3508 20.4385 16.2077 20.4977 16.1023 20.6032C15.9968 20.7087 15.9375 20.8518 15.9375 21.001C15.9375 21.1502 15.9968 21.2932 16.1023 21.3987C16.2077 21.5042 16.3508 21.5635 16.5 21.5635H18.75C19.0981 21.5635 19.4319 21.4252 19.6781 21.1791C19.9242 20.9329 20.0625 20.5991 20.0625 20.251V8.25098C20.0624 8.10184 20.003 7.95886 19.8975 7.85348ZM14.8125 4.35848L18.1425 7.68848H14.8125V4.35848ZM10.125 12.1885C9.17819 12.1882 8.2535 12.4747 7.47267 13.0102C6.69184 13.5457 6.09148 14.3051 5.75063 15.1885H5.625C4.77962 15.1885 3.96887 15.5243 3.3711 16.1221C2.77332 16.7198 2.4375 17.5306 2.4375 18.376C2.4375 19.2214 2.77332 20.0321 3.3711 20.6299C3.96887 21.2277 4.77962 21.5635 5.625 21.5635H10.125C11.3682 21.5635 12.5605 21.0696 13.4396 20.1905C14.3186 19.3115 14.8125 18.1192 14.8125 16.876C14.8125 15.6328 14.3186 14.4405 13.4396 13.5614C12.5605 12.6823 11.3682 12.1885 10.125 12.1885ZM10.125 20.4385H5.625C5.09096 20.4391 4.57749 20.2326 4.19263 19.8624C3.80776 19.4921 3.58151 18.987 3.56147 18.4534C3.54143 17.9197 3.72916 17.3991 4.08518 17.001C4.4412 16.603 4.93773 16.3585 5.47031 16.3191C5.46469 16.3632 5.46094 16.4063 5.45625 16.4504C5.44282 16.5995 5.48921 16.7479 5.58521 16.8629C5.6812 16.9779 5.81894 17.05 5.96812 17.0635C6.11731 17.0769 6.26572 17.0305 6.3807 16.9345C6.49568 16.8385 6.56782 16.7008 6.58125 16.5516C6.59796 16.3446 6.63246 16.1395 6.68438 15.9385C6.69397 15.9122 6.70149 15.8853 6.70687 15.8579C6.89564 15.2249 7.25666 14.6569 7.7496 14.2172C8.24255 13.7776 8.848 13.4837 9.49835 13.3683C10.1487 13.2529 10.8183 13.3205 11.4324 13.5637C12.0465 13.8069 12.581 14.216 12.976 14.7454C13.371 15.2748 13.6111 15.9035 13.6694 16.5615C13.7277 17.2194 13.6019 17.8806 13.3062 18.4712C13.0104 19.0618 12.5563 19.5585 11.9946 19.9059C11.4328 20.2533 10.7855 20.4377 10.125 20.4385Z" fill="white"/>
</svg>
