<svg width="12" height="13" viewBox="0 0 12 13" fill="none" xmlns="http://www.w3.org/2000/svg">
<path d="M7.24001 9.51721L7.37506 9.51624C7.98515 9.51624 8.30565 9.76913 8.70105 10.3683L8.89792 10.6724C9.05142 10.8997 9.14722 10.9949 9.26789 11.0446C9.48423 11.1337 9.66353 11.0899 10.322 10.7729L10.5236 10.6747C10.9354 10.4725 11.2164 10.3568 11.534 10.2774C11.7349 10.2272 11.9385 10.3493 11.9887 10.5503C12.0389 10.7512 11.9168 10.9548 11.7159 11.005C11.5185 11.0543 11.3294 11.1251 11.082 11.2391L10.5027 11.5178C9.7188 11.888 9.45294 11.932 8.98211 11.738C8.66958 11.6092 8.49186 11.4228 8.23181 11.0252L8.13448 10.8732C7.83353 10.399 7.68208 10.2662 7.37506 10.2662L7.29571 10.2681C7.07914 10.2812 6.93893 10.3804 6.00474 11.0737C5.13365 11.7201 4.46931 12.0289 3.62449 12.0289C2.59457 12.0289 1.6241 11.8397 0.715993 11.4614L2.15711 11.1283C2.62905 11.2287 3.11802 11.2789 3.62449 11.2789C4.2698 11.2789 4.8047 11.0303 5.5578 10.4714L6.13782 10.0435C6.77348 9.58148 6.91488 9.52425 7.24001 9.51721ZM10.3885 0.627559C11.2253 1.46434 11.2253 2.82103 10.3886 3.65783L9.87081 4.17563C10.4468 4.87636 10.426 5.61905 9.89053 6.15612L8.39006 7.65659C8.24355 7.80296 8.00612 7.80284 7.85975 7.65633C7.71338 7.50982 7.71349 7.27239 7.86 7.12602L9.35944 5.62658C9.60196 5.38335 9.62999 5.08137 9.33947 4.70733L4.04243 10.0043C3.89334 10.1534 3.70535 10.2576 3.4999 10.305L0.459594 11.0066C0.189575 11.0689 -0.0524232 10.8269 0.0098888 10.5569L0.711503 7.51655C0.75891 7.31112 0.863092 7.12315 1.01217 6.97406L7.35831 0.627604C8.19505 -0.209182 9.55171 -0.209205 10.3885 0.627559Z" fill="#9923AC"/>
</svg>
