<svg xmlns="http://www.w3.org/2000/svg" width="40" height="40" viewBox="0 0 40 40" fill="none">
  <circle cx="20" cy="20" r="19.5" fill="white" stroke="#151515"/>
  <path d="M23.4783 26.8405C23.5534 26.9536 23.596 27.0846 23.6016 27.2196C23.6072 27.3545 23.5755 27.4885 23.5101 27.6073C23.4446 27.726 23.3477 27.8252 23.2296 27.8944C23.1115 27.9635 22.9765 28 22.8391 28H8.76314C8.62566 28 8.49073 27.9635 8.37262 27.8944C8.25451 27.8252 8.1576 27.726 8.09212 27.6073C8.02664 27.4885 7.99503 27.3545 8.00063 27.2196C8.00623 27.0846 8.04883 26.9536 8.12393 26.8405C9.19828 25.2157 10.7785 23.9758 12.6289 23.3057C11.606 22.6366 10.8294 21.6619 10.4139 20.5256C9.99845 19.3893 9.96621 18.1518 10.3219 16.9961C10.6777 15.8404 11.4025 14.8279 12.3892 14.1082C13.376 13.3886 14.5722 13 15.8011 13C17.03 13 18.2262 13.3886 19.213 14.1082C20.1997 14.8279 20.9245 15.8404 21.2803 16.9961C21.636 18.1518 21.6037 19.3893 21.1883 20.5256C20.7728 21.6619 19.9962 22.6366 18.9733 23.3057C20.8236 23.9758 22.4039 25.2157 23.4783 26.8405ZM31.8652 26.8264C30.7906 25.2085 29.2139 23.9739 27.3688 23.3057C28.5764 22.5065 29.4287 21.2851 29.7521 19.8903C30.0755 18.4955 29.8457 17.032 29.1096 15.7977C28.3734 14.5634 27.1863 13.6512 25.7897 13.2466C24.3931 12.842 22.892 12.9755 21.5921 13.62C21.5424 13.6452 21.499 13.6809 21.4648 13.7244C21.4307 13.768 21.4067 13.8184 21.3946 13.872C21.3825 13.9257 21.3826 13.9813 21.3948 14.0349C21.407 14.0886 21.431 14.1389 21.4652 14.1824C22.4318 15.3671 22.987 16.8247 23.0493 18.3418C23.1116 19.8589 22.6778 21.3557 21.8115 22.613C21.7556 22.6952 21.7349 22.7957 21.754 22.8928C21.7731 22.9899 21.8305 23.0756 21.9136 23.1314C23.0431 23.9059 24.01 24.8871 24.7614 26.0212C25.0645 26.4772 25.1883 27.026 25.1097 27.5651C25.1008 27.6187 25.1039 27.6736 25.1188 27.7259C25.1337 27.7782 25.1599 27.8267 25.1958 27.8681C25.2316 27.9095 25.2762 27.9427 25.3264 27.9655C25.3766 27.9882 25.4312 28 25.4865 28H31.2394C31.4074 28.0001 31.5708 27.9456 31.7042 27.8451C31.8375 27.7446 31.9334 27.6036 31.9769 27.4441C32.0034 27.3393 32.0072 27.23 31.9879 27.1236C31.9687 27.0172 31.9269 26.9159 31.8652 26.8264Z" fill="#0000FF"/>
</svg>