<svg width="146" height="26" viewBox="0 0 146 26" fill="none" xmlns="http://www.w3.org/2000/svg">
<path d="M11.5936 6.79284C13.7748 6.79291 15.8701 6.81074 17.9647 6.78153C18.5466 6.77341 18.8248 6.97978 18.8252 7.54784C18.8279 11.0448 18.8266 14.5417 18.8266 18.1003C12.9048 18.1003 7.04282 18.1003 1.0855 18.1003C1.0855 17.2502 1.0855 16.4259 1.0855 15.6017C1.08551 12.9901 1.10885 10.3781 1.07071 7.7671C1.05989 7.026 1.26456 6.76707 2.03707 6.77662C5.19347 6.81565 8.35063 6.79287 11.5936 6.79284ZM13.3164 12.7347C13.3163 11.9317 13.3228 11.1285 13.3111 10.3257C13.3084 10.1381 13.3103 9.87595 13.1972 9.77618C12.3236 9.00582 11.5702 7.96237 10.1441 8.33433C9.90246 8.39737 9.63022 8.34322 9.3721 8.34323C7.53493 8.34337 6.42576 9.43289 6.42573 11.2375C6.42572 11.8684 6.48122 12.5053 6.41424 13.1291C6.27259 14.4482 6.51075 15.5636 7.81999 16.1958C8.15841 16.3592 8.51294 16.5648 8.87253 16.5932C9.64208 16.654 10.42 16.623 11.194 16.6043C11.4081 16.5992 11.6718 16.5682 11.8245 16.4421C12.7411 15.6854 13.6961 14.9341 13.3231 13.5063C13.274 13.3183 13.3164 13.1065 13.3164 12.7347ZM4.53081 13.9417C4.53081 11.8611 4.53081 9.78042 4.53081 7.70835C3.6031 7.70835 2.81291 7.70835 2.01511 7.70835C2.01511 10.9264 2.01511 14.0898 2.01511 17.2469C2.87444 17.2469 3.66463 17.2469 4.53081 17.2469C4.53081 16.1672 4.53081 15.1406 4.53081 13.9417ZM17.8986 13.4852C17.9215 13.0322 17.9134 12.575 17.974 12.1271C18.0895 11.2752 17.7123 11.0545 16.9082 11.0846C14.9916 11.1563 15.216 10.8251 15.2272 12.856C15.2289 13.157 15.4299 13.7088 15.5604 13.7154C16.3064 13.7532 17.0591 13.6611 17.8986 13.4852ZM15.2113 9.26491C15.3555 9.58595 15.487 10.1747 15.6463 10.1823C16.3906 10.218 17.1431 10.0979 17.8903 10.0125C17.9265 10.0084 17.9478 9.80667 17.9631 9.69518C18.2267 7.77853 18.1081 7.642 16.1971 7.65416C16.1112 7.6547 16.0245 7.66219 15.9395 7.65354C15.3663 7.59512 15.1616 7.87714 15.2083 8.41808C15.228 8.64548 15.2114 8.87602 15.2113 9.26491ZM15.8696 14.7178C15.6544 14.8523 15.2733 14.9662 15.2537 15.1249C15.1805 15.7167 15.1423 16.3424 15.2732 16.9136C15.3174 17.1066 15.9132 17.3005 16.2386 17.2735C16.8117 17.2259 17.51 17.6523 17.9482 16.9321C17.9747 16.8885 17.9568 16.8192 17.9646 16.7627C18.2287 14.8674 18.0989 14.7166 16.2018 14.7169C16.1445 14.7169 16.0873 14.717 15.8696 14.7178Z" fill="white"/>
<path d="M48.684 15.4494C47.0191 17.9919 44.8335 19.4921 41.7452 19.3663C38.9476 19.2523 36.9913 17.2877 36.7442 14.4577C36.544 12.1633 37.253 10.1402 38.7062 8.39727C40.9637 5.68995 45.3687 4.69805 48.1955 7.10121C49.25 7.99765 49.7125 9.16558 49.8316 10.4985C49.9878 12.2477 49.573 13.8734 48.684 15.4494ZM41.4139 8.24438C39.6274 9.78111 38.4831 11.6533 38.6517 14.082C38.8567 17.0363 41.2052 18.7519 44.0938 17.4022C46.4957 16.2799 47.6304 14.179 47.9033 11.6809C48.1456 9.46401 47.1505 7.94248 45.1532 7.39223C43.8314 7.02809 42.6634 7.58941 41.4139 8.24438Z" fill="white"/>
<path d="M76.6509 10.8798C77.5246 8.07337 80.623 5.79457 83.4823 5.74811C85.14 5.72118 86.622 6.04195 87.8135 7.29569C89.1614 8.71388 89.4661 10.4196 89.2119 12.2658C88.9789 13.9583 88.2434 15.4692 87.1342 16.7355C85.1279 19.0257 81.5667 20.416 78.4185 18.4803C77.1251 17.685 76.3974 16.3991 76.1763 14.8327C75.9854 13.4803 76.166 12.2019 76.6509 10.8798ZM78.581 11.1642C77.9522 12.2041 77.9871 13.3705 78.1107 14.488C78.3814 16.9359 80.4298 18.4686 82.9286 17.6202C85.7384 16.6662 87.8186 13.1717 87.2059 10.1377C86.8456 8.35392 85.198 7.28651 83.8805 7.2682C81.7504 7.23862 79.4884 8.84592 78.581 11.1642Z" fill="white"/>
<path d="M74.3834 7.83493C74.7414 9.63719 74.1308 11.0185 72.874 11.9108C73.2759 12.7308 73.7567 13.3958 73.9321 14.1334C74.3455 15.8712 73.5971 17.5365 72.0263 18.315C71.2456 18.7019 70.33 18.928 69.4579 18.9939C68.033 19.1015 66.5937 19.019 65.1605 19.0146C65.105 19.0145 65.0495 18.9929 64.9004 18.9617C65.7454 14.6411 66.5904 10.3203 67.4776 5.78418C69.2132 5.94921 70.9322 6.06261 72.6346 6.29624C73.4524 6.40847 74.0771 6.93127 74.3834 7.83493ZM67.0662 17.2301C67.1972 17.3673 67.3208 17.6135 67.4605 17.623C68.0879 17.6655 68.7594 17.7762 69.3405 17.6067C70.0975 17.3858 70.876 17.0346 71.4775 16.5368C72.2226 15.9201 72.2856 14.9068 71.9544 14.0905C71.6563 13.3557 70.8814 13.0524 70.012 13.1557C69.5034 13.2161 68.9814 13.1791 68.4661 13.1636C68.031 13.1504 67.8117 13.2697 67.7347 13.7684C67.5632 14.8792 67.296 15.9752 67.0662 17.2301ZM68.7009 9.02664C68.545 9.86381 68.3891 10.701 68.2187 11.6161C68.7969 11.6161 69.1982 11.5856 69.5935 11.6218C70.8685 11.7386 71.7432 11.099 72.2878 10.0591C73.0331 8.63613 72.4356 7.6558 70.8967 7.49358C70.2775 7.42831 69.6458 7.48282 68.9628 7.48282C68.8899 8.00161 68.8274 8.44654 68.7009 9.02664Z" fill="white"/>
<path d="M122.659 16.7451C120.822 18.2579 118.792 19.062 116.45 19.0268C115.247 19.0087 114.044 19.0237 112.736 19.0237C113.597 14.6388 114.446 10.3187 115.309 5.92212C117.425 6.04474 119.487 5.70629 121.542 6.3624C124.395 7.27355 125.235 10.0648 124.887 12.3981C124.638 14.063 123.923 15.5172 122.659 16.7451ZM118.414 17.2854C119.775 16.786 121.176 16.269 121.878 14.9017C122.395 13.895 122.855 12.7867 122.998 11.6794C123.163 10.4045 122.74 9.2134 121.605 8.33276C120.222 7.2598 118.655 7.5002 117.111 7.51429C116.97 7.51558 116.742 7.79504 116.706 7.97518C116.079 11.1761 115.475 14.3816 114.834 17.7578C116.041 17.5964 117.155 17.4474 118.414 17.2854Z" fill="white"/>
<path d="M63.292 9.55678C63.2838 9.632 63.2755 9.70721 63.2023 9.84886C62.9824 10.0867 62.7051 10.2514 62.6954 10.4306C62.6646 11.0011 62.7334 11.577 62.7638 12.1508C62.6886 12.6949 62.6135 13.239 62.436 13.841C62.3047 14.1776 62.2758 14.4563 62.2468 14.735C62.1294 15.3728 62.012 16.0106 61.8395 16.727C61.7661 16.9761 61.7477 17.1466 61.7293 17.3172C61.6693 17.6694 61.6093 18.0216 61.4681 18.4502C60.8077 18.6973 60.2284 18.8681 59.6492 19.0388C58.6733 17.0175 57.6965 14.9965 56.722 12.9745C56.2089 11.9099 55.7014 10.8425 55.1877 9.77807C55.0719 9.53811 54.9408 9.30553 54.7398 8.92311C54.6907 9.214 54.6723 9.32277 54.6135 9.51097C54.5509 9.69404 54.5286 9.79764 54.5064 9.90126C54.3971 10.5466 54.2879 11.1919 54.097 11.9154C53.6003 12.1949 53.6769 12.4252 53.9758 12.6685C53.7443 13.8802 53.5129 15.0918 53.2321 16.3985C53.1635 16.6499 53.1443 16.8063 53.125 16.9627C53.048 17.5105 52.9709 18.0582 52.7742 18.6374C52.2319 18.6722 51.8091 18.6757 51.3639 18.634C51.2966 18.4988 51.2518 18.4086 51.207 18.3185C51.267 17.9662 51.3271 17.6139 51.436 17.1683C51.5042 16.9185 51.5234 16.7621 51.5427 16.6057C51.5499 16.5301 51.5571 16.4545 51.6108 16.2962C51.6764 16.0572 51.6957 15.9007 51.7149 15.7443C51.7222 15.6688 51.7294 15.5932 51.7959 15.4381C52.233 15.1206 52.2874 14.852 51.932 14.5448C52.2112 13.0985 52.4905 11.6522 52.8103 10.1152C52.8731 9.92095 52.8953 9.81734 52.9175 9.71373C53.1013 8.63369 53.276 7.55192 53.4804 6.4758C53.5058 6.34197 53.6675 6.1817 53.8029 6.12966C54.607 5.8207 55.4383 6.20362 55.7999 6.98807C57.0211 9.63759 58.2539 12.2818 59.4641 15.0127C59.5223 15.1979 59.5987 15.2983 59.675 15.3988C59.836 15.6288 59.9969 15.8588 60.2178 16.1745C60.3932 15.4247 60.5407 14.7943 60.7563 14.0847C60.9616 13.887 61.0989 13.7685 61.2363 13.6499C61.1207 13.5463 61.0052 13.4427 60.8897 13.3391C61.1669 11.8347 61.4442 10.3303 61.7856 8.75174C61.9633 8.61511 62.0768 8.55259 62.1903 8.49009C62.0909 8.37607 61.9916 8.26206 61.8922 8.14804C61.895 8.07605 61.8979 8.00405 61.9443 7.8532C62 7.62589 62.0122 7.47743 62.0243 7.32898C62.0399 7.24821 62.0555 7.16743 62.1443 7.01428C62.7894 6.77741 63.3613 6.61291 63.9332 6.4484C63.828 6.97736 63.7228 7.50633 63.5536 8.10823C63.3766 8.24445 63.2636 8.30771 63.1506 8.37097C63.2555 8.47884 63.3604 8.58669 63.4653 8.69456C63.4567 8.76999 63.4481 8.84541 63.393 9.00364C63.3284 9.24322 63.3102 9.40001 63.292 9.55678Z" fill="white"/>
<path d="M102.877 19.0235C102.46 19.0236 102.119 19.0236 101.734 19.0236C102.598 14.6413 103.447 10.3291 104.314 5.92602C106.134 6.04094 107.952 5.66073 109.728 6.32083C111.948 7.146 111.902 9.84583 110.997 11.1223C110.441 11.9056 109.64 12.5604 108.836 13.1053C108.335 13.445 108.308 13.6568 108.543 14.126C108.935 14.9083 109.269 15.7189 109.638 16.5128C110.006 17.3037 110.387 18.0888 110.78 18.9154C110.624 18.9695 110.557 19.004 110.486 19.0155C109.372 19.1964 108.591 18.9571 108.213 17.7004C107.866 16.5471 107.232 15.4828 106.772 14.3597C106.477 13.6392 106.098 13.2658 105.293 13.6576C105.128 13.7379 104.905 13.6995 104.633 13.7222C104.338 15.1935 104.047 16.6524 103.752 18.1105C103.66 18.5646 103.685 19.1278 102.877 19.0235ZM107.728 7.48246C107.131 7.48246 106.533 7.48246 105.865 7.48246C105.561 8.91301 105.263 10.3058 104.973 11.7002C104.951 11.8061 104.987 11.924 104.995 12.0321C106.317 12.2775 107.291 12.1511 108.21 11.6204C109.151 11.0774 109.781 9.96027 109.596 8.9953C109.421 8.08531 108.773 7.62393 107.728 7.48246Z" fill="white"/>
<path d="M138.672 6.38306C138.822 6.18976 138.939 5.9523 139.052 5.95411C140.418 5.97599 141.785 6.00421 143.149 6.08932C144.527 6.17538 145.558 6.87355 145.876 8.22562C146.203 9.61334 145.901 10.9591 144.807 11.9696C144.191 12.5389 143.458 12.9819 142.724 13.5206C143.523 15.265 144.352 17.0777 145.243 19.0234C144.707 19.0234 144.258 19.079 143.832 19.0036C143.552 18.9541 143.174 18.7782 143.066 18.5512C142.384 17.1258 141.759 15.6733 141.132 14.2226C140.955 13.8128 140.786 13.3527 140.245 13.5325C139.732 13.7027 138.996 13.4625 138.869 14.4321C138.669 15.9588 138.288 17.4618 137.981 18.9904C137.356 18.9904 136.79 18.9904 136.166 18.9904C136.995 14.7818 137.816 10.616 138.672 6.38306ZM139.897 8.17442C139.915 8.34794 139.932 8.52146 139.934 8.82217C139.923 8.94962 139.912 9.07709 139.81 9.24656C139.26 9.90544 139.176 10.643 139.419 11.5882C139.532 11.7683 139.63 12.0938 139.758 12.1057C140.931 12.2147 142.104 12.1808 143.037 11.3292C143.729 10.6983 144.294 9.86527 144.003 8.94035C143.831 8.39184 143.184 7.91859 142.643 7.58642C142.3 7.37575 141.76 7.48658 141.257 7.38606C141.102 7.40844 140.946 7.43083 140.668 7.47565C140.544 7.48015 140.419 7.48465 140.191 7.53867C140.101 7.72871 140.01 7.91874 139.868 8.07657C139.868 8.07657 139.92 8.04392 139.897 8.17442Z" fill="white"/>
<path d="M98.5873 10.3893C98.9323 12.4674 99.2777 14.4688 99.6178 16.4712C99.7543 17.275 99.879 18.0808 100.021 18.9614C99.4191 18.9614 98.9148 18.9614 98.2567 18.9614C98.0864 17.9855 97.8589 16.9503 97.7425 15.9028C97.6832 15.3689 97.4788 15.2209 96.9895 15.2286C95.8137 15.247 94.6351 15.194 93.4628 15.2608C93.1443 15.279 92.744 15.5523 92.5557 15.8278C92.1105 16.4787 91.7531 17.1924 91.3912 17.8968C90.772 19.102 90.4109 19.297 88.832 19.096C89.3762 18.0631 89.8772 17.0691 90.4169 16.0966C91.6506 13.8735 92.9039 11.6612 94.148 9.4438C94.7424 8.3844 95.3203 7.31534 95.9405 6.27131C96.0406 6.10278 96.3141 5.97395 96.523 5.94693C96.9175 5.8959 97.3234 5.93219 97.8521 5.93219C98.0967 7.39311 98.3412 8.85313 98.5873 10.3893ZM93.9533 13.2641C94.0098 13.4023 94.0636 13.6597 94.1233 13.661C95.1964 13.6853 96.2703 13.6787 97.3728 13.6787C97.0917 11.9565 96.8326 10.3692 96.5376 8.56143C95.6225 10.2402 94.8262 11.701 93.9533 13.2641Z" fill="white"/>
<path d="M128.931 13.3538C128.671 14.7874 128.427 16.1452 128.164 17.6085C130.102 17.6085 131.953 17.6085 133.815 17.6085C133.61 19.0235 133.61 19.0235 132.239 19.0236C130.203 19.0236 128.167 19.0236 126.025 19.0236C126.889 14.6396 127.74 10.3155 128.597 5.96753C131.114 5.96753 133.574 5.96753 136.03 5.96753C136.19 7.2481 136.002 7.48114 134.833 7.48174C133.313 7.48252 131.793 7.48193 130.149 7.48193C129.872 8.82624 129.596 10.1665 129.304 11.5858C130.829 11.5858 132.302 11.5858 133.834 11.5858C133.721 12.1485 133.623 12.6315 133.493 13.2781C131.966 13.2781 130.457 13.2781 128.931 13.3538Z" fill="white"/>
<path d="M27.6154 25.0243C27.4442 24.9107 27.2253 24.8298 27.1176 24.6726C27.037 24.5551 27.0988 24.3393 27.0988 24.1672C27.0986 16.3667 27.0948 8.56611 27.1142 0.765622C27.1149 0.480509 27.3443 0.195974 27.5412 0C27.6154 8.40065 27.6154 16.7125 27.6154 25.0243Z" fill="white"/>
<path d="M4.18602 19.885C2.86318 19.8421 1.57568 20.122 0.457464 19.3207C0.297888 19.2063 0.152148 19.0726 0 18.9479C0.0231758 18.8772 0.0463518 18.8066 0.0695303 18.7359C0.33213 18.717 0.594693 18.6825 0.85734 18.6818C2.75029 18.6771 4.64493 18.7261 6.53546 18.6584C7.40566 18.6272 7.88037 18.865 7.91928 19.885C6.70533 19.885 5.48864 19.885 4.18602 19.885Z" fill="white"/>
<path d="M14.1796 19.885C13.3795 19.885 12.6647 19.885 11.9361 19.885C11.8783 19.011 12.2047 18.6407 13.1034 18.6639C15.0493 18.714 16.9974 18.6769 18.9446 18.6822C19.2114 18.6829 19.4781 18.7224 19.9686 18.762C18.99 19.4626 18.2442 19.9915 17.1844 19.9023C16.2177 19.8209 15.2387 19.885 14.1796 19.885Z" fill="white"/>
<path d="M27.6835 24.9957C27.6152 16.7123 27.6152 8.4005 27.6152 0.00976562C27.6724 0.129049 27.7794 0.327189 27.7796 0.525444C27.7878 8.55893 27.7865 16.5924 27.7847 24.6259C27.7846 24.7397 27.7632 24.8535 27.6835 24.9957Z" fill="white"/>
<path d="M11.1457 18.681C11.3163 18.7939 11.5098 18.932 11.4883 19.0132C11.4118 19.3023 11.2621 19.5721 11.1243 19.8851C10.5546 19.8851 9.98384 19.8513 9.41867 19.893C8.58499 19.9545 8.29166 19.5562 8.35371 18.6799C9.26376 18.6799 10.1668 18.6799 11.1457 18.681Z" fill="white"/>
<path d="M11.0547 15.8616C10.3521 16.0128 9.66301 16.0837 8.90039 16.1621C8.90039 14.604 8.90039 13.1671 8.90039 11.6711C9.59467 11.6711 10.2875 11.6711 11.0682 11.6711C11.0682 13.0593 11.0682 14.4203 11.0547 15.8616Z" fill="white"/>
<path d="M11.8603 10.7454C11.5621 10.8924 11.3196 11.0616 11.0637 11.0851C10.5529 11.1321 10.0347 11.0994 9.51955 11.0994C8.16085 11.0993 8.16085 11.0993 7.24219 10.0664C8.11469 8.48371 9.62834 8.79132 10.992 8.90683C11.5576 8.95476 12.0805 9.50706 12.6928 9.8716C12.3649 10.2192 12.1374 10.4604 11.8603 10.7454Z" fill="white"/>
<path d="M12.7738 10.9893C12.7922 11.9966 12.7342 12.9455 12.815 13.8824C12.8945 14.8037 12.5091 15.3191 11.5951 15.6368C11.5951 14.3809 11.5031 13.1543 11.6485 11.9566C11.695 11.5736 12.3704 11.267 12.7738 10.9893Z" fill="white"/>
<path d="M6.94384 11.2129C7.02662 11.0279 7.10868 10.9169 7.19074 10.8059C7.50891 11.1849 8.05999 11.5402 8.10144 11.9474C8.22402 13.1517 8.14526 14.3765 8.14526 15.6598C7.21281 15.1972 6.82253 14.5769 6.9265 13.5996C7.00766 12.8368 6.94299 12.0584 6.94384 11.2129Z" fill="white"/>
<path d="M2.68074 16.7614C2.55773 16.6467 2.47475 16.5468 2.47449 16.4467C2.46745 13.7336 2.46887 11.0205 2.46887 8.2395C2.97581 8.2395 3.43996 8.2395 3.95956 8.2395C3.95956 11.0581 3.95956 13.8712 3.95956 16.7761C3.54058 16.7761 3.14996 16.7761 2.68074 16.7614Z" fill="white"/>
<path d="M16.5882 11.6128C16.8921 11.6228 17.1155 11.6328 17.3947 11.6453C17.3947 12.1965 17.3947 12.7177 17.3947 13.2894C16.8744 13.2894 16.3728 13.2894 15.7988 13.2894C15.7988 12.7825 15.7988 12.2619 15.7988 11.6656C16.0188 11.6492 16.2633 11.631 16.5882 11.6128Z" fill="white"/>
<path d="M15.7482 8.39352C16.2799 8.25072 16.7977 8.18582 17.3882 8.11182C17.3882 8.68339 17.3882 9.14676 17.3882 9.66657C16.8651 9.66657 16.3442 9.66657 15.7344 9.66657C15.7344 9.24897 15.7344 8.86019 15.7482 8.39352Z" fill="white"/>
<path d="M15.7272 15.7722C15.9016 15.5404 16.0564 15.2957 16.2532 15.2551C16.6025 15.183 16.9773 15.2348 17.3964 15.2348C17.3964 15.7632 17.3964 16.2266 17.3964 16.7376C16.869 16.7376 16.3683 16.7376 15.7266 16.7376C15.7266 16.446 15.7266 16.1486 15.7272 15.7722Z" fill="white"/>
</svg>
