<svg width="24" height="24" viewBox="0 0 24 24" fill="none" xmlns="http://www.w3.org/2000/svg">
<path d="M22.8977 7.10312L19.8977 4.10312C19.7911 4.00376 19.6501 3.94966 19.5043 3.95224C19.3586 3.95481 19.2196 4.01384 19.1165 4.1169C19.0135 4.21996 18.9544 4.359 18.9519 4.50473C18.9493 4.65045 19.0034 4.79149 19.1027 4.89812L21.1418 6.93812H18.0002C17.1084 6.97031 16.2318 7.17902 15.4212 7.55218C14.1855 8.12218 12.6237 9.34093 12.1952 11.9078C11.6477 15.1891 9.10148 15.805 8.01398 15.9156C7.86661 15.0318 7.39163 14.236 6.68369 13.6868C5.97576 13.1376 5.08687 12.8753 4.19419 12.9522C3.3015 13.0291 2.47058 13.4396 1.86702 14.1018C1.26347 14.764 0.931606 15.6293 0.937579 16.5253C0.943552 17.4213 1.28692 18.2821 1.89925 18.9362C2.51158 19.5903 3.34791 19.9897 4.24154 20.0547C5.13517 20.1197 6.02048 19.8456 6.72103 19.287C7.42158 18.7284 7.88591 17.9263 8.02148 17.0406C8.72527 16.9781 9.41423 16.8018 10.0615 16.5184C11.2962 15.9691 12.8609 14.7559 13.3052 12.0925C13.9615 8.13062 17.8371 8.06124 18.0002 8.06124H21.1418L19.1027 10.1012C19.0475 10.1527 19.0031 10.2148 18.9724 10.2838C18.9417 10.3528 18.9251 10.4273 18.9238 10.5029C18.9225 10.5784 18.9363 10.6534 18.9646 10.7234C18.9929 10.7935 19.035 10.8571 19.0885 10.9105C19.1419 10.9639 19.2055 11.006 19.2755 11.0343C19.3456 11.0626 19.4206 11.0765 19.4961 11.0752C19.5716 11.0739 19.6461 11.0573 19.7151 11.0266C19.7841 10.9958 19.8462 10.9515 19.8977 10.8962L22.8977 7.89624C23.0025 7.79085 23.0613 7.64828 23.0613 7.49968C23.0613 7.35108 23.0025 7.20851 22.8977 7.10312ZM4.50023 18.9381C4.01814 18.9381 3.54687 18.7952 3.14603 18.5273C2.74518 18.2595 2.43276 17.8788 2.24828 17.4334C2.06379 16.988 2.01552 16.4979 2.10957 16.0251C2.20362 15.5523 2.43577 15.1179 2.77666 14.777C3.11755 14.4362 3.55187 14.204 4.0247 14.11C4.49753 14.0159 4.98763 14.0642 5.43302 14.2487C5.87842 14.4331 6.2591 14.7456 6.52694 15.1464C6.79478 15.5473 6.93773 16.0185 6.93773 16.5006C6.93773 17.1471 6.68092 17.7671 6.2238 18.2242C5.76668 18.6813 5.1467 18.9381 4.50023 18.9381Z" fill="white"/>
</svg>
