<svg width="24" height="24" viewBox="0 0 24 24" fill="none" xmlns="http://www.w3.org/2000/svg">
<path d="M22.8977 7.10214L19.8977 4.10214C19.7911 4.00278 19.6501 3.94869 19.5043 3.95126C19.3586 3.95383 19.2196 4.01286 19.1165 4.11592C19.0135 4.21898 18.9544 4.35802 18.9519 4.50375C18.9493 4.64947 19.0034 4.79051 19.1027 4.89714L21.1418 6.93714H18.0002C17.1084 6.96933 16.2318 7.17804 15.4212 7.5512C14.1855 8.1212 12.6237 9.33995 12.1952 11.9068C11.6477 15.1881 9.10148 15.804 8.01398 15.9146C7.86661 15.0309 7.39163 14.235 6.68369 13.6858C5.97576 13.1366 5.08687 12.8743 4.19419 12.9512C3.3015 13.0282 2.47058 13.4386 1.86702 14.1008C1.26347 14.763 0.931606 15.6284 0.937579 16.5243C0.943552 17.4203 1.28692 18.2811 1.89925 18.9352C2.51158 19.5893 3.34791 19.9887 4.24154 20.0537C5.13517 20.1187 6.02048 19.8446 6.72103 19.286C7.42158 18.7274 7.88591 17.9253 8.02148 17.0396C8.72527 16.9772 9.41423 16.8008 10.0615 16.5175C11.2962 15.9681 12.8609 14.755 13.3052 12.0915C13.9615 8.12964 17.8371 8.06027 18.0002 8.06027H21.1418L19.1027 10.1003C19.0475 10.1518 19.0031 10.2139 18.9724 10.2829C18.9417 10.3519 18.9251 10.4263 18.9238 10.5019C18.9225 10.5774 18.9363 10.6524 18.9646 10.7225C18.9929 10.7925 19.035 10.8561 19.0885 10.9095C19.1419 10.963 19.2055 11.0051 19.2755 11.0334C19.3456 11.0616 19.4206 11.0755 19.4961 11.0742C19.5716 11.0729 19.6461 11.0563 19.7151 11.0256C19.7841 10.9949 19.8462 10.9505 19.8977 10.8953L22.8977 7.89527C23.0025 7.78987 23.0613 7.64731 23.0613 7.4987C23.0613 7.3501 23.0025 7.20753 22.8977 7.10214ZM4.50023 18.9371C4.01814 18.9371 3.54687 18.7942 3.14603 18.5263C2.74518 18.2585 2.43276 17.8778 2.24828 17.4324C2.06379 16.987 2.01552 16.4969 2.10957 16.0241C2.20362 15.5513 2.43577 15.117 2.77666 14.7761C3.11755 14.4352 3.55187 14.203 4.0247 14.109C4.49753 14.0149 4.98763 14.0632 5.43302 14.2477C5.87842 14.4322 6.2591 14.7446 6.52694 15.1454C6.79478 15.5463 6.93773 16.0175 6.93773 16.4996C6.93773 17.1461 6.68092 17.7661 6.2238 18.2232C5.76668 18.6803 5.1467 18.9371 4.50023 18.9371Z" fill="#AEAEAE"/>
</svg>
