<svg width="20" height="20" viewBox="0 0 20 20" fill="none" xmlns="http://www.w3.org/2000/svg">
<path d="M12.2411 10.0007L16.0511 13.8107C16.2986 14.0582 16.2986 14.4601 16.0511 14.7076L14.7067 16.0519C14.4592 16.2994 14.058 16.2994 13.8098 16.0519L9.99922 12.2419L6.18859 16.0519C5.94109 16.2994 5.53984 16.2994 5.29234 16.0519L3.94734 14.7076C3.69984 14.4601 3.69984 14.0588 3.94734 13.8107L7.75797 10.0007L3.94734 6.19006C3.69984 5.94256 3.69984 5.54068 3.94734 5.29318L5.29297 3.94881C5.54047 3.70131 5.94172 3.70131 6.18922 3.94881L9.99922 7.75943L13.8098 3.94881C14.0573 3.70131 14.4586 3.70131 14.7067 3.94881L16.0511 5.29381C16.2986 5.54131 16.2986 5.94256 16.0511 6.19068L12.2411 10.0007Z" fill="black"/>
</svg>
